{"glyphs":{"0":{"ha":671,"x_min":6,"x_max":646,"o":"m 551 1093 l 551 1092 q 472 881 472 976 q 646 663 472 739 l 646 659 q 603 578 603 632 l 609 515 q 569 347 609 460 l 566 317 l 566 312 l 572 249 l 572 243 q 467 87 572 189 l 467 88 q 503 205 503 151 q 466 288 503 273 l 454 290 q 378 211 418 290 q 366 168 366 186 q 452 12 366 107 l 448 12 q 319 108 394 35 q 268 211 277 155 l 254 298 q 207 328 240 328 q 170 302 181 328 l 165 275 q 196 190 165 238 l 194 190 q 122 330 122 248 l 130 426 q 72 538 130 485 q 112 593 112 560 l 112 602 q 81 656 104 656 l 77 656 q 9 595 50 656 l 6 595 q 51 762 21 714 q 167 895 62 789 q 350 1015 267 975 q 551 1093 439 1057 m 149 722 q 197 627 197 670 l 196 619 q 218 614 206 614 q 349 739 280 614 l 350 739 l 350 738 q 310 603 333 658 q 245 521 301 580 q 220 433 220 481 l 222 433 q 321 381 266 431 q 347 323 347 344 q 479 408 435 408 l 484 410 q 521 522 513 426 q 477 569 521 569 q 411 555 456 569 l 410 556 l 410 558 q 444 661 444 612 l 444 675 q 398 793 444 715 q 385 899 385 836 l 385 924 q 258 855 319 899 q 149 722 170 785 z "},"1":{"ha":553,"x_min":-18,"x_max":491,"o":"m 430 1122 l 430 1121 q 356 920 356 1013 l 356 903 q 392 773 356 845 q 448 642 431 673 q 488 625 464 625 l 491 587 l 491 584 q 425 408 491 492 l 424 407 l 422 407 l 422 408 q 432 473 432 449 l 432 486 q 404 526 432 521 l 398 528 q 330 490 372 528 q 317 477 317 486 l 316 468 l 316 439 q 372 320 316 349 l 424 293 q 441 209 441 251 q 351 -3 441 96 q 261 -90 302 -62 l 243 -103 l 242 -103 q 356 185 356 68 q 337 241 356 232 q 267 270 300 270 l 263 270 q 131 153 189 270 l 128 153 l 128 169 q 173 339 128 241 l 174 339 l 187 338 q 243 382 210 338 q 226 515 226 470 q 236 571 230 571 l 260 568 q 350 614 298 568 l 351 625 q 247 812 351 683 q 215 835 221 835 l 215 836 q 254 862 241 851 q 264 891 264 873 q 243 916 264 916 q 165 876 222 916 q 134 671 165 836 l 113 610 l 111 610 l 111 611 l 112 659 q 46 889 112 830 q -18 1018 8 941 l -17 1018 q 123 983 66 983 l 128 983 q 212 1042 195 983 q 313 1090 231 1061 q 430 1122 357 1106 z "},"2":{"ha":678,"x_min":24,"x_max":639,"o":"m 233 1122 l 237 1122 q 383 1059 307 1102 q 503 963 441 1024 q 613 788 583 877 q 639 684 639 702 l 635 684 q 545 762 600 762 q 515 728 519 762 q 542 673 515 703 q 360 614 392 650 q 342 553 342 585 q 399 439 342 496 l 399 437 q 301 526 328 437 q 264 566 281 566 l 254 566 q 241 556 241 566 q 212 471 241 518 q 174 439 198 454 l 174 437 q 186 393 178 393 q 345 378 245 378 q 435 434 378 378 q 492 543 482 500 l 496 543 q 467 406 485 428 l 447 372 l 465 365 q 534 420 492 365 q 552 510 552 453 l 555 510 q 629 245 629 368 l 629 220 q 562 -18 629 94 l 559 -18 q 572 98 572 54 l 572 125 q 515 269 572 229 q 478 285 490 285 q 394 243 448 285 q 349 291 377 291 l 293 280 l 262 281 l 246 281 q 138 193 172 281 q 125 116 125 155 l 125 89 l 127 48 q 84 164 116 64 q 62 306 62 252 l 69 407 q 37 477 69 435 q 24 526 24 506 l 24 542 q 45 616 24 568 l 49 616 l 49 605 q 89 505 49 526 l 98 503 l 100 503 q 146 523 123 503 q 110 603 146 555 l 110 606 q 220 658 146 606 q 429 746 304 723 l 429 770 q 457 842 429 823 q 378 935 433 907 q 325 950 357 945 q 198 848 253 902 q 176 812 176 823 l 176 804 q 240 706 176 745 l 240 703 l 238 703 q 125 759 168 703 q 68 859 97 833 q 33 884 37 884 l 33 888 q 134 911 85 888 q 172 958 142 918 q 292 1042 235 1017 l 292 1046 q 233 1122 292 1080 z "},"3":{"ha":645,"x_min":22,"x_max":609,"o":"m 588 1109 l 588 1106 q 522 1052 543 1089 q 513 1015 516 1036 q 529 918 529 958 l 529 915 q 433 692 529 799 q 524 629 497 671 q 581 685 546 629 q 601 777 601 745 l 604 777 l 604 775 l 609 727 q 576 595 609 680 q 570 568 570 582 l 570 556 q 588 429 570 541 l 590 386 l 590 380 l 585 280 l 582 280 q 529 355 569 355 q 469 293 489 355 q 466 267 466 286 l 466 265 l 468 229 q 312 -74 468 77 l 273 -106 l 271 -106 l 271 -104 q 381 163 381 59 q 317 260 381 238 q 265 273 295 273 l 254 273 q 71 150 166 273 l 69 150 l 69 151 q 134 341 98 271 l 178 418 l 182 418 q 222 375 193 375 l 223 375 q 321 431 254 375 l 326 431 l 326 429 q 300 378 300 395 l 300 372 q 309 354 303 354 l 392 354 q 437 423 393 378 q 484 447 460 439 l 484 449 q 366 618 484 572 l 334 623 l 328 623 q 238 545 254 623 l 236 526 l 236 508 q 246 442 236 477 l 244 442 q 186 605 186 508 q 260 748 186 665 q 300 733 282 733 l 309 733 q 420 862 373 733 q 426 923 425 886 q 418 966 426 966 l 401 968 q 230 881 332 968 q 180 779 180 832 l 182 770 q 85 699 109 770 l 79 650 l 85 589 l 82 589 q 22 775 22 693 l 22 786 q 60 806 24 790 q 128 935 128 850 q 378 1072 277 1046 q 588 1109 492 1109 z "},"4":{"ha":677,"x_min":35,"x_max":662,"o":"m 271 1154 l 272 1154 q 431 1076 317 1143 q 559 965 483 1044 q 654 694 662 829 l 650 694 q 604 736 631 736 q 555 683 568 736 q 595 619 554 651 q 513 490 517 551 q 537 358 512 378 q 566 338 537 349 q 574 239 577 279 q 504 12 569 138 l 500 12 q 508 83 505 37 q 466 212 514 191 q 408 227 427 227 l 395 227 q 331 189 357 227 l 323 188 q 157 269 230 188 l 157 271 q 280 251 235 251 q 404 313 320 251 q 417 347 416 336 l 417 351 q 390 420 419 378 l 390 423 q 444 544 440 475 l 444 551 q 437 603 445 602 q 333 452 395 513 q 300 426 328 452 l 296 426 q 253 553 278 511 q 142 648 184 648 q 101 587 104 648 l 102 532 q 39 691 35 621 l 40 707 q 197 983 47 824 q 300 1053 272 1047 l 301 1053 q 252 970 254 997 q 313 884 249 922 l 317 840 q 283 755 315 806 l 279 755 l 281 767 l 281 775 q 214 858 285 829 q 159 757 161 793 q 251 699 206 743 q 315 612 289 661 q 330 648 321 612 l 330 656 q 326 731 331 674 q 369 820 328 771 l 371 820 l 364 772 q 403 693 360 693 q 469 725 430 693 l 470 739 q 523 820 472 775 q 432 858 484 858 l 424 860 l 422 862 l 422 863 q 448 921 446 888 q 271 1152 454 1026 l 271 1154 z "},"5":{"ha":688,"x_min":15,"x_max":649,"o":"m 388 1206 l 391 1206 q 440 1050 441 1126 q 496 1006 454 1006 l 503 1006 q 570 1097 536 1006 l 570 1101 l 571 1101 q 618 920 618 1021 q 570 701 618 839 l 568 701 l 570 720 q 519 911 570 876 q 488 921 503 921 q 410 890 456 921 l 407 890 q 368 941 391 941 l 359 941 q 292 921 350 941 l 277 920 l 271 920 l 218 924 q 177 877 178 924 l 176 861 q 226 760 176 791 q 405 696 332 732 q 496 641 444 675 q 561 618 515 632 q 528 539 529 577 q 574 519 553 519 l 578 519 q 625 597 614 519 l 627 627 l 630 627 q 649 549 649 579 q 608 456 648 511 q 597 420 597 439 l 597 418 q 646 341 597 367 l 646 339 q 593 195 640 269 q 472 82 530 111 l 472 83 q 529 220 528 156 l 529 230 q 508 277 529 271 q 474 285 486 285 q 366 151 405 285 l 359 87 q 423 -96 359 -13 l 422 -96 q 292 60 328 -38 q 269 187 281 95 q 185 328 230 328 q 138 290 165 328 q 127 239 127 266 q 142 165 127 212 l 142 163 l 141 163 q 45 339 45 232 l 45 360 q 66 368 45 362 q 110 414 93 381 q 26 466 79 466 l 26 469 q 151 644 151 530 l 149 662 l 151 662 q 193 583 193 621 l 193 573 l 186 513 q 325 338 186 440 l 328 338 q 500 445 431 338 l 499 446 q 432 566 431 476 l 432 578 q 416 584 432 581 q 374 523 390 584 q 329 471 357 484 q 268 451 306 458 l 268 453 q 330 570 329 513 q 271 652 330 630 q 82 686 222 670 l 82 688 q 113 739 113 714 q 75 798 113 770 q 41 804 64 804 l 15 804 l 15 808 q 73 872 50 837 q 98 989 98 918 q 111 1068 104 1041 l 114 1068 q 208 1010 178 1010 l 223 1010 q 307 1031 251 1010 q 332 1022 320 1023 q 394 1089 374 1022 l 399 1130 q 388 1206 399 1158 z "},"6":{"ha":656,"x_min":39,"x_max":625,"o":"m 610 1101 l 610 1098 q 530 994 530 1050 l 530 987 q 564 929 530 951 l 574 928 l 581 928 l 581 920 q 521 794 581 880 l 517 794 q 486 886 517 823 l 461 910 q 477 942 476 926 q 452 968 471 968 q 294 913 427 968 q 196 798 196 848 l 196 781 l 157 761 q 140 675 140 720 q 174 579 140 622 q 209 693 209 646 l 209 694 l 212 698 q 300 658 260 658 l 344 661 q 511 624 410 661 q 569 673 546 639 q 621 773 589 692 l 624 773 l 625 733 q 581 598 625 661 q 563 519 571 581 q 550 476 550 485 l 550 475 q 587 408 550 422 q 597 365 597 406 q 521 224 597 286 l 521 227 q 541 293 541 261 q 497 352 532 352 l 494 352 q 428 277 452 352 l 426 265 l 428 224 q 272 -79 428 71 l 233 -111 l 231 -111 l 231 -109 q 341 151 341 55 l 341 163 q 294 248 341 226 q 257 256 275 256 l 239 256 q 60 163 178 256 l 58 163 q 90 359 90 288 q 58 469 90 433 q 83 528 83 502 l 64 595 q 39 751 39 709 l 39 772 q 68 788 41 777 q 148 910 148 836 l 148 922 q 270 1003 198 966 q 442 1072 335 1039 q 610 1101 565 1101 m 168 454 l 168 452 q 185 380 185 423 l 182 351 q 286 428 256 420 l 286 425 q 256 360 256 386 l 259 349 l 362 346 l 362 347 q 399 408 363 370 q 455 437 425 426 q 463 498 463 481 q 338 572 463 553 l 325 574 q 168 454 262 574 z "},"7":{"ha":761,"x_min":33,"x_max":743,"o":"m 211 1101 q 387 1066 245 1101 q 650 924 536 1025 q 735 777 722 845 l 743 722 l 741 722 q 654 793 685 793 l 647 793 q 604 748 621 793 l 604 745 q 654 706 604 719 l 654 703 q 510 630 570 703 q 481 526 481 583 l 481 515 q 500 400 481 467 l 492 368 l 494 368 q 544 406 519 406 q 660 487 624 431 l 667 503 l 671 503 l 671 502 q 611 385 666 454 q 537 300 537 324 q 378 -9 498 136 q 298 -87 320 -73 l 298 -85 q 406 178 406 85 l 406 193 q 349 277 406 258 l 349 278 q 391 416 391 367 l 391 420 q 367 498 391 456 l 367 500 q 402 618 367 523 l 402 621 q 346 651 369 651 q 330 638 330 651 q 325 584 325 616 l 325 577 q 343 523 325 535 q 348 518 348 523 q 288 418 348 485 q 246 382 258 389 l 245 382 l 245 385 q 277 571 277 496 q 243 679 277 620 q 222 789 222 725 l 227 793 q 353 724 292 743 q 368 719 353 721 l 368 717 q 401 746 373 717 l 402 746 q 452 714 427 714 q 570 852 494 806 q 359 960 515 900 q 279 868 279 905 l 264 868 q 161 831 232 868 q 144 748 144 770 q 177 690 144 718 q 222 592 205 652 l 229 559 l 227 559 q 73 661 139 661 q 34 650 56 661 l 33 651 l 33 669 q 105 939 33 772 l 106 939 q 116 935 108 935 l 119 935 q 206 975 149 935 q 285 1032 258 1019 l 285 1036 q 211 1098 285 1062 l 211 1101 z "},"8":{"ha":657,"x_min":34,"x_max":632,"o":"m 571 1103 l 592 1103 l 611 1101 l 611 1098 q 542 1031 566 1077 q 534 972 536 1009 q 577 896 534 907 q 555 799 572 834 q 449 667 529 739 l 434 653 q 528 624 486 653 q 603 707 572 642 q 624 772 624 758 l 627 772 q 632 732 632 749 l 632 720 q 597 600 621 600 q 574 563 581 600 l 574 559 l 582 515 q 555 476 555 482 l 555 465 q 598 386 555 430 l 600 368 l 600 360 q 529 238 600 283 l 526 238 l 526 239 q 542 290 542 270 l 542 294 q 494 352 530 352 q 439 299 467 352 q 429 259 431 277 l 431 217 q 260 -96 431 60 l 235 -116 l 235 -114 q 345 151 345 50 l 345 158 q 250 252 345 252 q 73 165 184 252 l 60 156 l 60 159 q 94 357 94 274 q 61 469 94 433 q 115 510 95 490 l 115 511 q 50 682 63 587 q 34 775 34 745 l 34 779 q 61 791 37 782 q 143 920 143 840 l 143 926 q 313 1023 197 973 q 571 1103 457 1103 m 193 798 l 193 781 q 146 743 146 747 q 138 701 138 716 l 138 685 q 178 587 138 635 q 233 701 224 669 l 237 701 q 293 682 261 682 q 386 732 348 682 q 463 850 463 811 l 465 873 q 446 963 465 916 l 423 965 q 267 899 370 965 q 193 798 193 841 m 171 452 q 185 402 185 439 l 183 349 q 290 428 259 421 l 290 425 q 259 360 259 386 q 270 349 259 349 l 368 341 q 413 416 368 376 q 467 441 437 433 l 468 476 l 468 487 q 428 566 468 547 q 339 597 364 597 l 319 597 q 241 543 281 597 q 171 452 171 458 z "},"9":{"ha":655,"x_min":48,"x_max":648,"o":"m 243 1118 q 511 962 389 1071 q 614 817 599 869 q 648 679 648 737 l 645 679 q 596 719 624 719 q 553 673 564 719 q 576 658 553 661 l 577 658 q 616 666 592 658 l 616 664 q 563 574 563 614 q 556 507 557 574 l 556 476 q 583 386 556 414 q 474 272 579 356 q 415 198 426 237 q 400 121 400 152 q 461 -56 400 40 q 297 161 357 1 q 260 283 277 256 q 205 330 232 330 q 172 275 172 313 l 172 267 q 225 172 172 224 l 223 172 q 116 239 159 190 q 82 328 82 293 q 109 423 109 380 q 93 487 109 444 l 95 487 q 244 421 172 421 l 275 425 q 349 307 344 348 q 427 362 378 313 q 473 475 473 409 q 460 600 467 591 q 439 562 450 600 q 368 462 422 516 q 321 423 338 439 l 318 423 q 265 545 293 509 q 153 633 196 633 q 117 585 117 633 l 117 572 l 122 528 l 121 528 q 48 684 48 612 q 129 886 48 781 q 279 1021 195 984 l 279 1019 l 277 1006 l 277 1002 q 420 937 277 956 l 420 941 q 243 1114 386 1027 l 243 1118 m 297 870 l 297 868 q 305 829 305 848 l 305 810 q 281 736 305 774 l 278 736 l 279 748 l 279 764 q 236 836 279 822 l 212 842 q 153 732 168 791 l 154 732 q 330 600 248 705 l 344 581 l 346 581 q 353 612 353 597 l 340 688 l 340 699 q 374 777 340 732 l 376 777 l 374 736 l 374 735 q 399 664 374 677 l 407 663 l 412 663 q 471 699 435 663 q 511 798 471 743 q 418 844 511 806 q 297 870 339 870 z "}," ":{"ha":376,"x_min":0,"x_max":0,"o":""}," ":{"ha":376,"x_min":0,"x_max":0,"o":""},"!":{"ha":342,"x_min":31,"x_max":314,"o":"m 273 1190 l 273 1187 q 160 893 160 1016 l 160 878 q 314 670 160 737 l 314 665 q 271 587 271 638 l 277 520 q 258 414 277 483 l 258 413 q 271 372 258 391 l 271 370 q 117 323 213 340 q 70 286 102 317 l 70 289 l 83 384 l 109 411 q 121 479 121 439 l 121 484 l 124 484 q 137 416 137 460 q 157 400 146 400 q 184 453 174 413 q 195 525 195 496 q 150 575 195 575 q 83 562 130 575 l 83 564 q 113 673 113 621 q 89 768 113 701 q 75 905 75 823 q 87 1056 75 982 l 87 1061 q 47 1110 87 1083 l 47 1112 q 273 1190 125 1146 m 273 323 l 274 321 q 269 294 269 308 l 269 279 q 274 224 269 256 q 235 106 274 169 l 232 106 l 237 140 q 203 194 237 188 l 199 194 q 157 160 170 194 q 104 22 157 137 q 33 -62 80 -24 l 31 -62 q 68 67 68 20 l 63 132 l 63 142 q 155 263 63 230 q 232 290 200 268 l 273 323 z "},"\"":{"ha":528,"x_min":68,"x_max":465,"o":"m 169 1256 l 169 1253 q 150 1196 150 1223 l 150 1192 q 195 1127 150 1145 l 240 1122 q 256 1042 256 1088 q 186 852 256 941 q 73 734 168 817 l 71 732 l 68 732 l 68 734 q 177 992 177 900 l 177 999 q 130 1082 177 1057 l 121 1084 l 115 1084 q 69 1069 99 1084 l 69 1072 l 68 1078 l 68 1094 q 169 1256 68 1174 m 378 1256 l 378 1253 q 359 1196 359 1223 l 359 1192 q 404 1127 359 1145 l 450 1122 q 465 1042 465 1088 q 396 852 465 941 q 282 734 377 817 l 281 732 l 277 732 l 277 734 q 387 992 387 900 l 387 999 q 340 1082 387 1057 l 330 1084 l 324 1084 q 279 1069 309 1084 l 279 1072 l 277 1078 l 277 1094 q 378 1256 277 1174 z "},"$":{"ha":677,"x_min":9,"x_max":650,"o":"m 437 1118 l 437 1117 q 378 1038 378 1078 q 512 935 474 1005 q 555 882 542 882 q 641 865 579 865 l 642 865 l 650 866 l 650 863 q 559 771 579 823 q 517 722 559 753 q 425 697 468 697 l 425 699 q 491 805 491 741 l 491 808 q 420 905 480 849 l 420 901 q 377 701 420 795 l 378 694 q 456 636 396 688 q 543 601 515 601 l 543 600 q 504 517 504 549 q 551 498 530 498 q 600 568 588 498 l 604 609 l 604 610 l 607 610 q 628 530 628 562 l 628 519 q 589 426 628 486 q 583 372 583 397 q 639 332 583 344 q 607 224 637 297 q 452 60 559 135 l 450 60 q 507 207 507 134 q 488 254 507 250 q 456 263 474 263 l 450 263 q 345 133 384 263 q 338 73 338 100 l 338 54 q 403 -119 338 -38 l 401 -119 q 266 47 302 -59 l 245 175 q 165 310 205 310 q 110 258 136 310 q 105 224 105 241 l 105 215 q 121 141 105 188 q 57 263 57 187 l 57 271 q 91 395 57 330 q 39 440 79 423 q 9 448 9 446 l 9 450 q 115 549 82 482 q 131 617 131 585 l 131 644 q 171 562 171 608 l 161 485 q 277 336 161 433 l 277 342 q 252 490 277 389 q 247 536 247 517 l 248 600 q 235 641 244 640 q 125 667 147 667 l 125 670 q 149 720 149 697 l 149 726 q 118 757 144 757 l 115 757 q 25 680 66 757 l 25 681 q 112 911 39 795 q 227 1025 168 985 q 437 1118 382 1107 m 205 829 q 233 762 233 810 l 233 737 l 231 736 l 231 734 l 282 728 q 332 869 332 788 q 324 945 330 909 q 231 890 279 945 q 205 829 205 842 m 335 575 q 372 433 335 508 l 393 413 q 357 371 357 385 l 357 370 q 366 334 357 350 q 481 377 438 334 q 496 410 496 395 l 496 411 q 424 505 442 411 l 420 546 l 420 566 q 369 591 412 566 l 357 591 q 335 575 348 591 z "},"&":{"ha":795,"x_min":32,"x_max":817,"o":"m 452 1118 l 452 1117 q 393 1038 393 1078 q 514 943 481 1008 q 554 886 530 905 q 652 866 602 866 l 652 863 q 569 779 589 818 q 554 728 554 741 q 590 676 554 703 l 590 675 l 583 675 q 513 701 559 675 l 506 702 q 404 636 483 701 l 404 635 q 496 561 404 595 l 496 557 q 486 533 486 543 q 545 480 486 506 q 577 553 577 520 q 543 587 572 587 l 534 588 l 522 588 l 522 589 q 597 627 562 627 l 654 625 l 686 625 q 773 636 717 625 q 664 546 714 601 q 648 492 656 533 l 627 448 q 669 440 653 440 l 683 440 l 683 437 q 672 419 675 437 l 672 408 q 771 215 672 361 q 817 117 812 144 l 813 117 q 656 263 713 263 l 648 263 l 644 267 l 644 273 q 597 345 644 307 l 595 326 q 614 264 595 279 l 621 263 q 554 121 621 206 q 471 59 503 70 l 471 60 q 529 207 529 134 q 509 254 529 250 q 477 263 495 263 l 471 263 q 366 133 405 263 q 360 73 360 100 l 360 54 q 424 -119 360 -38 l 422 -119 q 288 47 323 -59 l 267 175 q 186 310 226 310 q 132 258 157 310 q 127 224 127 241 l 127 215 q 143 141 127 188 q 51 337 51 209 q 98 372 80 345 l 107 397 q 41 445 81 445 l 37 445 l 37 446 q 148 641 148 513 l 148 643 l 149 643 q 186 545 186 591 l 188 545 q 271 622 194 545 l 271 623 q 128 667 193 667 l 128 670 q 156 723 156 701 q 125 757 151 757 q 35 680 69 757 l 32 680 q 128 911 57 821 q 281 1043 212 1013 q 452 1118 363 1092 m 201 829 q 236 739 236 791 l 237 737 l 237 736 l 244 736 q 339 692 292 736 l 340 692 q 461 792 437 768 l 479 819 q 352 941 433 905 l 339 945 q 236 888 294 945 q 201 829 214 858 m 204 422 q 263 376 227 396 q 310 324 284 357 l 321 323 q 475 361 418 323 q 492 393 492 377 l 492 398 q 421 420 433 407 q 427 438 427 429 l 427 441 q 399 507 418 507 q 345 556 371 518 l 344 556 q 254 480 283 512 q 205 429 254 477 l 204 422 z "},"'":{"ha":316,"x_min":68,"x_max":256,"o":"m 169 1256 l 169 1253 q 150 1196 150 1223 l 150 1192 q 195 1127 150 1145 l 240 1122 q 256 1042 256 1088 q 186 852 256 941 q 73 734 168 817 l 71 732 l 68 732 l 68 734 q 177 992 177 900 l 177 999 q 130 1082 177 1057 l 121 1084 l 115 1084 q 69 1069 99 1084 l 69 1072 l 68 1078 l 68 1094 q 169 1256 68 1174 z "},"(":{"ha":407,"x_min":37,"x_max":454,"o":"m 454 1254 q 161 753 252 1068 q 212 639 212 701 l 212 632 q 230 625 215 625 l 230 623 q 353 803 292 623 l 355 803 q 311 587 335 661 l 253 481 q 233 369 233 419 q 336 286 308 342 q 363 172 363 233 l 363 169 l 359 57 q 446 -228 359 -73 l 444 -228 q 322 -85 373 -172 q 281 39 289 -25 q 266 181 275 72 q 225 218 248 218 l 219 218 q 185 165 193 218 l 184 143 q 211 23 184 95 q 143 106 144 87 q 111 197 121 140 q 105 237 109 201 q 150 367 150 270 l 150 372 q 97 517 150 440 l 97 520 q 136 598 136 544 q 103 684 128 684 q 37 598 81 684 l 37 601 q 77 836 37 692 q 205 1046 125 938 q 366 1198 303 1157 q 454 1254 447 1254 z "},")":{"ha":406,"x_min":-45,"x_max":371,"o":"m 43 1198 q 203 1046 105 1157 q 331 836 283 938 q 371 601 371 692 l 371 598 q 305 684 328 684 q 273 598 280 684 q 311 520 273 544 l 311 517 q 258 372 258 440 l 258 367 q 303 237 258 270 q 297 197 300 201 q 265 106 288 140 q 197 23 264 87 q 224 143 224 95 l 223 165 q 189 218 216 218 l 183 218 q 142 181 160 218 q 127 39 133 72 q 86 -85 119 -25 q -36 -228 35 -172 l -37 -228 q 50 57 50 -73 l 45 169 l 45 172 q 72 286 45 233 q 175 369 100 342 q 155 481 175 419 l 98 587 q 53 803 73 661 l 56 803 q 178 623 117 623 l 178 625 q 196 632 193 625 l 196 639 q 247 753 196 701 q -45 1254 156 1068 q 43 1198 -39 1254 z "},"*":{"ha":694,"x_min":148,"x_max":546,"o":"m 338 878 q 313 966 335 926 q 288 1023 288 1010 q 303 1058 288 1044 q 346 1071 319 1071 q 388 1059 371 1071 q 404 1027 404 1046 q 380 966 404 1013 q 355 878 357 925 q 431 929 399 895 q 478 970 466 966 q 492 972 486 972 q 516 966 505 972 q 542 930 534 954 q 546 905 546 917 q 543 886 546 895 q 517 861 536 866 q 505 859 513 859 q 453 865 488 859 q 416 869 434 869 q 361 861 388 869 q 432 805 391 824 q 486 773 478 783 q 494 747 494 761 q 493 736 494 741 q 467 700 488 715 q 427 685 447 685 q 426 686 426 685 q 393 701 405 686 q 378 765 385 713 q 347 850 372 810 q 315 766 321 810 q 302 705 309 715 q 269 686 289 688 l 265 686 q 227 701 246 686 q 200 735 206 715 q 197 749 197 742 q 205 770 197 760 q 261 805 214 782 q 332 861 302 825 q 278 868 304 868 q 242 865 260 868 q 189 857 205 857 q 180 859 183 857 q 152 884 159 865 q 148 904 148 893 q 152 928 148 916 q 176 964 159 952 q 199 972 188 972 q 212 970 205 972 q 262 928 225 966 q 338 878 294 895 z "},"+":{"ha":682,"x_min":52,"x_max":624,"o":"m 308 574 q 170 505 225 567 l 163 494 q 205 444 165 484 l 203 441 q 85 477 132 477 l 83 477 q 54 472 71 477 l 52 474 q 89 564 60 511 l 96 607 q 90 646 94 637 l 92 648 q 153 635 116 635 l 161 635 q 299 662 225 635 q 323 652 310 652 q 351 659 338 652 l 353 683 q 297 848 361 780 l 288 856 q 233 819 277 855 l 231 821 q 277 935 273 889 l 277 937 q 275 967 279 950 l 277 968 q 363 924 313 957 l 406 913 q 445 915 437 912 l 447 912 q 429 854 432 890 l 428 845 q 442 705 422 781 q 439 703 441 704 q 440 688 440 695 q 488 640 452 640 l 497 640 q 568 736 546 640 l 568 743 l 572 743 q 624 549 624 645 q 601 429 624 494 l 597 429 q 543 546 593 488 q 509 565 524 562 q 483 562 496 563 q 413 522 454 553 q 402 457 404 497 l 401 448 q 490 369 397 399 l 497 368 l 497 365 q 300 331 395 322 q 182 364 244 336 l 182 368 q 304 412 242 368 q 328 450 326 432 q 308 574 330 521 z "},",":{"ha":406,"x_min":52,"x_max":356,"o":"m 165 380 l 166 380 q 222 320 177 350 q 327 283 278 283 l 335 285 l 337 285 q 356 203 356 252 q 271 -8 356 94 q 171 -106 223 -68 l 170 -106 l 170 -104 q 276 143 276 54 l 276 151 q 263 199 276 184 q 227 153 227 180 q 176 145 201 145 l 165 145 q 134 153 137 146 q 207 239 207 199 l 207 246 l 184 250 q 56 145 131 250 l 52 145 l 52 146 q 140 349 52 279 l 165 380 z "},"-":{"ha":635,"x_min":47,"x_max":576,"o":"m 355 836 q 406 688 406 763 q 451 640 418 640 l 459 640 q 525 736 505 640 l 525 743 l 528 743 q 576 549 576 645 q 555 429 576 494 l 552 429 q 501 546 547 488 q 464 566 481 566 q 378 520 433 566 l 376 520 q 327 575 363 575 l 304 575 q 157 505 214 575 l 151 494 q 189 444 152 484 l 187 441 q 78 477 121 477 l 77 477 q 49 472 64 477 l 47 474 q 81 564 55 511 l 87 607 q 83 646 86 637 l 85 648 q 140 635 106 635 l 149 635 q 276 662 208 635 q 298 652 286 652 q 364 744 351 652 l 364 758 q 355 836 364 787 z "},"­":{"ha":635,"x_min":47,"x_max":576,"o":"m 355 836 q 406 688 406 763 q 451 640 418 640 l 459 640 q 525 736 505 640 l 525 743 l 528 743 q 576 549 576 645 q 555 429 576 494 l 552 429 q 501 546 547 488 q 464 566 481 566 q 378 520 433 566 l 376 520 q 327 575 363 575 l 304 575 q 157 505 214 575 l 151 494 q 189 444 152 484 l 187 441 q 78 477 121 477 l 77 477 q 49 472 64 477 l 47 474 q 81 564 55 511 l 87 607 q 83 646 86 637 l 85 648 q 140 635 106 635 l 149 635 q 276 662 208 635 q 298 652 286 652 q 364 744 351 652 l 364 758 q 355 836 364 787 z "},".":{"ha":338,"x_min":35,"x_max":269,"o":"m 153 406 l 155 406 l 155 405 q 136 347 136 374 q 174 283 136 305 q 192 279 181 279 q 250 290 215 279 q 269 231 269 264 q 215 93 269 173 q 97 132 157 132 l 77 132 l 35 128 q 112 163 75 163 l 139 163 q 157 180 157 167 l 157 191 q 109 237 137 237 l 100 237 q 59 223 82 237 l 56 233 l 56 242 q 153 406 56 328 z "},"/":{"ha":566,"x_min":-71,"x_max":681,"o":"m 608 1189 q 406 884 438 1014 l 422 855 q 465 675 465 795 l 465 609 l 461 605 l 460 605 q 408 673 433 673 l 406 673 q 366 597 380 673 l 366 589 q 395 540 366 555 l 395 538 l 353 491 q 317 373 317 429 q 289 224 317 272 q 193 100 269 174 q 243 257 243 190 l 243 267 q 227 298 243 298 l 225 298 q 155 229 197 298 q 124 116 138 156 q -68 -100 94 0 l -71 -100 l -45 -76 q 41 115 19 2 q 141 364 73 280 q 234 416 171 401 q 242 436 242 416 l 242 464 q 201 572 242 514 q 170 774 170 654 l 174 774 l 177 760 q 270 628 218 628 l 276 628 l 292 631 q 359 732 292 680 q 280 828 359 787 q 309 916 280 857 q 441 1074 338 977 q 679 1254 566 1188 l 681 1254 l 608 1189 z "},":":{"ha":338,"x_min":19,"x_max":310,"o":"m 153 406 l 155 406 l 155 405 q 136 347 136 374 q 174 283 136 305 q 192 279 181 279 q 250 290 215 279 q 269 231 269 264 q 215 93 269 173 q 97 132 157 132 l 77 132 l 35 128 q 112 163 75 163 l 139 163 q 157 180 157 167 l 157 191 q 109 237 137 237 l 100 237 q 59 223 82 237 l 56 233 l 56 242 q 153 406 56 328 m 309 809 l 310 808 l 309 806 q 252 785 273 802 q 227 714 220 758 q 236 699 229 707 q 281 661 250 681 q 248 608 273 629 q 107 562 203 571 q 62 677 100 631 l 48 692 l 19 723 q 96 686 72 715 l 113 665 q 136 662 127 654 l 145 669 q 151 736 168 713 l 145 742 q 108 765 134 756 l 113 773 l 120 779 q 309 809 186 834 z "},";":{"ha":338,"x_min":19,"x_max":310,"o":"m 309 809 l 310 808 l 309 806 q 252 785 273 802 q 227 714 220 758 q 236 699 229 707 q 281 661 250 681 q 248 608 273 629 q 107 562 203 571 q 61 677 100 631 l 48 692 l 19 723 q 96 686 71 715 l 113 665 q 136 662 127 654 l 145 669 q 150 736 168 713 l 145 742 q 108 765 133 756 l 113 773 l 120 779 q 309 809 186 834 m 58 239 l 54 248 l 54 256 q 146 413 54 338 l 148 413 l 148 412 q 134 384 139 397 q 174 331 143 357 q 226 299 201 307 q 237 302 231 300 q 242 296 240 299 q 250 295 245 295 l 255 297 l 257 297 q 271 219 271 266 q 209 18 271 115 q 136 -76 175 -40 l 136 -76 l 136 -75 q 209 121 195 43 q 204 114 207 117 q 94 151 149 151 l 74 151 l 35 147 q 107 181 72 181 l 122 181 q 148 211 138 196 q 115 250 134 242 q 54 163 87 227 l 51 163 l 51 165 q 58 239 51 205 z "},";":{"ha":338,"x_min":19,"x_max":310,"o":"m 309 809 l 310 808 l 309 806 q 252 785 273 802 q 227 714 220 758 q 236 699 229 707 q 281 661 250 681 q 248 608 273 629 q 107 562 203 571 q 61 677 100 631 l 48 692 l 19 723 q 96 686 71 715 l 113 665 q 136 662 127 654 l 145 669 q 150 736 168 713 l 145 742 q 108 765 133 756 l 113 773 l 120 779 q 309 809 186 834 m 58 239 l 54 248 l 54 256 q 146 413 54 338 l 148 413 l 148 412 q 134 384 139 397 q 174 331 143 357 q 226 299 201 307 q 237 302 231 300 q 242 296 240 299 q 250 295 245 295 l 255 297 l 257 297 q 271 219 271 266 q 209 18 271 115 q 136 -76 175 -40 l 136 -76 l 136 -75 q 209 121 195 43 q 204 114 207 117 q 94 151 149 151 l 74 151 l 35 147 q 107 181 72 181 l 122 181 q 148 211 138 196 q 115 250 134 242 q 54 163 87 227 l 51 163 l 51 165 q 58 239 51 205 z "},"<":{"ha":490,"x_min":57,"x_max":430,"o":"m 57 677 l 59 677 q 203 556 136 556 l 203 564 q 131 668 203 616 q 237 806 149 708 q 423 897 337 897 l 423 896 q 237 647 319 831 q 288 517 288 577 l 299 460 q 399 310 315 401 q 430 281 404 298 l 430 278 q 62 659 220 278 l 57 677 z "},"=":{"ha":606,"x_min":25,"x_max":568,"o":"m 354 943 q 396 790 401 866 q 438 738 405 740 l 446 737 q 517 829 492 734 l 518 836 l 522 836 q 557 637 564 734 q 529 515 554 580 l 526 516 q 482 639 525 577 q 446 662 463 661 q 358 622 416 664 l 355 623 q 310 682 346 679 l 288 684 q 136 623 198 690 l 130 614 q 165 559 130 602 l 163 557 q 56 602 99 598 l 54 602 q 26 599 42 602 l 25 601 q 64 689 35 637 l 73 732 q 71 772 74 764 l 73 774 q 127 757 94 760 l 136 756 q 265 774 195 751 q 287 762 275 764 q 358 850 339 758 l 359 865 q 354 943 361 893 m 240 153 q 197 311 193 232 q 155 364 189 361 l 148 365 q 77 271 102 369 l 76 264 l 73 264 q 36 469 30 370 q 64 593 39 527 l 67 593 q 111 466 68 530 q 147 442 130 444 q 235 482 178 440 l 237 482 q 283 421 248 424 l 305 419 q 457 479 395 411 l 464 490 q 428 546 463 501 l 430 548 q 537 502 494 506 l 538 502 q 566 505 551 500 l 568 503 q 529 412 558 465 l 520 368 q 523 327 519 336 l 521 325 q 466 343 500 340 l 458 344 q 329 326 399 349 q 307 338 319 337 q 236 248 254 342 l 235 233 q 240 153 234 204 z "},">":{"ha":490,"x_min":64,"x_max":437,"o":"m 431 659 q 64 278 273 278 l 64 281 q 94 310 89 298 q 195 460 179 401 l 206 517 q 257 647 206 577 q 70 896 175 831 l 70 897 q 257 806 157 897 q 363 668 345 708 q 290 564 290 616 l 290 556 q 435 677 357 556 l 437 677 l 431 659 z "},"?":{"ha":737,"x_min":31,"x_max":720,"o":"m 193 1118 l 197 1118 q 418 1066 252 1118 q 692 849 627 986 q 720 738 720 780 l 718 738 q 620 812 654 812 l 613 812 q 572 762 581 812 q 616 722 572 728 l 616 719 q 483 656 536 701 q 429 536 429 603 q 475 393 429 469 q 520 367 495 374 l 525 332 q 479 224 525 278 l 478 224 l 478 235 q 388 362 478 338 q 273 394 301 378 q 210 447 244 407 l 212 447 q 326 434 251 439 l 343 436 q 334 549 334 507 q 357 653 334 583 l 357 669 q 334 730 357 693 l 334 733 q 459 807 423 763 q 533 878 493 847 q 398 942 482 916 l 329 962 q 224 878 282 937 q 176 809 180 838 q 166 770 166 789 q 218 669 166 701 l 214 654 l 214 637 l 242 568 q 255 524 255 531 q 150 642 196 598 q 94 661 123 661 l 83 661 q 33 638 52 661 l 31 638 l 31 642 q 189 983 31 830 q 273 1045 231 1020 l 274 1050 q 193 1118 268 1076 m 253 339 l 256 339 q 401 269 385 297 q 448 176 413 252 q 462 143 462 148 l 460 143 q 414 156 436 156 l 408 156 q 359 106 359 146 l 357 104 l 369 22 q 293 -71 362 -14 l 292 -71 q 301 -3 301 -34 q 253 116 301 64 l 253 119 q 301 216 301 156 q 253 339 301 273 z "},"@":{"ha":1369,"x_min":68,"x_max":1276,"o":"m 659 562 q 557 507 603 555 q 511 372 511 460 q 554 241 511 300 q 678 182 597 182 q 764 295 744 185 l 764 618 q 659 562 727 575 m 922 159 q 854 172 880 160 q 812 208 829 183 q 757 164 793 183 q 667 146 721 146 q 493 214 569 146 q 416 372 416 282 q 452 485 417 431 q 542 563 488 539 q 660 597 597 587 q 734 626 705 608 q 764 676 764 644 q 736 761 762 723 q 648 799 709 799 q 566 759 600 799 q 532 674 532 719 l 501 674 l 501 782 q 550 809 501 795 q 671 823 600 823 q 802 779 745 821 q 859 672 859 736 l 859 273 q 923 193 859 193 q 1104 323 1048 217 q 1160 583 1160 429 q 1002 949 1146 810 q 677 1076 869 1076 q 411 983 538 1076 q 228 742 283 890 q 182 497 182 621 q 270 150 182 285 q 477 -47 358 16 q 693 -109 596 -109 q 1083 32 879 -109 l 1083 -19 q 696 -144 905 -144 q 383 -61 533 -144 q 151 171 233 22 q 68 484 68 320 q 152 799 68 648 q 386 1031 236 950 q 696 1112 536 1112 q 1109 956 941 1112 q 1276 572 1276 800 q 1157 275 1276 389 q 922 159 1038 161 z "},"A":{"ha":648,"x_min":8,"x_max":628,"o":"m 551 1118 q 480 942 480 1031 q 547 732 480 859 q 627 681 584 681 l 627 678 l 628 649 q 547 441 628 523 l 545 441 l 545 443 q 557 509 557 477 q 524 547 557 547 q 464 448 478 547 l 463 429 q 522 320 463 357 q 562 311 535 314 q 580 225 580 265 q 448 -39 580 106 l 448 -40 l 444 -40 q 469 159 469 59 q 391 288 469 244 q 356 294 374 294 q 292 277 330 294 l 292 279 q 304 353 304 313 l 304 366 q 180 541 304 481 l 180 539 q 252 351 180 437 q 121 198 161 302 q 100 73 100 125 l 97 73 q 69 235 69 179 l 69 250 q 97 343 69 275 l 103 390 q 58 631 103 478 q 20 705 40 671 q 8 752 8 734 l 8 770 l 9 778 l 13 778 q 66 743 38 743 q 127 834 106 743 q 343 1011 264 964 q 546 1118 456 1084 l 551 1118 m 193 667 q 283 583 267 583 q 368 507 313 571 l 377 488 q 395 532 395 507 q 378 601 378 585 l 378 610 l 380 612 l 380 614 q 398 610 387 610 l 403 610 q 475 641 429 610 q 374 776 441 776 l 368 776 q 330 768 353 776 l 330 770 q 372 882 372 829 l 369 887 q 262 823 317 872 q 193 667 193 745 z "},"B":{"ha":713,"x_min":-3,"x_max":670,"o":"m 633 1097 q 549 1010 549 1037 q 566 921 566 960 q 456 663 566 796 l 462 663 q 558 635 516 663 l 560 635 q 614 682 583 635 q 646 785 646 741 l 648 785 q 665 724 665 751 l 665 711 q 634 584 665 684 l 634 568 q 665 473 634 537 q 670 433 670 450 l 670 408 q 647 285 670 361 l 644 285 l 644 300 q 614 361 640 361 l 608 361 q 538 292 567 361 l 536 275 l 537 231 q 349 -82 537 74 l 321 -101 l 321 -100 q 441 165 441 64 l 441 172 q 381 262 441 239 l 355 265 q 196 151 281 265 l 192 151 q 311 376 192 247 q 378 434 353 416 l 380 434 l 380 433 q 351 361 351 391 l 355 359 l 392 359 l 462 357 q 507 426 472 397 q 555 446 543 446 q 507 541 547 490 q 376 603 443 603 q 279 534 302 603 l 277 516 l 277 502 q 293 426 277 473 l 292 426 q 204 548 204 480 q 282 659 204 618 q 397 738 387 726 q 460 916 460 814 l 460 939 q 240 758 326 892 q 170 606 201 695 q 207 422 197 452 q 254 363 220 394 q 170 265 189 312 q 111 92 132 199 l 106 62 l 102 62 q 77 205 77 153 l 77 229 q 111 376 77 277 q 113 412 113 390 l 113 421 q 50 652 113 504 q 130 727 130 676 q 97 755 130 750 l 91 755 q -1 659 50 755 l -3 659 l -3 661 q 75 849 7 753 q 277 995 161 956 l 279 995 q 215 895 215 939 l 218 875 l 220 875 q 361 992 293 958 q 633 1097 471 1061 z "},"C":{"ha":631,"x_min":-27,"x_max":625,"o":"m 435 1114 q 376 1026 376 1063 q 503 935 422 1013 q 567 839 547 879 q 625 798 598 803 l 625 797 q 526 735 574 735 q 446 684 486 722 q 396 595 408 636 l 395 595 q 391 600 391 595 l 389 625 q 448 789 389 694 l 453 814 l 453 817 q 324 934 453 868 l 316 935 q 196 861 262 920 q 170 826 178 840 q 205 735 205 785 l 205 727 q 170 626 205 680 q 220 435 174 531 q 289 354 240 399 q 330 333 323 333 q 373 448 344 424 q 419 431 392 431 l 420 431 q 560 522 479 431 l 562 522 q 552 448 552 478 q 611 372 552 372 l 612 372 l 612 370 q 505 198 580 252 q 452 172 465 173 l 452 174 q 507 273 507 225 q 473 333 507 313 l 471 333 q 397 239 429 333 q 368 126 388 177 q 216 -58 311 -5 l 216 -56 q 274 113 274 30 q 168 310 274 224 q 90 491 90 392 q 74 597 83 597 q 15 665 68 615 l 15 667 l 17 667 q 108 704 89 667 l 110 714 l 110 717 q 66 769 102 769 q -27 719 33 769 l -27 720 q 233 1018 40 895 q 435 1114 363 1097 z "},"D":{"ha":713,"x_min":-4,"x_max":673,"o":"m 521 1103 l 521 1100 q 441 1034 441 1060 l 441 1029 q 576 916 494 1004 q 673 659 673 798 l 673 656 l 671 649 l 669 649 q 618 689 642 689 q 572 644 591 689 l 572 636 q 609 585 572 615 q 462 348 609 541 q 418 210 418 279 l 418 189 q 537 -91 418 65 l 536 -91 q 380 43 479 -57 q 298 216 319 113 q 244 313 285 313 q 185 269 213 313 q 177 224 177 244 l 177 212 q 222 52 177 153 l 220 52 q 110 189 128 145 q 50 373 50 296 l 52 399 q 115 433 91 407 q 156 586 156 482 q 68 707 156 654 l 68 708 q 123 748 115 708 l 123 754 q 82 794 112 794 q -1 724 46 794 l -4 724 l -4 726 q 95 934 -4 831 q 409 1084 201 1034 q 521 1103 498 1103 m 193 862 l 215 796 q 267 756 237 756 q 308 791 291 756 l 311 791 q 218 416 283 614 l 233 416 q 348 372 302 416 q 358 357 358 361 l 359 357 l 484 570 q 420 625 458 625 l 418 625 q 358 597 389 625 l 356 597 l 356 599 q 409 677 385 658 l 479 724 q 536 780 507 747 q 355 949 477 894 q 205 874 277 922 l 193 862 z "},"E":{"ha":659,"x_min":1,"x_max":620,"o":"m 476 1118 l 476 1114 q 416 1031 418 1069 q 541 939 471 1010 q 620 783 604 863 q 494 651 528 730 l 491 617 l 492 581 q 456 667 454 614 l 456 684 l 479 719 q 501 808 500 757 q 445 889 492 841 q 352 945 393 935 q 203 834 244 902 q 239 741 241 789 l 235 717 q 272 680 251 693 q 356 722 302 708 q 428 814 401 744 q 431 819 428 819 l 433 819 q 436 777 437 795 q 383 646 435 722 q 349 497 352 583 l 349 469 l 349 421 l 345 421 q 300 585 298 512 l 300 608 q 289 614 301 610 q 245 572 270 614 l 245 571 l 242 571 l 202 611 l 202 608 q 226 465 200 534 q 232 415 233 440 l 232 405 q 336 336 292 336 l 342 336 q 449 450 390 422 l 462 446 l 475 446 q 610 502 509 446 l 612 500 q 591 433 593 464 l 591 429 l 594 351 q 471 180 591 235 l 467 180 q 525 281 524 229 q 498 334 516 334 q 471 342 486 342 q 406 209 408 266 q 347 71 385 128 q 225 -48 295 -5 l 224 -48 l 224 -47 q 286 121 283 38 q 120 325 291 274 q 105 330 113 325 q 125 391 124 364 q 108 578 113 456 q 64 651 98 623 l 44 672 l 44 673 q 135 707 109 673 l 140 725 q 96 777 132 777 q 3 728 62 777 l 1 728 l 1 730 q 138 921 35 815 q 427 1100 275 1041 l 476 1118 z "},"F":{"ha":656,"x_min":-3,"x_max":663,"o":"m 505 1118 l 505 1116 q 446 1031 446 1063 q 576 942 494 1016 q 663 781 656 844 q 543 659 581 738 q 536 619 537 642 l 541 581 l 539 581 q 499 673 499 614 l 499 678 q 522 720 499 687 q 543 806 543 766 q 420 931 510 883 l 400 941 q 283 863 347 921 q 245 819 245 823 q 274 741 274 785 q 271 715 274 724 q 309 680 305 680 q 395 722 334 704 q 435 754 414 730 q 467 819 459 791 l 471 819 q 475 781 475 802 l 475 775 q 433 659 475 724 q 395 489 395 595 l 397 425 l 399 420 l 397 420 q 341 591 341 505 l 341 611 l 329 614 q 284 571 311 614 l 243 611 l 242 593 q 319 321 242 474 q 224 142 224 277 l 224 135 q 251 -35 224 63 l 251 -37 q 153 149 203 20 q 115 331 115 257 q 174 442 174 390 q 90 596 174 506 q 143 642 143 612 l 145 648 q 110 699 136 699 l 98 701 l 94 701 q -3 619 59 701 l -3 622 q 64 795 1 680 q 166 923 89 841 l 225 971 q 505 1118 382 1082 z "},"G":{"ha":688,"x_min":-14,"x_max":655,"o":"m 477 1105 l 477 1103 q 415 1018 415 1051 q 550 930 466 1004 q 641 772 621 850 q 538 708 584 747 q 465 637 485 640 q 435 621 454 627 l 432 621 q 505 734 490 680 q 526 795 526 778 q 435 903 503 862 q 353 938 386 927 q 196 821 244 898 q 229 734 229 787 l 229 732 q 196 621 229 686 l 220 441 l 222 409 q 304 336 264 360 q 361 317 347 317 q 495 430 414 401 l 496 430 l 496 436 q 439 473 496 460 q 391 488 409 488 l 359 488 q 328 457 334 488 l 328 456 q 351 404 328 434 l 349 404 q 295 446 317 414 q 247 645 247 528 l 250 645 q 321 583 271 600 l 323 581 l 324 581 l 344 583 q 488 549 422 583 l 531 541 q 653 606 583 541 l 655 606 q 610 470 655 559 q 589 406 589 412 l 589 401 q 627 359 589 385 l 627 338 q 498 166 627 219 l 498 168 q 556 259 556 217 l 556 269 q 517 326 556 307 q 441 238 477 326 q 404 113 429 170 q 248 -60 349 -3 l 247 -60 l 247 -59 q 308 97 308 26 l 308 111 q 193 296 308 227 q 116 356 159 310 q 98 385 98 377 q 121 483 113 398 l 121 484 q 85 610 121 546 q 33 660 64 635 l 33 661 q 132 705 132 669 l 134 711 q 85 764 125 764 q -13 714 47 764 l -14 714 q 41 816 -14 728 q 477 1105 191 1010 z "},"H":{"ha":656,"x_min":23,"x_max":696,"o":"m 694 1168 l 696 1168 l 696 1167 q 583 955 583 1034 q 641 877 583 905 l 641 873 q 562 776 562 848 q 588 656 576 656 q 613 618 588 648 l 613 615 l 566 551 q 533 420 533 484 q 608 277 533 323 l 608 271 q 406 -93 608 123 l 406 -90 q 488 158 488 60 q 440 266 479 254 q 428 269 440 269 l 414 269 q 353 254 394 269 l 352 254 q 421 400 398 293 q 446 496 430 462 l 447 498 q 352 553 392 520 q 328 591 328 583 l 312 591 q 198 532 243 591 l 197 522 l 197 507 q 256 342 197 432 l 258 340 q 108 206 154 298 q 70 32 70 131 l 70 27 l 66 27 q 41 146 41 95 l 41 165 q 96 366 41 241 l 99 395 l 99 412 q 71 694 99 565 l 74 694 q 115 749 115 716 q 71 801 115 781 l 66 801 q 24 777 48 801 l 23 777 q 74 916 29 844 q 184 1021 124 983 q 326 1087 283 1082 q 211 958 251 1023 q 165 852 174 901 q 212 752 212 802 l 212 734 q 198 680 212 714 q 240 674 218 674 l 242 674 q 315 709 277 674 l 317 718 l 317 725 q 265 798 317 747 l 265 799 q 374 741 337 782 q 408 667 408 701 l 408 647 q 472 610 408 629 l 473 615 q 437 818 473 753 q 489 886 473 839 q 519 992 503 965 q 694 1168 564 1080 z "},"I":{"ha":393,"x_min":5,"x_max":444,"o":"m 441 1087 l 444 1087 l 444 1084 q 306 944 430 1084 q 237 810 237 859 q 292 733 237 749 l 327 725 q 316 686 316 703 l 316 684 q 348 603 316 663 q 374 534 374 544 l 375 521 l 372 521 q 275 612 328 612 q 234 558 234 604 q 314 307 234 515 l 314 306 q 198 132 198 250 q 245 -35 198 66 l 250 -52 l 248 -52 q 121 176 131 100 q 113 237 113 196 q 123 277 113 277 q 160 325 160 301 q 174 400 174 378 l 174 423 q 94 582 174 494 q 147 630 147 601 l 147 633 q 105 686 138 686 l 98 686 q 9 606 63 686 l 5 606 q 44 735 18 674 q 139 822 90 822 q 165 901 155 901 q 364 1046 290 1012 q 441 1087 430 1084 m 317 1272 l 316 1270 q 279 1232 285 1247 l 279 1230 q 323 1204 269 1203 l 380 1213 q 383 1170 392 1196 q 256 1042 363 1110 q 88 944 225 1017 l 85 943 l 81 942 l 81 943 q 273 1121 254 1067 l 274 1124 q 232 1162 286 1158 l 220 1160 l 212 1158 q 152 1139 193 1154 l 152 1139 l 152 1143 l 155 1152 q 317 1272 171 1198 z "},"J":{"ha":690,"x_min":-12,"x_max":651,"o":"m 426 1171 l 427 1171 q 556 1052 484 1137 q 651 817 651 930 l 651 791 q 646 739 651 768 l 643 739 q 588 809 627 809 q 543 760 548 809 l 543 758 q 591 718 543 722 l 596 718 q 543 539 543 606 l 543 469 q 580 391 543 411 l 596 388 l 609 389 q 629 288 629 331 l 629 271 q 582 96 629 193 l 578 96 l 582 134 q 519 290 582 234 q 487 298 499 298 l 482 298 q 395 267 455 298 q 336 153 358 241 q 328 87 330 125 q 392 -67 328 -7 l 389 -67 q 257 79 291 -18 q 230 214 245 105 q 154 327 196 327 l 153 327 q 98 272 120 327 l 93 240 q 111 159 93 212 l 109 159 q 43 292 43 209 q 74 415 43 344 q -12 463 41 463 l -12 465 q 96 583 96 538 q 159 758 96 677 l 159 756 q 135 642 135 682 q 154 550 135 625 q 178 446 154 511 q 289 336 256 355 q 456 439 388 336 q 463 510 463 475 l 463 544 q 414 736 463 702 q 384 753 384 747 q 373 812 373 787 q 434 899 373 875 l 452 904 q 422 831 422 870 q 453 787 422 787 q 498 852 473 787 q 513 936 513 899 l 513 956 q 426 1169 513 1063 l 426 1171 z "},"K":{"ha":713,"x_min":44,"x_max":668,"o":"m 459 1103 l 460 1103 q 269 894 269 981 l 269 889 q 288 838 269 861 q 201 786 230 821 q 243 711 243 747 l 243 699 q 298 685 268 685 q 347 736 341 685 l 347 745 q 340 795 347 770 l 342 795 q 378 715 378 753 l 378 714 l 370 635 q 384 598 376 598 q 526 730 437 689 l 553 739 q 497 838 542 784 q 412 799 448 804 l 412 802 q 479 913 458 834 l 482 950 l 481 971 l 482 972 q 578 890 529 956 q 668 680 668 782 q 595 526 668 610 l 593 526 q 600 585 600 562 q 568 637 596 637 l 562 637 q 444 548 492 637 q 432 529 441 548 q 591 354 483 408 l 608 347 q 614 328 614 344 l 614 312 q 427 -34 614 144 l 426 -35 l 422 -35 q 505 174 505 78 l 505 190 q 474 259 505 243 l 459 262 l 446 262 q 410 254 432 262 l 409 256 l 409 257 q 431 328 431 290 q 340 461 431 397 q 275 564 288 522 q 256 489 256 536 q 302 317 256 422 q 151 53 151 256 l 151 50 l 149 50 q 111 193 111 107 q 160 389 111 292 q 170 444 170 418 q 138 581 170 541 l 115 611 l 115 614 q 146 671 146 645 q 104 717 146 702 l 96 719 q 47 677 67 719 l 44 677 q 111 876 44 770 q 255 1011 169 955 q 447 1101 340 1065 l 459 1103 z "},"L":{"ha":618,"x_min":41,"x_max":610,"o":"m 267 1131 q 168 889 168 1019 q 226 745 174 769 l 233 743 l 237 743 q 264 781 264 743 l 264 789 q 240 854 264 821 l 241 854 q 311 758 311 804 l 311 755 q 267 678 311 716 q 227 585 227 633 q 216 466 216 522 l 216 465 q 245 382 216 396 q 266 374 251 378 q 323 476 308 374 l 326 495 q 311 587 322 545 q 369 463 369 528 l 367 429 q 406 360 367 373 l 418 357 l 425 357 q 489 405 468 357 q 499 465 496 416 l 494 519 l 497 519 q 602 408 547 408 l 610 408 l 610 407 q 581 305 581 351 l 595 214 l 595 182 q 515 -64 595 79 l 507 -74 l 507 -71 q 522 82 522 19 q 444 278 519 239 l 428 281 q 343 239 396 281 q 277 298 323 298 q 166 269 233 294 q 75 92 75 215 l 75 77 l 76 42 q 44 170 44 95 l 44 182 q 111 422 44 297 q 136 522 136 479 q 96 675 136 566 q 144 711 144 681 l 144 714 q 100 773 144 764 q 49 698 66 773 l 45 698 l 41 747 l 41 773 q 224 1100 41 943 q 267 1131 262 1131 z "},"M":{"ha":790,"x_min":28,"x_max":778,"o":"m 778 1156 q 659 920 659 1026 q 720 747 659 849 q 763 682 763 690 q 712 545 712 613 l 717 510 l 701 512 l 697 512 q 661 483 661 503 q 646 415 653 473 q 686 300 646 369 q 743 254 713 264 l 744 248 q 559 -62 744 121 l 559 -59 q 623 164 623 75 q 585 275 623 229 q 556 283 566 283 q 488 264 531 283 l 487 266 q 515 298 487 270 q 564 436 564 368 l 564 444 q 526 486 564 473 q 506 512 506 500 q 538 502 522 502 l 541 502 q 618 613 591 502 l 614 613 l 614 614 l 612 613 l 606 613 q 479 560 557 613 l 419 502 q 406 443 408 502 l 406 436 q 439 374 406 405 q 336 275 421 374 l 323 264 l 319 264 q 339 380 339 330 q 209 597 339 517 l 189 606 q 180 543 180 574 l 180 532 q 245 349 180 444 l 188 317 q 72 54 72 229 l 68 54 q 43 179 43 120 q 94 378 43 253 l 96 412 l 96 437 q 73 695 96 599 q 119 742 119 724 l 119 745 q 78 801 105 801 l 77 801 q 30 774 59 801 l 28 774 q 303 1069 28 968 l 313 1071 q 189 883 189 957 l 189 882 q 214 743 189 812 q 258 693 242 693 l 262 693 q 302 772 288 693 q 328 822 323 822 l 328 821 l 323 769 q 366 595 323 698 l 371 568 l 372 568 q 492 693 372 572 l 515 690 l 528 690 q 588 756 581 690 l 588 767 q 543 861 574 825 l 538 869 q 630 1044 545 943 q 778 1156 726 1138 z "},"N":{"ha":734,"x_min":52,"x_max":700,"o":"m 700 1158 q 573 911 573 1039 l 573 896 q 654 680 573 810 q 692 568 692 611 q 637 417 692 480 l 631 414 l 631 417 q 648 475 648 449 l 648 478 q 602 547 645 532 q 549 486 578 547 l 543 444 q 578 290 543 427 q 583 240 583 266 l 583 220 q 414 -58 583 135 l 414 -55 q 498 197 498 103 q 449 292 488 292 l 439 294 l 437 294 q 355 273 401 294 l 353 275 q 376 387 376 336 q 219 585 376 532 l 216 585 q 210 538 210 562 l 210 526 q 278 361 210 448 l 237 342 q 97 59 97 254 l 94 59 q 66 187 66 128 q 119 387 66 262 q 122 427 122 402 l 122 448 q 98 690 122 593 q 146 734 140 713 l 146 741 q 105 796 130 796 l 100 796 q 53 769 82 796 l 52 771 l 52 772 q 290 1053 52 947 q 347 1073 318 1067 q 220 880 220 966 l 220 873 q 303 677 220 719 q 357 667 332 667 l 372 669 l 454 483 l 456 483 q 514 604 457 509 q 528 652 528 635 q 491 813 528 664 q 486 867 486 839 q 697 1158 486 1013 l 700 1158 z "},"O":{"ha":689,"x_min":6,"x_max":665,"o":"m 567 1093 l 567 1092 q 486 877 486 973 q 665 654 486 731 l 665 650 q 620 568 620 623 l 626 503 q 585 332 626 448 l 582 300 l 582 296 l 588 231 l 588 225 q 480 66 588 170 l 480 67 q 517 187 517 131 q 479 271 517 256 l 467 273 q 389 193 429 273 q 376 149 376 168 q 465 -11 376 87 l 461 -11 q 328 87 405 13 q 275 193 285 136 l 260 281 q 212 313 247 313 q 175 286 186 313 l 170 258 q 201 171 170 220 l 199 171 q 125 314 125 231 l 134 412 q 74 527 134 472 q 115 583 115 549 l 115 591 q 83 647 106 647 l 79 647 q 9 585 51 647 l 6 585 q 52 755 22 706 q 172 891 63 783 q 360 1013 275 972 q 567 1093 451 1057 m 153 714 q 203 618 203 661 l 201 610 q 224 604 212 604 q 358 732 288 604 l 360 732 l 360 730 q 319 593 342 649 q 252 509 309 569 q 226 419 226 468 l 228 419 q 330 366 273 417 q 357 307 357 328 q 492 394 447 394 l 497 396 q 536 511 528 412 q 491 558 536 558 q 422 544 469 558 l 421 545 l 421 547 q 456 652 456 602 l 456 667 q 410 787 456 707 q 396 895 396 831 l 396 921 q 266 850 328 895 q 153 714 175 779 z "},"P":{"ha":732,"x_min":56,"x_max":677,"o":"m 454 1109 l 456 1109 q 324 936 324 1010 l 324 933 l 334 933 q 430 1013 383 933 l 435 1013 q 575 889 490 979 q 676 679 676 767 l 677 677 q 609 500 677 606 l 606 500 l 609 537 l 609 553 q 559 620 609 610 l 557 620 q 464 555 526 615 q 399 422 399 485 l 399 420 q 403 395 399 402 l 401 393 l 399 393 q 323 473 348 437 q 277 555 289 519 l 274 555 q 260 481 260 522 l 260 479 q 297 321 260 411 q 393 275 334 275 q 506 300 433 275 l 506 297 l 450 246 q 311 166 358 176 l 311 168 l 319 195 q 289 227 314 227 q 226 208 260 227 l 202 204 l 195 204 q 152 45 152 151 l 152 11 q 155 -52 152 -28 l 154 -52 q 109 116 125 -12 q 100 233 100 184 l 100 273 q 107 311 100 311 q 161 340 161 325 q 182 418 182 366 q 121 605 182 536 q 154 664 154 640 q 112 711 154 696 l 105 713 q 59 672 78 713 l 56 672 q 168 936 56 804 q 313 1048 250 1016 q 454 1109 422 1106 m 419 878 q 292 827 350 827 q 205 781 250 827 q 247 700 247 744 l 245 692 q 302 679 277 679 q 347 734 341 679 l 347 741 l 340 791 l 342 791 q 377 706 377 747 q 369 633 369 651 l 369 630 q 379 592 369 610 l 380 592 q 553 732 455 699 l 555 732 q 446 867 521 827 q 419 878 425 878 z "},"Q":{"ha":716,"x_min":22,"x_max":691,"o":"m 568 1095 l 568 1094 q 507 901 507 991 q 691 666 507 745 l 691 661 q 648 583 648 634 q 656 491 656 520 l 656 465 q 629 315 656 397 q 601 306 629 306 l 601 304 l 652 233 l 652 232 q 538 44 538 160 l 535 44 q 527 94 527 75 q 551 219 527 145 q 490 264 514 241 q 427 203 473 264 q 394 110 394 163 q 463 -22 394 47 l 460 -22 q 292 145 321 56 q 271 262 281 176 q 223 292 253 292 q 182 238 182 292 q 210 157 182 203 l 210 155 l 209 155 q 138 293 138 213 q 146 402 146 374 q 88 541 146 488 l 88 544 q 125 578 106 544 l 128 592 l 128 602 q 93 660 128 650 q 24 599 71 660 l 22 599 q 52 732 22 635 q 143 857 61 770 q 273 964 230 943 q 488 1069 349 1015 l 568 1095 m 172 729 q 209 632 209 675 l 209 624 q 230 618 209 619 l 233 618 q 366 743 296 618 l 366 740 q 323 599 346 648 q 281 541 309 576 q 238 391 238 467 l 238 389 q 328 349 273 389 q 365 283 353 323 q 439 343 439 324 l 444 374 q 426 439 444 414 l 421 439 q 294 492 367 439 q 392 647 372 576 l 397 661 l 400 661 l 404 613 l 404 600 q 395 539 404 574 q 455 512 427 512 l 460 512 q 513 530 486 512 l 516 530 l 514 505 l 514 499 q 545 385 514 410 q 570 458 570 403 q 555 566 570 566 q 522 578 547 578 q 455 565 506 578 q 486 666 486 618 l 486 673 q 431 791 486 729 q 401 925 401 840 l 401 933 l 400 933 q 172 729 226 854 z "},"R":{"ha":710,"x_min":49,"x_max":671,"o":"m 465 1118 l 465 1116 q 328 947 328 1017 l 328 941 l 338 941 q 438 1020 389 941 q 592 888 492 997 q 671 689 671 785 q 599 531 671 620 l 595 531 q 602 589 602 561 l 602 596 q 572 645 602 638 l 567 645 q 462 578 501 645 q 437 534 440 551 q 498 416 455 481 q 612 327 545 348 q 616 319 616 327 l 616 298 q 433 -31 616 154 l 427 -35 l 427 -34 q 509 184 509 81 q 473 264 509 252 l 463 265 l 452 265 q 414 258 435 265 l 414 259 q 433 329 433 298 l 433 330 q 348 463 433 404 q 278 572 293 526 l 276 572 q 261 505 261 536 l 261 488 q 306 322 261 419 q 184 207 222 288 q 154 61 154 135 l 156 49 l 154 49 q 116 189 116 104 l 116 205 q 165 395 116 300 q 172 448 172 424 l 172 449 q 144 581 172 551 q 117 620 144 587 l 117 622 q 149 673 149 653 l 149 682 q 99 728 149 715 q 52 689 73 728 l 49 689 l 49 690 q 157 941 49 814 q 325 1063 244 1023 q 465 1118 378 1091 m 418 903 q 302 849 351 849 q 226 817 270 846 l 204 795 q 246 724 246 758 l 246 707 q 301 694 278 694 q 350 742 344 694 l 351 754 q 343 808 348 791 l 345 808 q 382 729 382 762 l 382 721 l 373 648 q 387 607 373 623 l 388 607 q 553 747 452 716 l 555 747 q 458 884 526 842 q 418 903 440 896 z "},"S":{"ha":714,"x_min":27,"x_max":670,"o":"m 452 1103 q 378 1024 385 1056 q 555 903 500 987 q 622 867 574 881 q 670 855 659 855 l 670 854 l 612 810 q 574 740 597 793 q 465 690 530 690 l 463 690 l 463 692 q 527 799 527 730 q 455 867 514 827 q 340 932 352 932 q 236 876 290 932 q 215 837 215 845 q 243 755 243 817 l 241 742 q 442 650 363 718 q 557 593 499 604 l 559 593 l 559 591 q 534 533 534 559 l 534 515 q 568 499 551 499 l 575 499 q 621 596 615 499 l 621 602 l 622 602 q 664 486 664 545 l 664 477 q 656 443 664 443 q 604 392 604 430 l 603 370 l 606 268 q 534 100 606 174 q 475 60 481 60 q 532 203 532 132 q 509 252 532 252 q 475 262 496 262 q 373 141 412 262 q 365 75 365 105 l 365 59 q 429 -113 365 -33 l 429 -115 l 427 -115 q 294 47 330 -57 q 270 176 284 86 q 191 307 227 307 l 188 307 q 133 251 156 307 l 130 227 l 130 216 q 146 143 130 189 l 146 141 l 144 141 q 80 262 80 192 l 80 281 q 109 392 80 325 q 54 436 96 420 l 27 441 l 27 444 q 130 539 100 477 q 148 609 148 575 l 148 627 l 146 637 l 148 637 q 189 556 189 595 l 189 550 l 183 490 q 323 310 183 433 q 513 422 438 310 q 460 469 498 422 q 434 553 434 512 l 434 558 l 414 561 q 351 473 389 561 q 271 428 316 437 l 270 428 l 270 430 q 326 542 326 487 q 245 637 326 613 q 130 669 193 654 l 130 671 q 156 718 155 697 l 156 727 q 125 758 151 758 q 37 682 75 758 l 37 680 l 33 680 q 127 903 48 795 q 236 1006 195 981 q 452 1103 359 1086 z "},"T":{"ha":901,"x_min":-41,"x_max":906,"o":"m 191 1097 q 419 1025 329 1076 q 494 973 469 994 q 655 1069 564 1025 l 702 1090 l 702 1089 q 663 1018 669 1050 q 773 931 703 994 q 832 909 800 918 l 832 903 q 895 751 832 862 q 906 708 906 722 l 906 705 l 818 652 q 758 589 781 623 q 667 437 718 503 l 648 417 l 648 420 q 724 637 718 546 q 784 740 736 678 q 635 926 747 852 q 525 849 583 907 q 463 749 464 777 q 496 706 473 718 q 559 693 510 699 q 622 532 622 610 l 622 530 l 620 522 l 617 522 q 524 614 573 614 q 461 552 494 614 l 458 530 q 543 309 458 494 q 446 129 446 254 l 446 118 q 475 -47 446 51 q 371 161 433 3 q 338 315 338 254 l 338 323 l 370 343 q 400 427 400 376 l 400 443 q 323 584 400 494 l 350 595 q 376 637 376 612 q 334 688 364 688 l 328 688 q 236 610 293 688 l 234 610 q 328 817 259 740 q 332 823 330 823 q 376 800 343 800 q 437 890 437 880 q 303 949 420 915 l 273 954 q 130 806 170 889 l 123 753 q 167 706 123 706 q 163 680 163 699 l 163 667 q 223 523 163 600 l 220 523 q 138 621 162 554 q 52 721 127 665 q -39 745 8 745 l -41 745 l -41 748 q 45 840 12 786 q 90 944 71 882 l 90 946 l 106 943 q 165 986 127 943 q 227 1033 226 1028 q 191 1095 224 1058 l 191 1097 z "},"U":{"ha":743,"x_min":-1,"x_max":693,"o":"m 455 1228 l 457 1228 q 581 1124 500 1206 q 693 866 693 995 l 693 853 q 688 797 693 825 l 685 797 q 627 878 665 878 q 587 845 599 878 l 584 823 q 639 773 584 781 q 585 604 585 649 q 613 450 595 473 q 664 404 640 404 q 690 321 690 370 l 690 304 q 653 114 690 235 q 645 96 650 114 l 642 96 l 642 112 q 571 262 642 200 q 481 291 519 291 l 475 291 q 410 268 446 291 q 363 167 380 245 q 354 94 354 130 l 354 79 q 416 -64 354 -4 l 414 -64 q 286 71 321 -18 q 259 189 271 106 q 224 289 259 222 q 184 317 201 317 l 179 317 q 124 263 147 317 q 119 231 119 252 l 119 227 q 137 149 119 191 l 136 148 l 134 148 q 69 284 69 200 l 69 300 q 92 411 69 343 l 97 447 q 29 488 62 488 l 16 492 l 16 493 q 92 566 92 524 l 92 577 q 63 641 92 603 q 106 707 106 666 q 81 755 102 755 l 77 755 q 0 696 54 755 l -1 696 q 102 903 35 842 q 262 1037 224 1021 l 262 1035 q 153 808 153 891 q 190 739 182 779 q 199 715 190 715 l 212 713 q 362 839 273 713 l 362 838 q 269 659 319 711 q 190 492 216 610 q 312 332 229 428 q 349 345 340 332 q 388 410 375 401 l 393 413 q 473 389 420 397 l 507 395 l 507 406 l 508 408 l 507 413 q 468 572 507 549 l 454 577 q 496 669 483 629 q 436 802 496 743 q 420 845 420 820 l 420 855 q 477 953 420 917 l 481 953 l 481 951 q 460 890 460 920 q 488 834 464 842 l 490 834 q 537 927 514 834 q 542 977 542 951 l 542 981 q 455 1226 542 1101 l 455 1228 z "},"V":{"ha":713,"x_min":24,"x_max":676,"o":"m 111 1132 l 114 1132 l 114 1127 q 257 787 114 905 q 191 610 191 715 l 184 531 l 184 520 q 229 387 184 479 q 331 290 277 311 q 366 393 333 320 q 439 430 401 396 l 437 450 q 530 648 437 602 q 557 660 557 656 l 557 662 q 526 770 557 751 q 472 839 497 797 q 434 874 448 865 l 434 875 q 474 922 474 897 l 474 931 q 458 951 472 951 l 456 951 q 403 924 436 951 q 387 863 387 895 l 387 860 q 411 796 387 821 l 411 795 q 361 650 361 739 l 361 630 q 368 559 361 595 l 365 559 q 321 736 321 646 l 323 826 q 263 963 323 856 q 501 1044 416 1002 q 638 1126 562 1074 l 640 1126 q 567 958 567 1037 q 665 748 567 829 q 659 702 659 720 l 676 603 l 676 585 q 622 469 676 521 l 621 469 l 621 471 q 628 522 628 498 l 628 533 q 597 574 628 569 l 591 576 q 528 496 545 576 l 527 475 l 527 473 q 554 385 527 442 q 431 225 431 308 l 431 213 q 528 30 431 134 l 527 30 q 233 214 429 62 q 107 357 125 318 q 119 391 119 376 q 81 437 119 423 l 80 437 q 48 406 67 437 q 27 361 37 387 l 24 361 l 24 387 q 64 507 24 443 q 117 739 117 631 l 119 748 q 92 829 119 802 q 77 852 77 833 q 73 904 73 871 l 73 922 q 111 1132 73 1019 z "},"W":{"ha":969,"x_min":26,"x_max":928,"o":"m 727 1202 l 728 1202 q 915 960 864 1113 q 928 873 928 910 l 928 846 l 923 790 l 921 790 l 907 819 q 860 856 884 856 q 820 808 826 856 q 873 767 820 773 q 831 650 833 684 l 820 497 l 820 473 q 867 394 820 423 l 863 361 l 863 356 q 883 277 863 334 l 884 259 q 859 146 884 233 l 849 126 l 846 126 l 847 137 l 847 146 q 781 292 847 235 q 734 304 756 304 q 664 280 710 304 q 643 182 643 260 q 633 98 633 123 l 633 84 q 691 -59 633 -1 l 688 -59 q 564 70 600 -16 q 542 189 542 140 q 495 309 530 260 l 477 345 q 455 356 465 356 q 359 256 359 279 q 341 220 341 235 l 341 218 q 344 176 341 185 q 326 84 326 108 q 389 -59 326 5 l 386 -59 q 309 -1 353 -45 q 256 172 256 66 q 188 314 233 314 q 134 238 134 293 l 134 233 q 155 157 134 202 l 153 157 q 94 279 94 201 q 127 414 94 332 l 31 571 q 117 650 117 612 l 117 661 q 103 695 117 675 l 103 696 q 124 743 124 719 l 124 751 q 100 796 124 791 l 96 796 q 27 747 75 796 l 26 747 q 103 972 38 867 q 217 1081 152 1034 q 315 1148 311 1148 q 186 891 186 996 q 217 846 186 859 l 217 844 q 196 795 196 825 q 204 754 196 774 q 304 838 245 762 l 336 883 l 336 882 q 291 714 336 831 q 231 669 256 703 q 169 547 179 608 l 285 353 l 286 353 q 365 385 349 353 l 413 441 q 326 570 342 552 q 338 574 326 573 q 426 650 393 594 q 455 724 455 709 l 455 735 q 429 817 455 759 l 431 817 q 510 783 469 783 q 642 880 576 783 l 642 877 q 571 724 608 783 l 503 653 q 469 570 481 623 q 591 346 504 516 q 686 388 663 346 q 712 435 712 410 q 682 552 712 522 q 728 606 714 568 q 740 660 736 625 q 684 804 740 750 q 671 852 671 829 l 671 864 q 725 946 671 909 l 727 946 l 727 944 q 706 883 709 917 q 738 833 713 833 l 740 833 q 801 939 772 833 q 806 987 806 968 q 727 1200 806 1086 l 727 1202 z "},"X":{"ha":711,"x_min":46,"x_max":671,"o":"m 440 1183 l 441 1183 l 441 1181 q 279 1050 382 1149 q 167 864 189 947 l 159 816 q 224 788 173 816 q 268 831 246 788 l 271 831 l 268 791 q 324 679 274 701 l 350 674 q 380 693 368 674 q 387 709 386 693 q 342 740 387 730 l 342 743 l 355 743 q 429 769 409 743 q 535 836 465 816 l 535 848 l 532 861 l 533 862 q 511 905 526 905 q 414 926 500 919 l 408 926 q 303 884 363 926 l 302 884 l 302 886 q 419 970 351 970 q 536 1033 458 975 l 543 1038 q 618 888 612 956 q 659 816 618 851 l 671 808 q 627 666 659 723 q 580 611 612 644 l 578 611 q 585 671 585 648 q 538 735 585 735 q 424 614 477 735 q 517 494 488 528 q 574 401 534 471 q 627 363 601 363 l 644 366 l 644 345 q 420 -27 644 157 l 419 -27 q 527 214 527 125 l 527 219 q 490 262 522 262 l 479 262 q 441 254 464 262 l 441 256 q 461 327 461 292 l 461 338 q 405 478 461 408 q 347 543 353 519 q 332 579 332 567 q 255 335 255 479 q 262 266 255 295 l 260 264 q 221 269 242 269 l 216 269 q 90 129 115 269 q 83 58 85 101 l 85 41 l 85 36 l 83 36 q 46 182 46 89 q 83 354 46 275 l 114 378 q 216 550 177 453 q 244 614 243 606 q 195 700 233 659 q 149 716 178 716 q 106 650 106 716 l 111 597 q 52 734 73 647 q 46 790 47 751 q 191 1039 46 925 q 440 1183 312 1119 z "},"Y":{"ha":706,"x_min":17,"x_max":686,"o":"m 440 1152 l 440 1149 q 176 838 176 1010 q 222 746 222 790 q 276 733 253 733 l 286 733 q 327 764 313 733 l 330 786 l 330 794 q 322 846 330 820 l 323 848 l 326 848 q 380 770 380 802 q 357 694 357 749 q 369 646 357 665 l 373 646 q 557 775 437 734 q 515 862 553 800 q 463 903 484 903 l 462 903 l 395 891 l 395 894 q 469 972 456 938 q 494 1026 479 981 l 496 1026 q 600 875 577 943 q 683 804 633 804 q 686 786 686 798 l 686 766 q 602 559 686 665 l 599 559 q 606 618 604 585 q 567 685 606 676 l 564 685 q 469 630 528 685 q 422 576 442 601 l 422 574 l 436 572 q 505 619 476 572 l 507 619 q 515 536 515 566 q 463 406 515 449 l 463 404 l 459 404 l 459 406 l 468 458 q 436 508 463 508 l 430 510 l 427 510 q 365 450 387 510 q 355 391 355 412 q 421 320 376 340 q 503 296 452 306 q 515 229 515 264 l 515 220 q 284 -104 515 65 l 281 -104 l 281 -103 q 421 199 421 112 l 421 214 l 387 230 q 317 283 355 244 q 218 232 278 279 q 151 146 161 174 l 148 146 q 267 376 148 247 l 267 385 q 290 547 267 491 q 260 633 260 584 l 260 642 l 262 650 q 184 679 225 679 l 163 679 q 96 666 138 679 l 96 667 q 123 717 123 696 q 76 766 123 749 l 68 766 q 20 727 40 766 l 17 727 q 176 1019 17 887 q 440 1152 307 1116 z "},"Z":{"ha":715,"x_min":7,"x_max":798,"o":"m 389 1086 l 390 1086 q 401 1060 393 1086 q 498 984 433 1010 l 512 983 q 657 1020 534 983 q 798 1039 719 1034 l 798 1036 q 683 977 742 1017 q 551 801 589 909 q 541 743 541 766 q 583 709 541 714 q 614 779 614 742 l 614 791 q 633 729 633 762 q 553 642 633 677 q 432 618 459 631 q 302 486 414 618 q 254 399 254 427 q 286 372 254 386 l 298 369 l 300 369 q 446 467 354 369 q 493 534 479 509 l 496 534 q 450 402 471 431 l 446 381 q 463 356 446 356 l 469 354 q 538 423 513 354 q 549 496 549 464 l 553 496 q 602 380 602 401 q 631 349 615 349 l 642 349 l 662 354 l 662 353 q 623 192 623 295 q 520 -72 586 22 l 519 -72 q 549 142 549 56 l 549 149 q 506 280 549 254 l 486 283 q 350 227 438 281 q 298 287 330 287 l 290 287 q 176 251 236 282 q 86 50 86 185 l 88 36 l 85 36 q 54 171 54 98 l 54 177 q 83 340 54 260 l 85 356 l 85 362 l 81 376 q 197 492 105 376 q 336 700 292 602 q 351 727 348 726 q 389 714 351 720 q 459 764 431 714 l 463 779 q 418 809 450 809 q 366 796 401 809 l 364 796 q 451 843 388 843 q 490 870 481 852 q 494 890 494 879 q 445 884 469 884 q 366 895 409 884 q 279 861 304 861 l 269 861 q 207 892 256 861 l 195 895 l 186 895 q 154 873 173 895 l 154 872 q 195 827 163 871 q 245 814 218 814 l 287 817 l 287 814 q 197 787 220 787 q 121 822 176 787 q 77 833 93 833 l 75 833 q 7 785 42 833 l 7 788 q 112 1005 35 923 q 199 1069 173 1064 l 193 1031 q 279 952 193 964 q 389 1086 332 952 z "},"[":{"ha":454,"x_min":36,"x_max":553,"o":"m 210 987 q 235 931 223 960 q 355 883 272 903 l 357 880 l 355 880 q 262 854 303 858 q 286 742 286 784 q 275 661 287 684 q 176 615 197 659 q 191 509 210 548 l 203 500 l 208 498 q 332 568 250 478 l 340 577 l 342 576 q 241 427 298 480 q 168 357 188 397 l 158 334 q 157 316 151 319 q 212 239 201 279 q 219 125 224 189 q 363 105 275 142 l 364 104 l 363 102 q 218 23 237 72 l 212 1 l 218 -2 q 326 32 256 -18 q 321 1 331 27 l 317 -10 q 292 -54 309 -33 q 235 -69 267 -43 q 275 -100 243 -87 l 282 -102 q 551 -100 364 -137 l 553 -100 l 552 -101 q 424 -156 497 -135 q 196 -154 298 -195 q 188 -151 192 -152 q 195 -183 191 -167 l 206 -213 l 203 -212 q 161 -136 178 -172 q 127 -104 140 -122 l 129 -103 l 134 -96 q 142 -87 138 -92 q 132 35 121 -20 q 150 136 136 72 q 119 218 142 208 l 119 219 q 93 201 105 226 l 90 193 q 71 49 64 139 q 41 184 38 136 q 74 313 36 233 q 90 421 95 358 l 75 475 l 75 476 q 117 505 104 477 l 119 511 q 117 587 138 576 l 115 587 q 48 553 96 597 l 47 553 l 46 558 l 71 611 q 172 738 115 706 l 196 754 q 199 864 205 802 q 173 880 185 870 l 136 891 l 135 892 q 168 967 158 913 q 122 1080 168 1036 l 117 1087 l 116 1089 q 135 1109 124 1100 l 116 1154 l 117 1154 q 142 1115 130 1135 q 184 1139 160 1128 q 412 1141 285 1180 q 541 1086 486 1120 l 541 1084 l 540 1084 q 271 1087 353 1122 l 263 1084 q 224 1054 233 1072 q 281 1039 256 1028 q 309 995 298 1017 l 313 984 q 317 953 322 958 q 210 987 248 1002 z "},"\\":{"ha":606,"x_min":-71,"x_max":681,"o":"m -71 1254 l -69 1254 q 169 1074 44 1188 q 301 916 271 977 q 330 828 330 857 q 251 732 251 787 q 317 631 317 680 l 334 628 l 340 628 q 433 760 391 628 l 436 774 l 439 774 q 408 572 439 654 q 368 464 368 514 l 368 436 q 376 416 368 416 q 469 364 439 401 q 568 115 536 280 q 655 -76 591 2 l 681 -100 l 677 -100 q 486 116 516 0 q 455 229 472 156 q 385 298 413 298 l 383 298 q 366 267 366 298 l 366 257 q 417 100 366 190 q 321 224 341 174 q 292 373 292 272 q 256 491 292 429 l 215 538 l 215 540 q 243 589 243 555 l 243 597 q 203 673 230 673 l 201 673 q 150 605 177 673 l 149 605 l 145 609 l 145 675 q 187 855 145 795 l 203 884 q 1 1189 172 1014 l -71 1254 z "},"]":{"ha":454,"x_min":-104,"x_max":412,"o":"m 131 953 q 136 984 126 958 l 140 995 q 167 1039 149 1017 q 224 1054 192 1028 q 184 1084 215 1072 l 177 1087 q -92 1084 96 1122 l -94 1084 l -93 1086 q 36 1141 -37 1120 q 264 1139 163 1180 q 305 1115 288 1128 q 330 1154 318 1135 l 332 1154 l 313 1109 q 332 1089 324 1100 l 330 1087 l 326 1080 q 281 967 281 1036 q 313 892 290 913 l 313 891 l 275 880 q 249 864 263 870 q 252 754 243 802 l 276 738 q 378 611 332 706 l 402 558 l 401 553 l 400 553 q 333 587 353 597 l 331 587 q 328 511 310 576 l 331 505 q 373 476 345 477 l 373 475 l 358 421 q 374 313 353 358 q 408 184 412 233 q 377 49 410 136 q 359 193 384 139 l 355 201 q 329 219 342 226 l 328 218 q 298 136 305 208 q 317 35 312 72 q 306 -87 327 -20 q 315 -96 310 -92 l 319 -103 l 321 -104 q 287 -136 307 -122 q 244 -212 270 -172 l 241 -213 l 254 -183 q 260 -151 258 -167 q 252 -154 256 -152 q 24 -156 151 -195 q -104 -101 -49 -135 l -104 -100 l -103 -100 q 166 -102 83 -137 l 174 -100 q 213 -69 204 -87 q 157 -54 182 -43 q 130 -10 140 -33 l 126 1 q 122 32 117 27 q 229 -2 192 -18 l 235 1 l 231 23 q 85 102 210 72 l 84 104 l 85 105 q 229 125 174 142 q 237 239 224 189 q 291 316 246 279 q 290 334 298 319 l 279 357 q 206 427 260 397 q 105 576 151 480 l 108 577 l 115 568 q 239 498 199 478 l 244 500 l 256 509 q 272 615 238 548 q 172 661 250 659 q 162 742 161 684 q 185 854 163 784 q 93 880 144 858 l 92 880 l 93 883 q 213 931 176 903 q 238 987 225 960 q 131 953 201 1002 z "},"^":{"ha":648,"x_min":20,"x_max":621,"o":"m 407 1251 l 407 1248 q 290 1087 290 1162 l 296 1087 q 397 1167 347 1087 q 532 1050 437 1148 q 621 841 621 937 l 619 841 q 378 1050 557 958 q 251 994 310 994 l 197 981 q 50 868 138 962 q 21 834 38 863 l 20 834 q 389 1244 20 1067 l 407 1251 z "},"_":{"ha":694,"x_min":-67,"x_max":684,"o":"m 369 -43 q 442 -134 442 -87 q 506 -164 459 -164 l 517 -164 q 611 -104 582 -164 l 611 -100 l 616 -100 q 684 -220 684 -161 q 654 -294 684 -254 l 650 -294 q 577 -222 643 -258 q 524 -210 549 -210 q 403 -238 481 -210 l 399 -238 q 330 -203 381 -203 l 298 -203 q 88 -248 170 -203 l 79 -254 q 134 -285 81 -260 l 132 -286 q -24 -264 38 -264 l -26 -264 q -65 -267 -43 -264 l -67 -267 q -19 -211 -56 -243 l -10 -184 q -17 -160 -12 -165 l -14 -159 q 65 -167 17 -167 l 77 -167 q 258 -150 160 -167 q 290 -156 272 -156 q 382 -99 364 -156 l 382 -90 q 369 -43 382 -73 z "},"`":{"ha":694,"x_min":201,"x_max":507,"o":"m 343 1213 l 351 1204 l 353 1201 l 353 1200 q 316 1193 327 1198 l 312 1191 l 306 1187 q 313 1133 286 1160 l 315 1131 q 507 1043 357 1086 l 507 1042 l 505 1041 l 503 1041 q 372 1061 401 1050 q 239 1129 286 1081 q 214 1172 219 1150 l 242 1188 q 243 1233 264 1211 l 241 1235 q 203 1255 230 1247 l 201 1257 q 343 1213 307 1250 z "},"a":{"ha":648,"x_min":8,"x_max":628,"o":"m 551 1118 q 480 942 480 1031 q 547 732 480 859 q 627 681 584 681 l 627 678 l 628 649 q 547 441 628 523 l 545 441 l 545 443 q 557 509 557 477 q 524 547 557 547 q 464 448 478 547 l 463 429 q 522 320 463 357 q 562 311 535 314 q 580 225 580 265 q 448 -39 580 106 l 448 -40 l 444 -40 q 469 159 469 59 q 391 288 469 244 q 356 294 374 294 q 292 277 330 294 l 292 279 q 304 353 304 313 l 304 366 q 180 541 304 481 l 180 539 q 252 351 180 437 q 121 198 161 302 q 100 73 100 125 l 97 73 q 69 235 69 179 l 69 250 q 97 343 69 275 l 103 390 q 58 631 103 478 q 20 705 40 671 q 8 752 8 734 l 8 770 l 9 778 l 13 778 q 66 743 38 743 q 127 834 106 743 q 343 1011 264 964 q 546 1118 456 1084 l 551 1118 m 193 667 q 283 583 267 583 q 368 507 313 571 l 377 488 q 395 532 395 507 q 378 601 378 585 l 378 610 l 380 612 l 380 614 q 398 610 387 610 l 403 610 q 475 641 429 610 q 374 776 441 776 l 368 776 q 330 768 353 776 l 330 770 q 372 882 372 829 l 369 887 q 262 823 317 872 q 193 667 193 745 z "},"b":{"ha":713,"x_min":-3,"x_max":670,"o":"m 633 1097 q 549 1010 549 1037 q 566 921 566 960 q 456 663 566 796 l 462 663 q 558 635 516 663 l 560 635 q 614 682 583 635 q 646 785 646 741 l 648 785 q 665 724 665 751 l 665 711 q 634 584 665 684 l 634 568 q 665 473 634 537 q 670 433 670 450 l 670 408 q 647 285 670 361 l 644 285 l 644 300 q 614 361 640 361 l 608 361 q 538 292 567 361 l 536 275 l 537 231 q 349 -82 537 74 l 321 -101 l 321 -100 q 441 165 441 64 l 441 172 q 381 262 441 239 l 355 265 q 196 151 281 265 l 192 151 q 311 376 192 247 q 378 434 353 416 l 380 434 l 380 433 q 351 361 351 391 l 355 359 l 392 359 l 462 357 q 507 426 472 397 q 555 446 543 446 q 507 541 547 490 q 376 603 443 603 q 279 534 302 603 l 277 516 l 277 502 q 293 426 277 473 l 292 426 q 204 548 204 480 q 282 659 204 618 q 397 738 387 726 q 460 916 460 814 l 460 939 q 240 758 326 892 q 170 606 201 695 q 207 422 197 452 q 254 363 220 394 q 170 265 189 312 q 111 92 132 199 l 106 62 l 102 62 q 77 205 77 153 l 77 229 q 111 376 77 277 q 113 412 113 390 l 113 421 q 50 652 113 504 q 130 727 130 676 q 97 755 130 750 l 91 755 q -1 659 50 755 l -3 659 l -3 661 q 75 849 7 753 q 277 995 161 956 l 279 995 q 215 895 215 939 l 218 875 l 220 875 q 361 992 293 958 q 633 1097 471 1061 z "},"c":{"ha":631,"x_min":-27,"x_max":625,"o":"m 435 1114 q 376 1026 376 1063 q 503 935 422 1013 q 567 839 547 879 q 625 798 598 803 l 625 797 q 526 735 574 735 q 446 684 486 722 q 396 595 408 636 l 395 595 q 391 600 391 595 l 389 625 q 448 789 389 694 l 453 814 l 453 817 q 324 934 453 868 l 316 935 q 196 861 262 920 q 170 826 178 840 q 205 735 205 785 l 205 727 q 170 626 205 680 q 220 435 174 531 q 289 354 240 399 q 330 333 323 333 q 373 448 344 424 q 419 431 392 431 l 420 431 q 560 522 479 431 l 562 522 q 552 448 552 478 q 611 372 552 372 l 612 372 l 612 370 q 505 198 580 252 q 452 172 465 173 l 452 174 q 507 273 507 225 q 473 333 507 313 l 471 333 q 397 239 429 333 q 368 126 388 177 q 216 -58 311 -5 l 216 -56 q 274 113 274 30 q 168 310 274 224 q 90 491 90 392 q 74 597 83 597 q 15 665 68 615 l 15 667 l 17 667 q 108 704 89 667 l 110 714 l 110 717 q 66 769 102 769 q -27 719 33 769 l -27 720 q 233 1018 40 895 q 435 1114 363 1097 z "},"d":{"ha":713,"x_min":-4,"x_max":673,"o":"m 521 1103 l 521 1100 q 441 1034 441 1060 l 441 1029 q 576 916 494 1004 q 673 659 673 798 l 673 656 l 671 649 l 669 649 q 618 689 642 689 q 572 644 591 689 l 572 636 q 609 585 572 615 q 462 348 609 541 q 418 210 418 279 l 418 189 q 537 -91 418 65 l 536 -91 q 380 43 479 -57 q 298 216 319 113 q 244 313 285 313 q 185 269 213 313 q 177 224 177 244 l 177 212 q 222 52 177 153 l 220 52 q 110 189 128 145 q 50 373 50 296 l 52 399 q 115 433 91 407 q 156 586 156 482 q 68 707 156 654 l 68 708 q 123 748 115 708 l 123 754 q 82 794 112 794 q -1 724 46 794 l -4 724 l -4 726 q 95 934 -4 831 q 409 1084 201 1034 q 521 1103 498 1103 m 193 862 l 215 796 q 267 756 237 756 q 308 791 291 756 l 311 791 q 218 416 283 614 l 233 416 q 348 372 302 416 q 358 357 358 361 l 359 357 l 484 570 q 420 625 458 625 l 418 625 q 358 597 389 625 l 356 597 l 356 599 q 409 677 385 658 l 479 724 q 536 780 507 747 q 355 949 477 894 q 205 874 277 922 l 193 862 z "},"e":{"ha":659,"x_min":1,"x_max":620,"o":"m 476 1118 l 476 1114 q 416 1031 418 1069 q 541 939 471 1010 q 620 783 604 863 q 494 651 528 730 l 491 617 l 492 581 q 456 667 454 614 l 456 684 l 479 719 q 501 808 500 757 q 445 889 492 841 q 352 945 393 935 q 203 834 244 902 q 239 741 241 789 l 235 717 q 272 680 251 693 q 356 722 302 708 q 428 814 401 744 q 431 819 428 819 l 433 819 q 436 777 437 795 q 383 646 435 722 q 349 497 352 583 l 349 469 l 349 421 l 345 421 q 300 585 298 512 l 300 608 q 289 614 301 610 q 245 572 270 614 l 245 571 l 242 571 l 202 611 l 202 608 q 226 465 200 534 q 232 415 233 440 l 232 405 q 336 336 292 336 l 342 336 q 449 450 390 422 l 462 446 l 475 446 q 610 502 509 446 l 612 500 q 591 433 593 464 l 591 429 l 594 351 q 471 180 591 235 l 467 180 q 525 281 524 229 q 498 334 516 334 q 471 342 486 342 q 406 209 408 266 q 347 71 385 128 q 225 -48 295 -5 l 224 -48 l 224 -47 q 286 121 283 38 q 120 325 291 274 q 105 330 113 325 q 125 391 124 364 q 108 578 113 456 q 64 651 98 623 l 44 672 l 44 673 q 135 707 109 673 l 140 725 q 96 777 132 777 q 3 728 62 777 l 1 728 l 1 730 q 138 921 35 815 q 427 1100 275 1041 l 476 1118 z "},"f":{"ha":656,"x_min":-3,"x_max":663,"o":"m 505 1118 l 505 1116 q 446 1031 446 1063 q 576 942 494 1016 q 663 781 656 844 q 543 659 581 738 q 536 619 537 642 l 541 581 l 539 581 q 499 673 499 614 l 499 678 q 522 720 499 687 q 543 806 543 766 q 420 931 510 883 l 400 941 q 283 863 347 921 q 245 819 245 823 q 274 741 274 785 q 271 715 274 724 q 309 680 305 680 q 395 722 334 704 q 435 754 414 730 q 467 819 459 791 l 471 819 q 475 781 475 802 l 475 775 q 433 659 475 724 q 395 489 395 595 l 397 425 l 399 420 l 397 420 q 341 591 341 505 l 341 611 l 329 614 q 284 571 311 614 l 243 611 l 242 593 q 319 321 242 474 q 224 142 224 277 l 224 135 q 251 -35 224 63 l 251 -37 q 153 149 203 20 q 115 331 115 257 q 174 442 174 390 q 90 596 174 506 q 143 642 143 612 l 145 648 q 110 699 136 699 l 98 701 l 94 701 q -3 619 59 701 l -3 622 q 64 795 1 680 q 166 923 89 841 l 225 971 q 505 1118 382 1082 z "},"g":{"ha":688,"x_min":-14,"x_max":655,"o":"m 477 1105 l 477 1103 q 415 1018 415 1051 q 550 930 466 1004 q 641 772 621 850 q 538 708 584 747 q 465 637 485 640 q 435 621 454 627 l 432 621 q 505 734 490 680 q 526 795 526 778 q 435 903 503 862 q 353 938 386 927 q 196 821 244 898 q 229 734 229 787 l 229 732 q 196 621 229 686 l 220 441 l 222 409 q 304 336 264 360 q 361 317 347 317 q 495 430 414 401 l 496 430 l 496 436 q 439 473 496 460 q 391 488 409 488 l 359 488 q 328 457 334 488 l 328 456 q 351 404 328 434 l 349 404 q 295 446 317 414 q 247 645 247 528 l 250 645 q 321 583 271 600 l 323 581 l 324 581 l 344 583 q 488 549 422 583 l 531 541 q 653 606 583 541 l 655 606 q 610 470 655 559 q 589 406 589 412 l 589 401 q 627 359 589 385 l 627 338 q 498 166 627 219 l 498 168 q 556 259 556 217 l 556 269 q 517 326 556 307 q 441 238 477 326 q 404 113 429 170 q 248 -60 349 -3 l 247 -60 l 247 -59 q 308 97 308 26 l 308 111 q 193 296 308 227 q 116 356 159 310 q 98 385 98 377 q 121 483 113 398 l 121 484 q 85 610 121 546 q 33 660 64 635 l 33 661 q 132 705 132 669 l 134 711 q 85 764 125 764 q -13 714 47 764 l -14 714 q 41 816 -14 728 q 477 1105 191 1010 z "},"h":{"ha":656,"x_min":23,"x_max":696,"o":"m 694 1168 l 696 1168 l 696 1167 q 583 955 583 1034 q 641 877 583 905 l 641 873 q 562 776 562 848 q 588 656 576 656 q 613 618 588 648 l 613 615 l 566 551 q 533 420 533 484 q 608 277 533 323 l 608 271 q 406 -93 608 123 l 406 -90 q 488 158 488 60 q 440 266 479 254 q 428 269 440 269 l 414 269 q 353 254 394 269 l 352 254 q 421 400 398 293 q 446 496 430 462 l 447 498 q 352 553 392 520 q 328 591 328 583 l 312 591 q 198 532 243 591 l 197 522 l 197 507 q 256 342 197 432 l 258 340 q 108 206 154 298 q 70 32 70 131 l 70 27 l 66 27 q 41 146 41 95 l 41 165 q 96 366 41 241 l 99 395 l 99 412 q 71 694 99 565 l 74 694 q 115 749 115 716 q 71 801 115 781 l 66 801 q 24 777 48 801 l 23 777 q 74 916 29 844 q 184 1021 124 983 q 326 1087 283 1082 q 211 958 251 1023 q 165 852 174 901 q 212 752 212 802 l 212 734 q 198 680 212 714 q 240 674 218 674 l 242 674 q 315 709 277 674 l 317 718 l 317 725 q 265 798 317 747 l 265 799 q 374 741 337 782 q 408 667 408 701 l 408 647 q 472 610 408 629 l 473 615 q 437 818 473 753 q 489 886 473 839 q 519 992 503 965 q 694 1168 564 1080 z "},"i":{"ha":393,"x_min":5,"x_max":444,"o":"m 441 1087 l 444 1087 l 444 1084 q 306 944 430 1084 q 237 810 237 859 q 292 733 237 749 l 327 725 q 316 686 316 703 l 316 684 q 348 603 316 663 q 374 534 374 544 l 375 521 l 372 521 q 275 612 328 612 q 234 558 234 604 q 314 307 234 515 l 314 306 q 198 132 198 250 q 245 -35 198 66 l 250 -52 l 248 -52 q 121 176 131 100 q 113 237 113 196 q 123 277 113 277 q 160 325 160 301 q 174 400 174 378 l 174 423 q 94 582 174 494 q 147 630 147 601 l 147 633 q 105 686 138 686 l 98 686 q 9 606 63 686 l 5 606 q 44 735 18 674 q 139 822 90 822 q 165 901 155 901 q 364 1046 290 1012 q 441 1087 430 1084 m 317 1272 l 316 1270 q 279 1232 285 1247 l 279 1230 q 323 1204 269 1203 l 380 1213 q 383 1170 392 1196 q 256 1042 363 1110 q 88 944 225 1017 l 85 943 l 81 942 l 81 943 q 273 1121 254 1067 l 274 1124 q 232 1162 286 1158 l 220 1160 l 212 1158 q 152 1139 193 1154 l 152 1139 l 152 1143 l 155 1152 q 317 1272 171 1198 z "},"j":{"ha":708,"x_min":7,"x_max":669,"o":"m 444 1171 l 446 1171 q 574 1052 502 1137 q 669 817 669 930 l 669 791 q 665 739 669 768 l 661 739 q 606 809 645 809 q 562 760 566 809 l 562 758 q 610 718 562 722 l 614 718 q 562 539 562 606 l 562 469 q 598 391 562 411 l 614 388 l 627 389 q 647 288 647 331 l 647 271 q 600 96 647 193 l 597 96 l 600 134 q 537 290 600 234 q 505 298 517 298 l 500 298 q 414 267 473 298 q 354 153 376 241 q 346 87 348 125 q 410 -67 346 -7 l 407 -67 q 275 79 309 -18 q 248 214 264 105 q 172 327 214 327 l 171 327 q 116 272 138 327 l 111 240 q 129 159 111 212 l 127 159 q 62 292 62 209 q 92 415 62 344 q 7 463 59 463 l 7 465 q 115 583 115 538 q 177 758 115 677 l 177 756 q 153 642 153 682 q 172 550 153 625 q 197 446 172 511 q 307 336 275 355 q 475 439 406 336 q 481 510 481 475 l 481 544 q 433 736 481 702 q 402 753 402 747 q 391 812 391 787 q 452 899 391 875 l 470 904 q 441 831 441 870 q 471 787 441 787 q 516 852 491 787 q 531 936 531 899 l 531 956 q 444 1169 531 1063 l 444 1171 z "},"k":{"ha":713,"x_min":44,"x_max":668,"o":"m 459 1103 l 460 1103 q 269 894 269 981 l 269 889 q 288 838 269 861 q 201 786 230 821 q 243 711 243 747 l 243 699 q 298 685 268 685 q 347 736 341 685 l 347 745 q 340 795 347 770 l 342 795 q 378 715 378 753 l 378 714 l 370 635 q 384 598 376 598 q 526 730 437 689 l 553 739 q 497 838 542 784 q 412 799 448 804 l 412 802 q 479 913 458 834 l 482 950 l 481 971 l 482 972 q 578 890 529 956 q 668 680 668 782 q 595 526 668 610 l 593 526 q 600 585 600 562 q 568 637 596 637 l 562 637 q 444 548 492 637 q 432 529 441 548 q 591 354 483 408 l 608 347 q 614 328 614 344 l 614 312 q 427 -34 614 144 l 426 -35 l 422 -35 q 505 174 505 78 l 505 190 q 474 259 505 243 l 459 262 l 446 262 q 410 254 432 262 l 409 256 l 409 257 q 431 328 431 290 q 340 461 431 397 q 275 564 288 522 q 256 489 256 536 q 302 317 256 422 q 151 53 151 256 l 151 50 l 149 50 q 111 193 111 107 q 160 389 111 292 q 170 444 170 418 q 138 581 170 541 l 115 611 l 115 614 q 146 671 146 645 q 104 717 146 702 l 96 719 q 47 677 67 719 l 44 677 q 111 876 44 770 q 255 1011 169 955 q 447 1101 340 1065 l 459 1103 z "},"l":{"ha":618,"x_min":41,"x_max":610,"o":"m 267 1131 q 168 889 168 1019 q 226 745 174 769 l 233 743 l 237 743 q 264 781 264 743 l 264 789 q 240 854 264 821 l 241 854 q 311 758 311 804 l 311 755 q 267 678 311 716 q 227 585 227 633 q 216 466 216 522 l 216 465 q 245 382 216 396 q 266 374 251 378 q 323 476 308 374 l 326 495 q 311 587 322 545 q 369 463 369 528 l 367 429 q 406 360 367 373 l 418 357 l 425 357 q 489 405 468 357 q 499 465 496 416 l 494 519 l 497 519 q 602 408 547 408 l 610 408 l 610 407 q 581 305 581 351 l 595 214 l 595 182 q 515 -64 595 79 l 507 -74 l 507 -71 q 522 82 522 19 q 444 278 519 239 l 428 281 q 343 239 396 281 q 277 298 323 298 q 166 269 233 294 q 75 92 75 215 l 75 77 l 76 42 q 44 170 44 95 l 44 182 q 111 422 44 297 q 136 522 136 479 q 96 675 136 566 q 144 711 144 681 l 144 714 q 100 773 144 764 q 49 698 66 773 l 45 698 l 41 747 l 41 773 q 224 1100 41 943 q 267 1131 262 1131 z "},"m":{"ha":790,"x_min":28,"x_max":778,"o":"m 778 1156 q 659 920 659 1026 q 720 747 659 849 q 763 682 763 690 q 712 545 712 613 l 717 510 l 701 512 l 697 512 q 661 483 661 503 q 646 415 653 473 q 686 300 646 369 q 743 254 713 264 l 744 248 q 559 -62 744 121 l 559 -59 q 623 164 623 75 q 585 275 623 229 q 556 283 566 283 q 488 264 531 283 l 487 266 q 515 298 487 270 q 564 436 564 368 l 564 444 q 526 486 564 473 q 506 512 506 500 q 538 502 522 502 l 541 502 q 618 613 591 502 l 614 613 l 614 614 l 612 613 l 606 613 q 479 560 557 613 l 419 502 q 406 443 408 502 l 406 436 q 439 374 406 405 q 336 275 421 374 l 323 264 l 319 264 q 339 380 339 330 q 209 597 339 517 l 189 606 q 180 543 180 574 l 180 532 q 245 349 180 444 l 188 317 q 72 54 72 229 l 68 54 q 43 179 43 120 q 94 378 43 253 l 96 412 l 96 437 q 73 695 96 599 q 119 742 119 724 l 119 745 q 78 801 105 801 l 77 801 q 30 774 59 801 l 28 774 q 303 1069 28 968 l 313 1071 q 189 883 189 957 l 189 882 q 214 743 189 812 q 258 693 242 693 l 262 693 q 302 772 288 693 q 328 822 323 822 l 328 821 l 323 769 q 366 595 323 698 l 371 568 l 372 568 q 492 693 372 572 l 515 690 l 528 690 q 588 756 581 690 l 588 767 q 543 861 574 825 l 538 869 q 630 1044 545 943 q 778 1156 726 1138 z "},"n":{"ha":734,"x_min":52,"x_max":700,"o":"m 700 1158 q 573 911 573 1039 l 573 896 q 654 680 573 810 q 692 568 692 611 q 637 417 692 480 l 631 414 l 631 417 q 648 475 648 449 l 648 478 q 602 547 645 532 q 549 486 578 547 l 543 444 q 578 290 543 427 q 583 240 583 266 l 583 220 q 414 -58 583 135 l 414 -55 q 498 197 498 103 q 449 292 488 292 l 439 294 l 437 294 q 355 273 401 294 l 353 275 q 376 387 376 336 q 219 585 376 532 l 216 585 q 210 538 210 562 l 210 526 q 278 361 210 448 l 237 342 q 97 59 97 254 l 94 59 q 66 187 66 128 q 119 387 66 262 q 122 427 122 402 l 122 448 q 98 690 122 593 q 146 734 140 713 l 146 741 q 105 796 130 796 l 100 796 q 53 769 82 796 l 52 771 l 52 772 q 290 1053 52 947 q 347 1073 318 1067 q 220 880 220 966 l 220 873 q 303 677 220 719 q 357 667 332 667 l 372 669 l 454 483 l 456 483 q 514 604 457 509 q 528 652 528 635 q 491 813 528 664 q 486 867 486 839 q 697 1158 486 1013 l 700 1158 z "},"o":{"ha":689,"x_min":6,"x_max":665,"o":"m 567 1093 l 567 1092 q 486 877 486 973 q 665 654 486 731 l 665 650 q 620 568 620 623 l 626 503 q 585 332 626 448 l 582 300 l 582 296 l 588 231 l 588 225 q 480 66 588 170 l 480 67 q 517 187 517 131 q 479 271 517 256 l 467 273 q 389 193 429 273 q 376 149 376 168 q 465 -11 376 87 l 461 -11 q 328 87 405 13 q 275 193 285 136 l 260 281 q 212 313 247 313 q 175 286 186 313 l 170 258 q 201 171 170 220 l 199 171 q 125 314 125 231 l 134 412 q 74 527 134 472 q 115 583 115 549 l 115 591 q 83 647 106 647 l 79 647 q 9 585 51 647 l 6 585 q 52 755 22 706 q 172 891 63 783 q 360 1013 275 972 q 567 1093 451 1057 m 153 714 q 203 618 203 661 l 201 610 q 224 604 212 604 q 358 732 288 604 l 360 732 l 360 730 q 319 593 342 649 q 252 509 309 569 q 226 419 226 468 l 228 419 q 330 366 273 417 q 357 307 357 328 q 492 394 447 394 l 497 396 q 536 511 528 412 q 491 558 536 558 q 422 544 469 558 l 421 545 l 421 547 q 456 652 456 602 l 456 667 q 410 787 456 707 q 396 895 396 831 l 396 921 q 266 850 328 895 q 153 714 175 779 z "},"p":{"ha":732,"x_min":56,"x_max":677,"o":"m 454 1109 l 456 1109 q 324 936 324 1010 l 324 933 l 334 933 q 430 1013 383 933 l 435 1013 q 575 889 490 979 q 676 679 676 767 l 677 677 q 609 500 677 606 l 606 500 l 609 537 l 609 553 q 559 620 609 610 l 557 620 q 464 555 526 615 q 399 422 399 485 l 399 420 q 403 395 399 402 l 401 393 l 399 393 q 323 473 348 437 q 277 555 289 519 l 274 555 q 260 481 260 522 l 260 479 q 297 321 260 411 q 393 275 334 275 q 506 300 433 275 l 506 297 l 450 246 q 311 166 358 176 l 311 168 l 319 195 q 289 227 314 227 q 226 208 260 227 l 202 204 l 195 204 q 152 45 152 151 l 152 11 q 155 -52 152 -28 l 154 -52 q 109 116 125 -12 q 100 233 100 184 l 100 273 q 107 311 100 311 q 161 340 161 325 q 182 418 182 366 q 121 605 182 536 q 154 664 154 640 q 112 711 154 696 l 105 713 q 59 672 78 713 l 56 672 q 168 936 56 804 q 313 1048 250 1016 q 454 1109 422 1106 m 419 878 q 292 827 350 827 q 205 781 250 827 q 247 700 247 744 l 245 692 q 302 679 277 679 q 347 734 341 679 l 347 741 l 340 791 l 342 791 q 377 706 377 747 q 369 633 369 651 l 369 630 q 379 592 369 610 l 380 592 q 553 732 455 699 l 555 732 q 446 867 521 827 q 419 878 425 878 z "},"q":{"ha":716,"x_min":22,"x_max":691,"o":"m 568 1095 l 568 1094 q 507 901 507 991 q 691 666 507 745 l 691 661 q 648 583 648 634 q 656 491 656 520 l 656 465 q 629 315 656 397 q 601 306 629 306 l 601 304 l 652 233 l 652 232 q 538 44 538 160 l 535 44 q 527 94 527 75 q 551 219 527 145 q 490 264 514 241 q 427 203 473 264 q 394 110 394 163 q 463 -22 394 47 l 460 -22 q 292 145 321 56 q 271 262 281 176 q 223 292 253 292 q 182 238 182 292 q 210 157 182 203 l 210 155 l 209 155 q 138 293 138 213 q 146 402 146 374 q 88 541 146 488 l 88 544 q 125 578 106 544 l 128 592 l 128 602 q 93 660 128 650 q 24 599 71 660 l 22 599 q 52 732 22 635 q 143 857 61 770 q 273 964 230 943 q 488 1069 349 1015 l 568 1095 m 172 729 q 209 632 209 675 l 209 624 q 230 618 209 619 l 233 618 q 366 743 296 618 l 366 740 q 323 599 346 648 q 281 541 309 576 q 238 391 238 467 l 238 389 q 328 349 273 389 q 365 283 353 323 q 439 343 439 324 l 444 374 q 426 439 444 414 l 421 439 q 294 492 367 439 q 392 647 372 576 l 397 661 l 400 661 l 404 613 l 404 600 q 395 539 404 574 q 455 512 427 512 l 460 512 q 513 530 486 512 l 516 530 l 514 505 l 514 499 q 545 385 514 410 q 570 458 570 403 q 555 566 570 566 q 522 578 547 578 q 455 565 506 578 q 486 666 486 618 l 486 673 q 431 791 486 729 q 401 925 401 840 l 401 933 l 400 933 q 172 729 226 854 z "},"r":{"ha":710,"x_min":49,"x_max":671,"o":"m 465 1118 l 465 1116 q 328 947 328 1017 l 328 941 l 338 941 q 438 1020 389 941 q 592 888 492 997 q 671 689 671 785 q 599 531 671 620 l 595 531 q 602 589 602 561 l 602 596 q 572 645 602 638 l 567 645 q 462 578 501 645 q 437 534 440 551 q 498 416 455 481 q 612 327 545 348 q 616 319 616 327 l 616 298 q 433 -31 616 154 l 427 -35 l 427 -34 q 509 184 509 81 q 473 264 509 252 l 463 265 l 452 265 q 414 258 435 265 l 414 259 q 433 329 433 298 l 433 330 q 348 463 433 404 q 278 572 293 526 l 276 572 q 261 505 261 536 l 261 488 q 306 322 261 419 q 184 207 222 288 q 154 61 154 135 l 156 49 l 154 49 q 116 189 116 104 l 116 205 q 165 395 116 300 q 172 448 172 424 l 172 449 q 144 581 172 551 q 117 620 144 587 l 117 622 q 149 673 149 653 l 149 682 q 99 728 149 715 q 52 689 73 728 l 49 689 l 49 690 q 157 941 49 814 q 325 1063 244 1023 q 465 1118 378 1091 m 418 903 q 302 849 351 849 q 226 817 270 846 l 204 795 q 246 724 246 758 l 246 707 q 301 694 278 694 q 350 742 344 694 l 351 754 q 343 808 348 791 l 345 808 q 382 729 382 762 l 382 721 l 373 648 q 387 607 373 623 l 388 607 q 553 747 452 716 l 555 747 q 458 884 526 842 q 418 903 440 896 z "},"s":{"ha":714,"x_min":27,"x_max":670,"o":"m 452 1103 q 378 1024 385 1056 q 555 903 500 987 q 622 867 574 881 q 670 855 659 855 l 670 854 l 612 810 q 574 740 597 793 q 465 690 530 690 l 463 690 l 463 692 q 527 799 527 730 q 455 867 514 827 q 340 932 352 932 q 236 876 290 932 q 215 837 215 845 q 243 755 243 817 l 241 742 q 442 650 363 718 q 557 593 499 604 l 559 593 l 559 591 q 534 533 534 559 l 534 515 q 568 499 551 499 l 575 499 q 621 596 615 499 l 621 602 l 622 602 q 664 486 664 545 l 664 477 q 656 443 664 443 q 604 392 604 430 l 603 370 l 606 268 q 534 100 606 174 q 475 60 481 60 q 532 203 532 132 q 509 252 532 252 q 475 262 496 262 q 373 141 412 262 q 365 75 365 105 l 365 59 q 429 -113 365 -33 l 429 -115 l 427 -115 q 294 47 330 -57 q 270 176 284 86 q 191 307 227 307 l 188 307 q 133 251 156 307 l 130 227 l 130 216 q 146 143 130 189 l 146 141 l 144 141 q 80 262 80 192 l 80 281 q 109 392 80 325 q 54 436 96 420 l 27 441 l 27 444 q 130 539 100 477 q 148 609 148 575 l 148 627 l 146 637 l 148 637 q 189 556 189 595 l 189 550 l 183 490 q 323 310 183 433 q 513 422 438 310 q 460 469 498 422 q 434 553 434 512 l 434 558 l 414 561 q 351 473 389 561 q 271 428 316 437 l 270 428 l 270 430 q 326 542 326 487 q 245 637 326 613 q 130 669 193 654 l 130 671 q 156 718 155 697 l 156 727 q 125 758 151 758 q 37 682 75 758 l 37 680 l 33 680 q 127 903 48 795 q 236 1006 195 981 q 452 1103 359 1086 z "},"t":{"ha":901,"x_min":-41,"x_max":906,"o":"m 191 1097 q 419 1025 329 1076 q 494 973 469 994 q 655 1069 564 1025 l 702 1090 l 702 1089 q 663 1018 669 1050 q 773 931 703 994 q 832 909 800 918 l 832 903 q 895 751 832 862 q 906 708 906 722 l 906 705 l 818 652 q 758 589 781 623 q 667 437 718 503 l 648 417 l 648 420 q 724 637 718 546 q 784 740 736 678 q 635 926 747 852 q 525 849 583 907 q 463 749 464 777 q 496 706 473 718 q 559 693 510 699 q 622 532 622 610 l 622 530 l 620 522 l 617 522 q 524 614 573 614 q 461 552 494 614 l 458 530 q 543 309 458 494 q 446 129 446 254 l 446 118 q 475 -47 446 51 q 371 161 433 3 q 338 315 338 254 l 338 323 l 370 343 q 400 427 400 376 l 400 443 q 323 584 400 494 l 350 595 q 376 637 376 612 q 334 688 364 688 l 328 688 q 236 610 293 688 l 234 610 q 328 817 259 740 q 332 823 330 823 q 376 800 343 800 q 437 890 437 880 q 303 949 420 915 l 273 954 q 130 806 170 889 l 123 753 q 167 706 123 706 q 163 680 163 699 l 163 667 q 223 523 163 600 l 220 523 q 138 621 162 554 q 52 721 127 665 q -39 745 8 745 l -41 745 l -41 748 q 45 840 12 786 q 90 944 71 882 l 90 946 l 106 943 q 165 986 127 943 q 227 1033 226 1028 q 191 1095 224 1058 l 191 1097 z "},"u":{"ha":743,"x_min":-1,"x_max":693,"o":"m 455 1228 l 457 1228 q 581 1124 500 1206 q 693 866 693 995 l 693 853 q 688 797 693 825 l 685 797 q 627 878 665 878 q 587 845 599 878 l 584 823 q 639 773 584 781 q 585 604 585 649 q 613 450 595 473 q 664 404 640 404 q 690 321 690 370 l 690 304 q 653 114 690 235 q 645 96 650 114 l 642 96 l 642 112 q 571 262 642 200 q 481 291 519 291 l 475 291 q 410 268 446 291 q 363 167 380 245 q 354 94 354 130 l 354 79 q 416 -64 354 -4 l 414 -64 q 286 71 321 -18 q 259 189 271 106 q 224 289 259 222 q 184 317 201 317 l 179 317 q 124 263 147 317 q 119 231 119 252 l 119 227 q 137 149 119 191 l 136 148 l 134 148 q 69 284 69 200 l 69 300 q 92 411 69 343 l 97 447 q 29 488 62 488 l 16 492 l 16 493 q 92 566 92 524 l 92 577 q 63 641 92 603 q 106 707 106 666 q 81 755 102 755 l 77 755 q 0 696 54 755 l -1 696 q 102 903 35 842 q 262 1037 224 1021 l 262 1035 q 153 808 153 891 q 190 739 182 779 q 199 715 190 715 l 212 713 q 362 839 273 713 l 362 838 q 269 659 319 711 q 190 492 216 610 q 312 332 229 428 q 349 345 340 332 q 388 410 375 401 l 393 413 q 473 389 420 397 l 507 395 l 507 406 l 508 408 l 507 413 q 468 572 507 549 l 454 577 q 496 669 483 629 q 436 802 496 743 q 420 845 420 820 l 420 855 q 477 953 420 917 l 481 953 l 481 951 q 460 890 460 920 q 488 834 464 842 l 490 834 q 537 927 514 834 q 542 977 542 951 l 542 981 q 455 1226 542 1101 l 455 1228 z "},"v":{"ha":713,"x_min":24,"x_max":676,"o":"m 111 1132 l 114 1132 l 114 1127 q 257 787 114 905 q 191 610 191 715 l 184 531 l 184 520 q 229 387 184 479 q 331 290 277 311 q 366 393 333 320 q 439 430 401 396 l 437 450 q 530 648 437 602 q 557 660 557 656 l 557 662 q 526 770 557 751 q 472 839 497 797 q 434 874 448 865 l 434 875 q 474 922 474 897 l 474 931 q 458 951 472 951 l 456 951 q 403 924 436 951 q 387 863 387 895 l 387 860 q 411 796 387 821 l 411 795 q 361 650 361 739 l 361 630 q 368 559 361 595 l 365 559 q 321 736 321 646 l 323 826 q 263 963 323 856 q 501 1044 416 1002 q 638 1126 562 1074 l 640 1126 q 567 958 567 1037 q 665 748 567 829 q 659 702 659 720 l 676 603 l 676 585 q 622 469 676 521 l 621 469 l 621 471 q 628 522 628 498 l 628 533 q 597 574 628 569 l 591 576 q 528 496 545 576 l 527 475 l 527 473 q 554 385 527 442 q 431 225 431 308 l 431 213 q 528 30 431 134 l 527 30 q 233 214 429 62 q 107 357 125 318 q 119 391 119 376 q 81 437 119 423 l 80 437 q 48 406 67 437 q 27 361 37 387 l 24 361 l 24 387 q 64 507 24 443 q 117 739 117 631 l 119 748 q 92 829 119 802 q 77 852 77 833 q 73 904 73 871 l 73 922 q 111 1132 73 1019 z "},"w":{"ha":969,"x_min":26,"x_max":928,"o":"m 727 1202 l 728 1202 q 915 960 864 1113 q 928 873 928 910 l 928 846 l 923 790 l 921 790 l 907 819 q 860 856 884 856 q 820 808 826 856 q 873 767 820 773 q 831 650 833 684 l 820 497 l 820 473 q 867 394 820 423 l 863 361 l 863 356 q 883 277 863 334 l 884 259 q 859 146 884 233 l 849 126 l 846 126 l 847 137 l 847 146 q 781 292 847 235 q 734 304 756 304 q 664 280 710 304 q 643 182 643 260 q 633 98 633 123 l 633 84 q 691 -59 633 -1 l 688 -59 q 564 70 600 -16 q 542 189 542 140 q 495 309 530 260 l 477 345 q 455 356 465 356 q 359 256 359 279 q 341 220 341 235 l 341 218 q 344 176 341 185 q 326 84 326 108 q 389 -59 326 5 l 386 -59 q 309 -1 353 -45 q 256 172 256 66 q 188 314 233 314 q 134 238 134 293 l 134 233 q 155 157 134 202 l 153 157 q 94 279 94 201 q 127 414 94 332 l 31 571 q 117 650 117 612 l 117 661 q 103 695 117 675 l 103 696 q 124 743 124 719 l 124 751 q 100 796 124 791 l 96 796 q 27 747 75 796 l 26 747 q 103 972 38 867 q 217 1081 152 1034 q 315 1148 311 1148 q 186 891 186 996 q 217 846 186 859 l 217 844 q 196 795 196 825 q 204 754 196 774 q 304 838 245 762 l 336 883 l 336 882 q 291 714 336 831 q 231 669 256 703 q 169 547 179 608 l 285 353 l 286 353 q 365 385 349 353 l 413 441 q 326 570 342 552 q 338 574 326 573 q 426 650 393 594 q 455 724 455 709 l 455 735 q 429 817 455 759 l 431 817 q 510 783 469 783 q 642 880 576 783 l 642 877 q 571 724 608 783 l 503 653 q 469 570 481 623 q 591 346 504 516 q 686 388 663 346 q 712 435 712 410 q 682 552 712 522 q 728 606 714 568 q 740 660 736 625 q 684 804 740 750 q 671 852 671 829 l 671 864 q 725 946 671 909 l 727 946 l 727 944 q 706 883 709 917 q 738 833 713 833 l 740 833 q 801 939 772 833 q 806 987 806 968 q 727 1200 806 1086 l 727 1202 z "},"x":{"ha":711,"x_min":46,"x_max":671,"o":"m 440 1183 l 441 1183 l 441 1181 q 279 1050 382 1149 q 167 864 189 947 l 159 816 q 224 788 173 816 q 268 831 246 788 l 271 831 l 268 791 q 324 679 274 701 l 350 674 q 380 693 368 674 q 387 709 386 693 q 342 740 387 730 l 342 743 l 355 743 q 429 769 409 743 q 535 836 465 816 l 535 848 l 532 861 l 533 862 q 511 905 526 905 q 414 926 500 919 l 408 926 q 303 884 363 926 l 302 884 l 302 886 q 419 970 351 970 q 536 1033 458 975 l 543 1038 q 618 888 612 956 q 659 816 618 851 l 671 808 q 627 666 659 723 q 580 611 612 644 l 578 611 q 585 671 585 648 q 538 735 585 735 q 424 614 477 735 q 517 494 488 528 q 574 401 534 471 q 627 363 601 363 l 644 366 l 644 345 q 420 -27 644 157 l 419 -27 q 527 214 527 125 l 527 219 q 490 262 522 262 l 479 262 q 441 254 464 262 l 441 256 q 461 327 461 292 l 461 338 q 405 478 461 408 q 347 543 353 519 q 332 579 332 567 q 255 335 255 479 q 262 266 255 295 l 260 264 q 221 269 242 269 l 216 269 q 90 129 115 269 q 83 58 85 101 l 85 41 l 85 36 l 83 36 q 46 182 46 89 q 83 354 46 275 l 114 378 q 216 550 177 453 q 244 614 243 606 q 195 700 233 659 q 149 716 178 716 q 106 650 106 716 l 111 597 q 52 734 73 647 q 46 790 47 751 q 191 1039 46 925 q 440 1183 312 1119 z "},"y":{"ha":706,"x_min":17,"x_max":686,"o":"m 440 1152 l 440 1149 q 176 838 176 1010 q 222 746 222 790 q 276 733 253 733 l 286 733 q 327 764 313 733 l 330 786 l 330 794 q 322 846 330 820 l 323 848 l 326 848 q 380 770 380 802 q 357 694 357 749 q 369 646 357 665 l 373 646 q 557 775 437 734 q 515 862 553 800 q 463 903 484 903 l 462 903 l 395 891 l 395 894 q 469 972 456 938 q 494 1026 479 981 l 496 1026 q 600 875 577 943 q 683 804 633 804 q 686 786 686 798 l 686 766 q 602 559 686 665 l 599 559 q 606 618 604 585 q 567 685 606 676 l 564 685 q 469 630 528 685 q 422 576 442 601 l 422 574 l 436 572 q 505 619 476 572 l 507 619 q 515 536 515 566 q 463 406 515 449 l 463 404 l 459 404 l 459 406 l 468 458 q 436 508 463 508 l 430 510 l 427 510 q 365 450 387 510 q 355 391 355 412 q 421 320 376 340 q 503 296 452 306 q 515 229 515 264 l 515 220 q 284 -104 515 65 l 281 -104 l 281 -103 q 421 199 421 112 l 421 214 l 387 230 q 317 283 355 244 q 218 232 278 279 q 151 146 161 174 l 148 146 q 267 376 148 247 l 267 385 q 290 547 267 491 q 260 633 260 584 l 260 642 l 262 650 q 184 679 225 679 l 163 679 q 96 666 138 679 l 96 667 q 123 717 123 696 q 76 766 123 749 l 68 766 q 20 727 40 766 l 17 727 q 176 1019 17 887 q 440 1152 307 1116 z "},"z":{"ha":715,"x_min":7,"x_max":798,"o":"m 389 1086 l 390 1086 q 401 1060 393 1086 q 498 984 433 1010 l 512 983 q 657 1020 534 983 q 798 1039 719 1034 l 798 1036 q 683 977 742 1017 q 551 801 589 909 q 541 743 541 766 q 583 709 541 714 q 614 779 614 742 l 614 791 q 633 729 633 762 q 553 642 633 677 q 432 618 459 631 q 302 486 414 618 q 254 399 254 427 q 286 372 254 386 l 298 369 l 300 369 q 446 467 354 369 q 493 534 479 509 l 496 534 q 450 402 471 431 l 446 381 q 463 356 446 356 l 469 354 q 538 423 513 354 q 549 496 549 464 l 553 496 q 602 380 602 401 q 631 349 615 349 l 642 349 l 662 354 l 662 353 q 623 192 623 295 q 520 -72 586 22 l 519 -72 q 549 142 549 56 l 549 149 q 506 280 549 254 l 486 283 q 350 227 438 281 q 298 287 330 287 l 290 287 q 176 251 236 282 q 86 50 86 185 l 88 36 l 85 36 q 54 171 54 98 l 54 177 q 83 340 54 260 l 85 356 l 85 362 l 81 376 q 197 492 105 376 q 336 700 292 602 q 351 727 348 726 q 389 714 351 720 q 459 764 431 714 l 463 779 q 418 809 450 809 q 366 796 401 809 l 364 796 q 451 843 388 843 q 490 870 481 852 q 494 890 494 879 q 445 884 469 884 q 366 895 409 884 q 279 861 304 861 l 269 861 q 207 892 256 861 l 195 895 l 186 895 q 154 873 173 895 l 154 872 q 195 827 163 871 q 245 814 218 814 l 287 817 l 287 814 q 197 787 220 787 q 121 822 176 787 q 77 833 93 833 l 75 833 q 7 785 42 833 l 7 788 q 112 1005 35 923 q 199 1069 173 1064 l 193 1031 q 279 952 193 964 q 389 1086 332 952 z "},"|":{"ha":591,"x_min":140,"x_max":492,"o":"m 241 1252 l 243 1251 q 378 985 316 1143 q 429 786 429 853 q 416 694 429 720 q 303 642 328 692 q 319 522 340 566 l 333 512 l 338 509 q 479 588 385 487 l 488 599 l 492 597 q 375 429 439 489 q 292 349 313 395 l 279 325 q 278 303 271 307 q 339 216 328 262 q 320 -52 363 111 q 315 -262 292 -163 l 328 -295 l 325 -294 q 246 -15 223 -133 q 269 100 252 27 q 235 193 260 181 l 234 194 q 205 173 218 201 l 201 164 q 178 1 171 104 q 145 154 142 100 q 184 300 140 210 q 203 422 209 351 l 187 483 l 187 484 q 235 517 220 486 l 238 524 q 235 610 259 598 l 233 610 q 157 571 212 621 l 156 572 l 155 577 l 184 637 q 300 781 235 745 l 327 800 q 278 1162 355 930 l 241 1252 z "},"~":{"ha":717,"x_min":22,"x_max":698,"o":"m 698 794 l 698 791 q 598 734 623 770 q 551 582 551 669 q 556 547 553 554 l 555 545 l 547 547 q 479 521 515 547 q 361 495 434 495 l 344 495 q 222 530 269 495 q 252 572 252 546 q 157 622 252 607 l 153 622 q 24 513 88 622 l 22 513 l 22 514 q 104 692 45 629 q 164 752 136 734 l 167 752 q 162 717 162 733 l 162 713 q 196 696 162 696 q 309 659 277 684 q 351 598 334 633 q 387 587 363 587 l 395 587 q 450 606 450 595 q 458 623 458 614 q 434 680 458 643 l 434 682 l 471 675 q 537 715 519 675 q 686 794 598 794 l 698 794 z "},"¢":{"ha":631,"x_min":-27,"x_max":625,"o":"m 452 826 q 418 765 432 781 q 346 749 374 782 q 313 655 338 684 l 317 645 l 319 642 q 392 657 332 619 q 448 789 402 715 l 453 814 l 453 817 q 452 826 453 821 m 416 876 q 324 934 385 903 l 316 935 q 196 861 262 920 q 170 826 178 840 q 205 735 205 785 l 205 727 q 170 626 205 680 q 185 530 172 578 q 224 605 207 560 l 236 654 l 237 655 q 271 669 253 649 l 275 674 q 302 740 309 726 l 301 741 q 251 728 294 753 l 251 728 l 252 732 l 286 771 q 390 855 347 842 l 410 864 q 416 876 413 869 m 104 410 q 90 491 90 449 q 74 597 83 597 q 15 665 68 615 l 15 667 l 17 667 q 108 704 89 667 l 110 714 l 110 717 q 66 769 102 769 q -27 719 33 769 l -27 720 q 233 1018 40 895 q 435 1114 363 1097 q 376 1026 376 1063 q 460 975 409 1017 q 506 1148 486 1048 l 518 1225 l 519 1223 q 496 994 518 1126 q 488 949 492 970 q 503 935 496 943 q 567 839 547 879 q 625 798 598 803 l 625 797 q 526 735 574 735 q 446 684 486 722 q 396 595 408 636 l 395 595 q 391 600 391 595 l 389 625 q 390 640 389 632 q 310 573 347 596 q 243 531 269 560 l 229 515 q 221 498 218 503 q 224 429 230 462 q 289 354 244 395 q 330 333 323 333 q 373 448 344 424 q 419 431 392 431 l 420 431 q 560 522 479 431 l 562 522 q 552 448 552 478 q 611 372 552 372 l 612 372 l 612 370 q 505 198 580 252 q 452 172 465 173 l 452 174 q 507 273 507 225 q 473 333 507 313 l 471 333 q 397 239 429 333 q 368 126 388 177 q 216 -58 311 -5 l 216 -56 q 274 113 274 30 q 174 305 274 220 q 123 220 153 265 q 51 63 72 142 l 46 35 l 45 37 q 100 264 50 180 q 143 339 115 292 q 117 382 127 360 q 71 291 93 346 q 104 410 86 370 z "},"¨":{"ha":694,"x_min":125,"x_max":547,"o":"m 205 1257 l 207 1257 l 207 1256 q 194 1222 194 1238 q 220 1185 194 1198 q 232 1183 224 1183 q 272 1189 248 1183 q 285 1154 285 1173 q 248 1074 285 1120 q 168 1096 208 1096 l 153 1096 l 125 1094 q 178 1115 152 1115 l 196 1115 q 208 1124 208 1117 l 208 1131 q 175 1158 195 1158 l 170 1158 q 142 1149 157 1158 l 139 1155 l 139 1161 q 205 1257 139 1211 m 546 1217 l 547 1216 l 547 1215 q 511 1206 524 1216 q 495 1164 491 1193 q 500 1153 496 1159 q 528 1124 509 1140 q 508 1093 524 1104 q 420 1078 480 1074 q 393 1156 416 1123 l 385 1168 l 367 1190 q 414 1158 399 1179 l 425 1143 q 439 1139 433 1135 l 444 1143 q 448 1185 459 1169 l 445 1190 q 422 1208 437 1200 l 425 1213 l 429 1217 q 546 1217 471 1245 z "},"«":{"ha":533,"x_min":33,"x_max":492,"o":"m 223 604 l 224 604 q 329 528 280 528 l 329 532 q 277 597 329 565 q 353 685 290 623 q 488 742 425 742 l 488 741 q 353 585 412 701 q 389 503 389 541 l 398 467 q 471 372 410 430 q 492 354 474 365 l 492 353 q 227 593 341 353 l 223 604 m 33 604 l 34 604 q 138 528 90 528 l 138 532 q 86 597 138 565 q 162 685 99 623 q 297 742 235 742 l 297 741 q 162 585 222 701 q 199 503 199 541 l 208 467 q 280 372 219 430 q 302 354 283 365 l 302 353 q 37 593 151 353 l 33 604 z "},"¯":{"ha":694,"x_min":-40,"x_max":711,"o":"m 410 1059 l 410 1068 q 317 1125 391 1125 q 285 1119 299 1125 q 104 1136 187 1136 l 92 1136 q 13 1128 44 1136 l 10 1129 q 17 1153 15 1135 l 8 1180 q -40 1236 -29 1213 l -38 1236 q 1 1234 -16 1234 l 3 1234 q 159 1255 65 1234 l 161 1254 q 106 1223 109 1230 l 115 1217 q 325 1173 197 1173 l 357 1173 q 427 1207 408 1173 l 430 1207 q 551 1179 508 1179 q 604 1191 576 1179 q 677 1263 670 1227 l 682 1263 q 711 1189 711 1223 q 643 1069 711 1130 l 638 1069 l 638 1074 q 545 1133 609 1133 l 533 1133 q 469 1103 486 1133 q 396 1012 469 1057 q 410 1059 410 1042 z "},"°":{"ha":386,"x_min":24,"x_max":355,"o":"m 83 975 q 96 1075 77 1026 l 101 1108 l 102 1109 q 170 1088 123 1090 q 264 1104 228 1083 l 270 1109 l 271 1109 q 320 1056 299 1093 q 352 916 355 994 l 345 858 q 311 745 334 795 l 311 745 l 310 745 q 313 854 315 807 q 291 848 302 852 q 211 795 237 829 l 208 789 l 208 787 q 141 817 175 791 q 41 986 66 874 q 25 1105 24 1050 l 26 1107 l 27 1106 q 83 975 54 1026 m 271 999 q 252 1014 262 1010 l 193 1020 l 190 1025 l 171 1019 q 123 920 138 1000 q 142 903 132 910 l 147 899 q 186 883 170 882 l 244 901 l 248 897 l 263 911 q 271 999 283 937 z "},"±":{"ha":682,"x_min":25,"x_max":624,"o":"m 308 574 q 170 505 225 567 l 163 494 q 205 444 165 484 l 203 441 q 85 477 132 477 l 83 477 q 54 472 71 477 l 52 474 q 89 564 60 511 l 96 607 q 90 646 94 637 l 92 648 q 153 635 116 635 l 161 635 q 299 662 225 635 q 323 652 310 652 q 351 659 338 652 l 353 683 q 297 848 361 780 l 288 856 q 233 819 277 855 l 231 821 q 277 935 273 889 l 277 937 q 275 967 279 950 l 277 968 q 363 924 313 957 l 406 913 q 445 915 437 912 l 447 912 q 429 854 432 890 l 428 845 q 442 705 422 781 q 439 703 441 704 q 440 688 440 695 q 488 640 452 640 l 497 640 q 568 736 546 640 l 568 743 l 572 743 q 624 549 624 645 q 601 429 624 494 l 597 429 q 543 546 593 488 q 509 565 524 562 q 483 562 496 563 q 413 522 454 553 q 402 457 404 497 l 401 448 q 490 369 397 399 l 497 368 l 497 365 q 300 331 395 322 q 182 364 244 336 l 182 368 q 304 412 242 368 q 328 450 326 432 q 308 574 330 521 m 382 47 l 382 60 q 307 149 367 149 q 282 140 294 149 q 139 165 205 165 l 130 165 q 67 153 92 165 l 65 155 q 70 193 68 163 l 63 234 q 25 320 33 285 l 26 322 q 58 318 44 318 l 60 318 q 182 352 109 318 l 184 350 q 141 301 142 311 l 148 291 q 315 223 213 223 l 340 223 q 395 276 380 223 l 397 276 q 494 232 459 232 q 536 251 513 232 q 593 364 588 307 l 597 364 q 621 248 621 302 q 566 62 621 156 l 562 62 l 562 68 q 488 161 540 161 l 479 161 q 429 115 442 161 q 371 -28 429 42 q 382 47 382 19 z "},"´":{"ha":694,"x_min":171,"x_max":477,"o":"m 477 1257 l 475 1255 q 437 1235 448 1247 l 435 1233 q 436 1188 414 1211 l 465 1172 q 439 1129 459 1150 q 306 1061 393 1081 q 175 1041 277 1050 l 173 1041 l 171 1042 l 172 1043 q 363 1131 321 1086 l 366 1133 q 372 1187 392 1160 l 366 1191 l 362 1193 q 325 1200 351 1198 l 326 1201 l 328 1204 l 335 1213 q 477 1257 371 1250 z "},"·":{"ha":339,"x_min":46,"x_max":281,"o":"m 165 812 l 167 812 l 167 810 q 147 752 147 779 q 186 688 147 711 q 203 685 193 685 q 262 696 227 685 q 281 637 281 669 q 227 498 281 578 q 109 537 168 537 l 88 537 l 46 534 q 123 569 86 569 l 151 569 q 168 585 168 572 l 168 596 q 120 643 149 643 l 112 643 q 71 629 94 643 l 67 638 l 67 648 q 165 812 67 733 z "},"∙":{"ha":339,"x_min":46,"x_max":281,"o":"m 165 812 l 167 812 l 167 810 q 147 752 147 779 q 186 688 147 711 q 203 685 193 685 q 262 696 227 685 q 281 637 281 669 q 227 498 281 578 q 109 537 168 537 l 88 537 l 46 534 q 123 569 86 569 l 151 569 q 168 585 168 572 l 168 596 q 120 643 149 643 l 112 643 q 71 629 94 643 l 67 638 l 67 648 q 165 812 67 733 z "},"»":{"ha":558,"x_min":58,"x_max":517,"o":"m 323 593 q 58 353 209 353 l 58 354 q 80 372 76 365 q 153 467 141 430 l 161 503 q 197 585 161 541 q 62 741 138 701 l 62 742 q 197 685 125 742 q 273 597 260 623 q 221 532 221 565 l 221 528 q 326 604 270 528 l 327 604 l 323 593 m 514 593 q 248 353 399 353 l 248 354 q 271 372 267 365 q 343 467 332 430 l 351 503 q 388 585 351 541 q 253 741 328 701 l 253 742 q 388 685 315 742 q 464 597 451 623 q 412 532 412 565 l 412 528 q 516 604 460 528 l 517 604 l 514 593 z "},"À":{"ha":648,"x_min":8,"x_max":628,"o":"m 551 1118 q 480 942 480 1031 q 547 732 480 859 q 627 681 584 681 l 627 678 l 628 649 q 547 441 628 523 l 545 441 l 545 443 q 557 509 557 477 q 524 547 557 547 q 464 448 478 547 l 463 429 q 522 320 463 357 q 562 311 535 314 q 580 225 580 265 q 448 -39 580 106 l 448 -40 l 444 -40 q 469 159 469 59 q 391 288 469 244 q 356 294 374 294 q 292 277 330 294 l 292 279 q 304 353 304 313 l 304 366 q 180 541 304 481 l 180 539 q 252 351 180 437 q 121 198 161 302 q 100 73 100 125 l 97 73 q 69 235 69 179 l 69 250 q 97 343 69 275 l 103 390 q 58 631 103 478 q 20 705 40 671 q 8 752 8 734 l 8 770 l 9 778 l 13 778 q 66 743 38 743 q 127 834 106 743 q 343 1011 264 964 q 546 1118 456 1084 l 551 1118 m 193 667 q 283 583 267 583 q 368 507 313 571 l 377 488 q 395 532 395 507 q 378 601 378 585 l 378 610 l 380 612 l 380 614 q 398 610 387 610 l 403 610 q 475 641 429 610 q 374 776 441 776 l 368 776 q 330 768 353 776 l 330 770 q 372 882 372 829 l 369 887 q 262 823 317 872 q 193 667 193 745 m 238 1213 l 245 1204 l 248 1201 l 248 1200 q 211 1193 222 1198 l 207 1191 l 201 1187 q 208 1133 181 1160 l 210 1131 q 401 1043 252 1086 l 402 1042 l 400 1041 l 398 1041 q 267 1061 296 1050 q 134 1129 180 1081 q 109 1172 114 1150 l 137 1188 q 138 1233 159 1211 l 136 1235 q 98 1255 125 1247 l 96 1257 q 238 1213 202 1250 z "},"Á":{"ha":648,"x_min":8,"x_max":628,"o":"m 551 1118 q 480 942 480 1031 q 547 732 480 859 q 627 681 584 681 l 627 678 l 628 649 q 547 441 628 523 l 545 441 l 545 443 q 557 509 557 477 q 524 547 557 547 q 464 448 478 547 l 463 429 q 522 320 463 357 q 562 311 535 314 q 580 225 580 265 q 448 -39 580 106 l 448 -40 l 444 -40 q 469 159 469 59 q 391 288 469 244 q 356 294 374 294 q 292 277 330 294 l 292 279 q 304 353 304 313 l 304 366 q 180 541 304 481 l 180 539 q 252 351 180 437 q 121 198 161 302 q 100 73 100 125 l 97 73 q 69 235 69 179 l 69 250 q 97 343 69 275 l 103 390 q 58 631 103 478 q 20 705 40 671 q 8 752 8 734 l 8 770 l 9 778 l 13 778 q 66 743 38 743 q 127 834 106 743 q 343 1011 264 964 q 546 1118 456 1084 l 551 1118 m 193 667 q 283 583 267 583 q 368 507 313 571 l 377 488 q 395 532 395 507 q 378 601 378 585 l 378 610 l 380 612 l 380 614 q 398 610 387 610 l 403 610 q 475 641 429 610 q 374 776 441 776 l 368 776 q 330 768 353 776 l 330 770 q 372 882 372 829 l 369 887 q 262 823 317 872 q 193 667 193 745 m 472 1257 l 471 1255 q 432 1235 444 1247 l 430 1233 q 431 1188 409 1211 l 460 1172 q 434 1129 454 1150 q 301 1061 388 1081 q 170 1041 272 1050 l 168 1041 l 166 1042 l 167 1043 q 358 1131 316 1086 l 361 1133 q 368 1187 387 1160 l 361 1191 l 357 1193 q 320 1200 347 1198 l 321 1201 l 323 1204 l 330 1213 q 472 1257 366 1250 z "},"Â":{"ha":648,"x_min":8,"x_max":628,"o":"m 551 1118 q 480 942 480 1031 q 547 732 480 859 q 627 681 584 681 l 627 678 l 628 649 q 547 441 628 523 l 545 441 l 545 443 q 557 509 557 477 q 524 547 557 547 q 464 448 478 547 l 463 429 q 522 320 463 357 q 562 311 535 314 q 580 225 580 265 q 448 -39 580 106 l 448 -40 l 444 -40 q 469 159 469 59 q 391 288 469 244 q 356 294 374 294 q 292 277 330 294 l 292 279 q 304 353 304 313 l 304 366 q 180 541 304 481 l 180 539 q 252 351 180 437 q 121 198 161 302 q 100 73 100 125 l 97 73 q 69 235 69 179 l 69 250 q 97 343 69 275 l 103 390 q 58 631 103 478 q 20 705 40 671 q 8 752 8 734 l 8 770 l 9 778 l 13 778 q 66 743 38 743 q 127 834 106 743 q 343 1011 264 964 q 546 1118 456 1084 l 551 1118 m 193 667 q 283 583 267 583 q 368 507 313 571 l 377 488 q 395 532 395 507 q 378 601 378 585 l 378 610 l 380 612 l 380 614 q 398 610 387 610 l 403 610 q 475 641 429 610 q 374 776 441 776 l 368 776 q 330 768 353 776 l 330 770 q 372 882 372 829 l 369 887 q 262 823 317 872 q 193 667 193 745 m 507 1257 l 507 1256 q 448 1177 448 1214 l 452 1177 q 502 1217 477 1177 q 568 1159 521 1207 q 611 1057 611 1104 l 610 1057 q 492 1159 580 1114 q 430 1131 458 1131 l 403 1125 q 331 1070 374 1116 q 317 1053 326 1067 l 316 1053 q 498 1255 316 1168 l 507 1257 z "},"Ã":{"ha":648,"x_min":8,"x_max":628,"o":"m 551 1118 q 480 942 480 1031 q 547 732 480 859 q 627 681 584 681 l 627 678 l 628 649 q 547 441 628 523 l 545 441 l 545 443 q 557 509 557 477 q 524 547 557 547 q 464 448 478 547 l 463 429 q 522 320 463 357 q 562 311 535 314 q 580 225 580 265 q 448 -39 580 106 l 448 -40 l 444 -40 q 469 159 469 59 q 391 288 469 244 q 356 294 374 294 q 292 277 330 294 l 292 279 q 304 353 304 313 l 304 366 q 180 541 304 481 l 180 539 q 252 351 180 437 q 121 198 161 302 q 100 73 100 125 l 97 73 q 69 235 69 179 l 69 250 q 97 343 69 275 l 103 390 q 58 631 103 478 q 20 705 40 671 q 8 752 8 734 l 8 770 l 9 778 l 13 778 q 66 743 38 743 q 127 834 106 743 q 343 1011 264 964 q 546 1118 456 1084 l 551 1118 m 193 667 q 283 583 267 583 q 368 507 313 571 l 377 488 q 395 532 395 507 q 378 601 378 585 l 378 610 l 380 612 l 380 614 q 398 610 387 610 l 403 610 q 475 641 429 610 q 374 776 441 776 l 368 776 q 330 768 353 776 l 330 770 q 372 882 372 829 l 369 887 q 262 823 317 872 q 193 667 193 745 m 498 1282 l 499 1280 q 439 1230 452 1257 q 427 1122 416 1180 q 435 1099 431 1103 l 434 1098 l 429 1097 q 386 1073 408 1094 q 311 1041 359 1050 l 299 1038 q 214 1047 250 1029 q 229 1079 233 1061 q 159 1101 225 1102 l 157 1100 q 83 1011 113 1092 l 83 1011 l 83 1012 q 115 1141 84 1091 q 148 1188 131 1173 l 151 1188 q 151 1164 149 1175 l 152 1162 q 176 1154 154 1150 q 256 1143 232 1156 q 292 1108 276 1129 q 317 1105 302 1102 l 323 1105 q 356 1126 358 1118 q 359 1138 361 1131 q 336 1173 357 1152 l 336 1174 l 362 1175 q 401 1209 395 1180 q 491 1280 432 1270 l 498 1282 z "},"Ä":{"ha":648,"x_min":8,"x_max":692,"o":"m 551 1118 q 480 942 480 1031 q 547 732 480 859 q 627 681 584 681 l 627 678 l 628 649 q 547 441 628 523 l 545 441 l 545 443 q 557 509 557 477 q 524 547 557 547 q 464 448 478 547 l 463 429 q 522 320 463 357 q 562 311 535 314 q 580 225 580 265 q 448 -39 580 106 l 448 -40 l 444 -40 q 469 159 469 59 q 391 288 469 244 q 356 294 374 294 q 292 277 330 294 l 292 279 q 304 353 304 313 l 304 366 q 180 541 304 481 l 180 539 q 252 351 180 437 q 121 198 161 302 q 100 73 100 125 l 97 73 q 69 235 69 179 l 69 250 q 97 343 69 275 l 103 390 q 58 631 103 478 q 20 705 40 671 q 8 752 8 734 l 8 770 l 9 778 l 13 778 q 66 743 38 743 q 127 834 106 743 q 343 1011 264 964 q 546 1118 456 1084 l 551 1118 m 193 667 q 283 583 267 583 q 368 507 313 571 l 377 488 q 395 532 395 507 q 378 601 378 585 l 378 610 l 380 612 l 380 614 q 398 610 387 610 l 403 610 q 475 641 429 610 q 374 776 441 776 l 368 776 q 330 768 353 776 l 330 770 q 372 882 372 829 l 369 887 q 262 823 317 872 q 193 667 193 745 m 351 1257 l 352 1257 l 352 1256 q 339 1222 339 1238 q 366 1185 339 1198 q 377 1183 370 1183 q 417 1189 393 1183 q 430 1154 430 1173 q 393 1074 430 1120 q 313 1096 353 1096 l 298 1096 l 270 1094 q 323 1115 297 1115 l 341 1115 q 353 1124 353 1117 l 353 1131 q 320 1158 340 1158 l 315 1158 q 287 1149 302 1158 l 284 1155 l 284 1161 q 351 1257 284 1211 m 691 1217 l 692 1216 l 692 1215 q 656 1206 669 1216 q 640 1164 636 1193 q 646 1153 642 1159 q 673 1124 654 1140 q 653 1093 669 1104 q 566 1078 625 1074 q 538 1156 561 1123 l 530 1168 l 512 1190 q 559 1158 545 1179 l 570 1143 q 584 1139 578 1135 l 589 1143 q 593 1185 604 1169 l 590 1190 q 567 1208 583 1200 l 570 1213 l 574 1217 q 691 1217 616 1245 z "},"Å":{"ha":648,"x_min":8,"x_max":628,"o":"m 551 1118 q 480 942 480 1031 q 547 732 480 859 q 627 681 584 681 l 627 678 l 628 649 q 547 441 628 523 l 545 441 l 545 443 q 557 509 557 477 q 524 547 557 547 q 464 448 478 547 l 463 429 q 522 320 463 357 q 562 311 535 314 q 580 225 580 265 q 448 -39 580 106 l 448 -40 l 444 -40 q 469 159 469 59 q 391 288 469 244 q 356 294 374 294 q 292 277 330 294 l 292 279 q 304 353 304 313 l 304 366 q 180 541 304 481 l 180 539 q 252 351 180 437 q 121 198 161 302 q 100 73 100 125 l 97 73 q 69 235 69 179 l 69 250 q 97 343 69 275 l 103 390 q 58 631 103 478 q 20 705 40 671 q 8 752 8 734 l 8 770 l 9 778 l 13 778 q 66 743 38 743 q 127 834 106 743 q 343 1011 264 964 q 546 1118 456 1084 l 551 1118 m 193 667 q 283 583 267 583 q 368 507 313 571 l 377 488 q 395 532 395 507 q 378 601 378 585 l 378 610 l 380 612 l 380 614 q 398 610 387 610 l 403 610 q 475 641 429 610 q 374 776 441 776 l 368 776 q 330 768 353 776 l 330 770 q 372 882 372 829 l 369 887 q 262 823 317 872 q 193 667 193 745 m 264 1165 q 273 1234 260 1200 l 277 1257 l 277 1257 q 324 1243 292 1245 q 389 1254 364 1240 l 393 1257 l 395 1258 q 428 1221 414 1247 q 450 1124 452 1179 q 452 1105 451 1115 l 457 1083 l 457 1082 q 445 1084 452 1084 q 422 1006 438 1040 l 421 1006 l 421 1006 q 423 1082 425 1049 q 408 1078 416 1080 q 353 1041 370 1064 l 351 1036 l 350 1036 q 304 1056 328 1038 q 235 1173 252 1095 q 224 1255 223 1217 l 224 1256 l 225 1256 q 264 1165 244 1200 m 395 1181 q 381 1192 388 1190 l 340 1196 l 338 1200 l 325 1195 q 292 1127 302 1182 q 304 1116 298 1120 l 309 1113 q 336 1101 324 1101 l 375 1114 l 378 1112 l 389 1121 q 395 1181 402 1139 z "},"Æ":{"ha":1026,"x_min":8,"x_max":998,"o":"m 193 667 q 283 583 267 583 q 368 507 313 571 l 377 488 q 395 532 395 507 q 378 601 378 585 l 378 610 l 380 612 l 380 614 q 398 610 387 610 l 403 610 q 475 641 429 610 q 374 776 441 776 l 368 776 q 330 768 353 776 l 330 770 q 372 882 372 829 l 369 887 q 262 823 317 872 q 193 667 193 745 m 626 681 q 696 711 654 700 q 768 803 741 733 q 771 808 768 808 l 772 808 q 776 766 777 785 q 723 635 774 711 q 689 486 692 572 l 688 458 l 688 410 l 685 410 q 640 574 637 501 l 640 597 q 629 604 641 600 q 625 603 627 604 q 547 441 613 507 l 545 441 l 545 443 q 557 509 557 477 q 524 547 557 547 q 464 448 478 547 l 463 434 q 657 336 602 336 l 663 336 q 796 450 723 422 l 812 446 l 829 446 q 995 502 870 446 l 998 500 q 972 433 974 464 l 972 429 l 976 351 q 823 180 972 235 l 819 180 q 899 298 888 229 q 866 351 888 351 q 832 359 850 359 q 743 209 745 266 q 669 71 716 128 q 519 -48 606 -5 l 517 -48 l 517 -47 q 611 135 591 38 q 608 224 626 188 q 391 288 481 330 q 292 277 331 311 l 292 279 q 304 353 304 313 l 304 366 q 180 541 304 481 l 180 539 q 252 351 180 437 q 121 198 161 302 q 100 73 100 125 l 97 73 q 69 235 69 179 l 69 250 q 97 343 69 275 l 103 390 q 58 631 103 478 q 20 705 40 671 q 8 752 8 734 l 8 770 l 9 778 l 13 778 q 66 743 38 743 q 127 834 106 743 q 343 1011 264 964 q 546 1118 456 1084 l 551 1118 q 480 942 480 1031 q 481 921 480 932 q 488 928 485 924 q 769 1100 621 1042 l 819 1118 l 819 1114 q 759 1031 760 1069 q 884 939 813 1010 q 962 783 946 863 q 837 651 871 730 l 833 617 l 835 581 q 798 667 797 614 l 799 684 l 821 719 q 844 808 842 757 q 787 889 834 841 q 694 945 735 935 q 545 834 587 902 l 515 800 q 547 732 528 768 q 626 681 584 681 z "},"Ç":{"ha":631,"x_min":-27,"x_max":625,"o":"m 271 75 q 274 113 274 94 q 168 310 274 224 q 90 491 90 392 q 74 597 83 597 q 15 665 68 615 l 15 667 l 17 667 q 108 704 89 667 l 110 714 l 110 717 q 66 769 102 769 q -27 719 33 769 l -27 720 q 233 1018 40 895 q 435 1114 363 1097 q 376 1026 376 1063 q 503 935 422 1013 q 567 839 547 879 q 625 798 598 803 l 625 797 q 526 735 574 735 q 446 684 486 722 q 396 595 408 636 l 395 595 q 391 600 391 595 l 389 625 q 448 789 389 694 l 453 814 l 453 817 q 324 934 453 868 l 316 935 q 196 861 262 920 q 170 826 178 840 q 205 735 205 785 l 205 727 q 170 626 205 680 q 220 435 174 531 q 289 354 240 399 q 330 333 323 333 q 373 448 344 424 q 419 431 392 431 l 420 431 q 560 522 479 431 l 562 522 q 552 448 552 478 q 611 372 552 372 l 612 372 l 612 370 q 505 198 580 252 q 452 172 465 173 l 452 174 q 507 273 507 225 l 507 277 q 353 81 376 161 l 351 73 q 351 23 342 41 l 394 -31 l 392 -37 l 414 -47 q 565 20 465 -61 l 568 19 l 568 18 q 429 -155 532 -110 l 397 -177 l 396 -177 q 357 -104 393 -145 q 267 -41 314 -54 l 258 -40 l 256 -40 q 254 -31 255 -36 q 216 -58 236 -46 l 216 -56 q 254 15 240 -20 q 260 44 256 29 q 271 75 264 60 m 505 286 q 473 333 500 317 l 471 333 q 397 239 429 333 q 395 222 396 230 q 399 224 397 223 q 505 286 453 264 z "},"È":{"ha":659,"x_min":1,"x_max":620,"o":"m 476 1118 l 476 1114 q 416 1031 418 1069 q 541 939 471 1010 q 620 783 604 863 q 494 651 528 730 l 491 617 l 492 581 q 456 667 454 614 l 456 684 l 479 719 q 501 808 500 757 q 445 889 492 841 q 352 945 393 935 q 203 834 244 902 q 239 741 241 789 l 235 717 q 272 680 251 693 q 356 722 302 708 q 428 814 401 744 q 431 819 428 819 l 433 819 q 436 777 437 795 q 383 646 435 722 q 349 497 352 583 l 349 469 l 349 421 l 345 421 q 300 585 298 512 l 300 608 q 289 614 301 610 q 245 572 270 614 l 245 571 l 242 571 l 202 611 l 202 608 q 226 465 200 534 q 232 415 233 440 l 232 405 q 336 336 292 336 l 342 336 q 449 450 390 422 l 462 446 l 475 446 q 610 502 509 446 l 612 500 q 591 433 593 464 l 591 429 l 594 351 q 471 180 591 235 l 467 180 q 525 281 524 229 q 498 334 516 334 q 471 342 486 342 q 406 209 408 266 q 347 71 385 128 q 225 -48 295 -5 l 224 -48 l 224 -47 q 286 121 283 38 q 120 325 291 274 q 105 330 113 325 q 125 391 124 364 q 108 578 113 456 q 64 651 98 623 l 44 672 l 44 673 q 135 707 109 673 l 140 725 q 96 777 132 777 q 3 728 62 777 l 1 728 l 1 730 q 138 921 35 815 q 427 1100 275 1041 l 476 1118 m 153 1213 l 160 1204 l 162 1201 l 163 1200 q 125 1193 136 1198 l 121 1191 l 115 1187 q 122 1133 96 1160 l 125 1131 q 316 1043 167 1086 l 317 1042 l 315 1041 l 313 1041 q 182 1061 211 1050 q 49 1129 95 1081 q 23 1172 28 1150 l 52 1188 q 53 1233 74 1211 l 51 1235 q 12 1255 39 1247 l 11 1257 q 153 1213 117 1250 z "},"É":{"ha":659,"x_min":1,"x_max":620,"o":"m 476 1118 l 476 1114 q 416 1031 418 1069 q 541 939 471 1010 q 620 783 604 863 q 494 651 528 730 l 491 617 l 492 581 q 456 667 454 614 l 456 684 l 479 719 q 501 808 500 757 q 445 889 492 841 q 352 945 393 935 q 203 834 244 902 q 239 741 241 789 l 235 717 q 272 680 251 693 q 356 722 302 708 q 428 814 401 744 q 431 819 428 819 l 433 819 q 436 777 437 795 q 383 646 435 722 q 349 497 352 583 l 349 469 l 349 421 l 345 421 q 300 585 298 512 l 300 608 q 289 614 301 610 q 245 572 270 614 l 245 571 l 242 571 l 202 611 l 202 608 q 226 465 200 534 q 232 415 233 440 l 232 405 q 336 336 292 336 l 342 336 q 449 450 390 422 l 462 446 l 475 446 q 610 502 509 446 l 612 500 q 591 433 593 464 l 591 429 l 594 351 q 471 180 591 235 l 467 180 q 525 281 524 229 q 498 334 516 334 q 471 342 486 342 q 406 209 408 266 q 347 71 385 128 q 225 -48 295 -5 l 224 -48 l 224 -47 q 286 121 283 38 q 120 325 291 274 q 105 330 113 325 q 125 391 124 364 q 108 578 113 456 q 64 651 98 623 l 44 672 l 44 673 q 135 707 109 673 l 140 725 q 96 777 132 777 q 3 728 62 777 l 1 728 l 1 730 q 138 921 35 815 q 427 1100 275 1041 l 476 1118 m 432 1257 l 431 1255 q 392 1235 404 1247 l 390 1233 q 391 1188 369 1211 l 420 1172 q 394 1129 414 1150 q 261 1061 348 1081 q 130 1041 232 1050 l 128 1041 l 126 1042 l 127 1043 q 318 1131 276 1086 l 321 1133 q 328 1187 347 1160 l 321 1191 l 317 1193 q 280 1200 307 1198 l 281 1201 l 283 1204 l 290 1213 q 432 1257 326 1250 z "},"Ê":{"ha":659,"x_min":1,"x_max":620,"o":"m 476 1118 l 476 1114 q 416 1031 418 1069 q 541 939 471 1010 q 620 783 604 863 q 494 651 528 730 l 491 617 l 492 581 q 456 667 454 614 l 456 684 l 479 719 q 501 808 500 757 q 445 889 492 841 q 352 945 393 935 q 203 834 244 902 q 239 741 241 789 l 235 717 q 272 680 251 693 q 356 722 302 708 q 428 814 401 744 q 431 819 428 819 l 433 819 q 436 777 437 795 q 383 646 435 722 q 349 497 352 583 l 349 469 l 349 421 l 345 421 q 300 585 298 512 l 300 608 q 289 614 301 610 q 245 572 270 614 l 245 571 l 242 571 l 202 611 l 202 608 q 226 465 200 534 q 232 415 233 440 l 232 405 q 336 336 292 336 l 342 336 q 449 450 390 422 l 462 446 l 475 446 q 610 502 509 446 l 612 500 q 591 433 593 464 l 591 429 l 594 351 q 471 180 591 235 l 467 180 q 525 281 524 229 q 498 334 516 334 q 471 342 486 342 q 406 209 408 266 q 347 71 385 128 q 225 -48 295 -5 l 224 -48 l 224 -47 q 286 121 283 38 q 120 325 291 274 q 105 330 113 325 q 125 391 124 364 q 108 578 113 456 q 64 651 98 623 l 44 672 l 44 673 q 135 707 109 673 l 140 725 q 96 777 132 777 q 3 728 62 777 l 1 728 l 1 730 q 138 921 35 815 q 427 1100 275 1041 l 476 1118 m 446 1257 l 446 1256 q 388 1177 388 1214 l 391 1177 q 441 1217 416 1177 q 507 1159 460 1207 q 551 1057 551 1104 l 550 1057 q 431 1159 519 1114 q 370 1131 398 1131 l 342 1125 q 271 1070 314 1116 q 257 1053 265 1067 l 256 1053 q 437 1255 256 1168 l 446 1257 z "},"Ë":{"ha":659,"x_min":1,"x_max":620,"o":"m 476 1118 l 476 1114 q 416 1031 418 1069 q 541 939 471 1010 q 620 783 604 863 q 494 651 528 730 l 491 617 l 492 581 q 456 667 454 614 l 456 684 l 479 719 q 501 808 500 757 q 445 889 492 841 q 352 945 393 935 q 203 834 244 902 q 239 741 241 789 l 235 717 q 272 680 251 693 q 356 722 302 708 q 428 814 401 744 q 431 819 428 819 l 433 819 q 436 777 437 795 q 383 646 435 722 q 349 497 352 583 l 349 469 l 349 421 l 345 421 q 300 585 298 512 l 300 608 q 289 614 301 610 q 245 572 270 614 l 245 571 l 242 571 l 202 611 l 202 608 q 226 465 200 534 q 232 415 233 440 l 232 405 q 336 336 292 336 l 342 336 q 449 450 390 422 l 462 446 l 475 446 q 610 502 509 446 l 612 500 q 591 433 593 464 l 591 429 l 594 351 q 471 180 591 235 l 467 180 q 525 281 524 229 q 498 334 516 334 q 471 342 486 342 q 406 209 408 266 q 347 71 385 128 q 225 -48 295 -5 l 224 -48 l 224 -47 q 286 121 283 38 q 120 325 291 274 q 105 330 113 325 q 125 391 124 364 q 108 578 113 456 q 64 651 98 623 l 44 672 l 44 673 q 135 707 109 673 l 140 725 q 96 777 132 777 q 3 728 62 777 l 1 728 l 1 730 q 138 921 35 815 q 427 1100 275 1041 l 476 1118 m 271 1257 l 272 1257 l 272 1256 q 259 1222 259 1238 q 286 1185 259 1198 q 297 1183 290 1183 q 337 1189 313 1183 q 350 1154 350 1173 q 313 1074 350 1120 q 233 1096 273 1096 l 218 1096 l 190 1094 q 243 1115 217 1115 l 261 1115 q 273 1124 273 1117 l 273 1131 q 240 1158 260 1158 l 235 1158 q 207 1149 222 1158 l 204 1155 l 204 1161 q 271 1257 204 1211 m 611 1217 l 612 1216 l 612 1215 q 576 1206 589 1216 q 560 1164 556 1193 q 566 1153 562 1159 q 593 1124 574 1140 q 573 1093 589 1104 q 486 1078 545 1074 q 458 1156 481 1123 l 450 1168 l 432 1190 q 479 1158 465 1179 l 490 1143 q 504 1139 498 1135 l 509 1143 q 513 1185 524 1169 l 510 1190 q 487 1208 503 1200 l 490 1213 l 494 1217 q 611 1217 536 1245 z "},"Ì":{"ha":393,"x_min":-26,"x_max":444,"o":"m 441 1087 l 444 1087 l 444 1084 q 306 944 430 1084 q 237 810 237 859 q 292 733 237 749 l 327 725 q 316 686 316 703 l 316 684 q 348 603 316 663 q 374 534 374 544 l 375 521 l 372 521 q 275 612 328 612 q 234 558 234 604 q 314 307 234 515 l 314 306 q 198 132 198 250 q 245 -35 198 66 l 250 -52 l 248 -52 q 121 176 131 100 q 113 237 113 196 q 123 277 113 277 q 160 325 160 301 q 174 400 174 378 l 174 423 q 94 582 174 494 q 147 630 147 601 l 147 633 q 105 686 138 686 l 98 686 q 9 606 63 686 l 5 606 q 44 735 18 674 q 139 822 90 822 q 165 901 155 901 q 364 1046 290 1012 q 441 1087 430 1084 m 116 1213 l 123 1204 l 125 1201 l 126 1200 q 89 1193 100 1198 l 85 1191 l 79 1187 q 85 1133 59 1160 l 88 1131 q 279 1043 130 1086 l 280 1042 l 278 1041 l 276 1041 q 145 1061 174 1050 q 12 1129 58 1081 q -14 1172 -8 1150 l 15 1188 q 16 1233 37 1211 l 14 1235 q -24 1255 3 1247 l -26 1257 q 116 1213 80 1250 z "},"Í":{"ha":393,"x_min":5,"x_max":444,"o":"m 441 1087 l 444 1087 l 444 1084 q 306 944 430 1084 q 237 810 237 859 q 292 733 237 749 l 327 725 q 316 686 316 703 l 316 684 q 348 603 316 663 q 374 534 374 544 l 375 521 l 372 521 q 275 612 328 612 q 234 558 234 604 q 314 307 234 515 l 314 306 q 198 132 198 250 q 245 -35 198 66 l 250 -52 l 248 -52 q 121 176 131 100 q 113 237 113 196 q 123 277 113 277 q 160 325 160 301 q 174 400 174 378 l 174 423 q 94 582 174 494 q 147 630 147 601 l 147 633 q 105 686 138 686 l 98 686 q 9 606 63 686 l 5 606 q 44 735 18 674 q 139 822 90 822 q 165 901 155 901 q 364 1046 290 1012 q 441 1087 430 1084 m 416 1257 l 414 1255 q 376 1235 387 1247 l 374 1233 q 375 1188 353 1211 l 404 1172 q 378 1129 398 1150 q 245 1061 332 1081 q 114 1041 216 1050 l 112 1041 l 110 1042 l 111 1043 q 302 1131 260 1086 l 304 1133 q 311 1187 331 1160 l 305 1191 l 301 1193 q 264 1200 290 1198 l 264 1201 l 267 1204 l 274 1213 q 416 1257 310 1250 z "},"Î":{"ha":393,"x_min":5,"x_max":444,"o":"m 441 1087 l 444 1087 l 444 1084 q 306 944 430 1084 q 237 810 237 859 q 292 733 237 749 l 327 725 q 316 686 316 703 l 316 684 q 348 603 316 663 q 374 534 374 544 l 375 521 l 372 521 q 275 612 328 612 q 234 558 234 604 q 314 307 234 515 l 314 306 q 198 132 198 250 q 245 -35 198 66 l 250 -52 l 248 -52 q 121 176 131 100 q 113 237 113 196 q 123 277 113 277 q 160 325 160 301 q 174 400 174 378 l 174 423 q 94 582 174 494 q 147 630 147 601 l 147 633 q 105 686 138 686 l 98 686 q 9 606 63 686 l 5 606 q 44 735 18 674 q 139 822 90 822 q 165 901 155 901 q 364 1046 290 1012 q 441 1087 430 1084 m 317 1257 l 317 1256 q 258 1177 258 1214 l 262 1177 q 312 1217 287 1177 q 378 1159 331 1207 q 421 1057 421 1104 l 420 1057 q 302 1159 390 1114 q 240 1131 269 1131 l 213 1125 q 141 1070 184 1116 q 127 1053 136 1067 l 126 1053 q 308 1255 126 1168 l 317 1257 z "},"Ï":{"ha":393,"x_min":5,"x_max":583,"o":"m 441 1087 l 444 1087 l 444 1084 q 306 944 430 1084 q 237 810 237 859 q 292 733 237 749 l 327 725 q 316 686 316 703 l 316 684 q 348 603 316 663 q 374 534 374 544 l 375 521 l 372 521 q 275 612 328 612 q 234 558 234 604 q 314 307 234 515 l 314 306 q 198 132 198 250 q 245 -35 198 66 l 250 -52 l 248 -52 q 121 176 131 100 q 113 237 113 196 q 123 277 113 277 q 160 325 160 301 q 174 400 174 378 l 174 423 q 94 582 174 494 q 147 630 147 601 l 147 633 q 105 686 138 686 l 98 686 q 9 606 63 686 l 5 606 q 44 735 18 674 q 139 822 90 822 q 165 901 155 901 q 364 1046 290 1012 q 441 1087 430 1084 m 241 1257 l 242 1257 l 242 1256 q 229 1222 229 1238 q 256 1185 229 1198 q 267 1183 260 1183 q 307 1189 283 1183 q 320 1154 320 1173 q 283 1074 320 1120 q 203 1096 243 1096 l 189 1096 l 160 1094 q 213 1115 187 1115 l 231 1115 q 243 1124 243 1117 l 243 1131 q 210 1158 230 1158 l 205 1158 q 177 1149 193 1158 l 174 1155 l 174 1161 q 241 1257 174 1211 m 581 1217 l 583 1216 l 582 1215 q 546 1206 559 1216 q 530 1164 526 1193 q 536 1153 532 1159 q 564 1124 545 1140 q 543 1093 559 1104 q 456 1078 515 1074 q 428 1156 451 1123 l 420 1168 l 402 1190 q 449 1158 435 1179 l 460 1143 q 474 1139 468 1135 l 479 1143 q 483 1185 494 1169 l 480 1190 q 457 1208 473 1200 l 460 1213 l 465 1217 q 581 1217 506 1245 z "},"Ð":{"ha":749,"x_min":-75,"x_max":709,"o":"m 315 634 q 254 416 290 528 l 268 416 q 383 372 338 416 q 393 357 393 361 l 395 357 l 519 570 q 456 625 494 625 l 454 625 q 393 597 425 625 l 391 597 l 391 599 q 444 677 420 658 l 515 724 q 571 780 543 747 q 390 949 512 894 q 241 874 312 922 l 228 862 l 250 796 q 302 756 272 756 q 343 791 326 756 l 347 791 q 340 754 344 773 q 376 640 376 696 q 358 564 376 605 l 355 564 q 315 634 351 600 m 123 710 q 158 748 152 718 l 158 754 q 117 794 147 794 q 35 724 81 794 l 31 724 l 31 726 q 130 934 31 831 q 444 1084 237 1034 q 556 1103 533 1103 l 556 1100 q 476 1034 476 1060 l 476 1029 q 611 916 530 1004 q 709 659 709 798 l 709 656 l 707 649 l 704 649 q 654 689 677 689 q 608 644 627 689 l 608 636 q 644 585 608 615 q 497 348 644 541 q 454 210 454 279 l 454 189 q 572 -91 454 65 l 571 -91 q 416 43 514 -57 q 334 216 355 113 q 279 313 320 313 q 220 269 248 313 q 212 224 212 244 l 212 212 q 257 52 212 153 l 256 52 q 145 189 163 145 q 85 373 85 296 l 87 399 q 150 433 126 407 q 191 586 191 482 q 164 657 191 624 l 144 657 q 18 612 67 657 l 13 606 q 45 573 14 599 l 44 572 q -50 594 -12 594 l -50 594 q -74 591 -61 594 l -75 593 q -46 650 -69 616 l -41 677 q -45 702 -42 696 l -43 703 q 4 695 -25 695 l 11 695 q 103 707 54 695 l 103 708 l 104 708 q 119 712 112 710 q 123 710 121 711 z "},"Ñ":{"ha":734,"x_min":52,"x_max":700,"o":"m 700 1158 q 573 911 573 1039 l 573 896 q 654 680 573 810 q 692 568 692 611 q 637 417 692 480 l 631 414 l 631 417 q 648 475 648 449 l 648 478 q 602 547 645 532 q 549 486 578 547 l 543 444 q 578 290 543 427 q 583 240 583 266 l 583 220 q 414 -58 583 135 l 414 -55 q 498 197 498 103 q 449 292 488 292 l 439 294 l 437 294 q 355 273 401 294 l 353 275 q 376 387 376 336 q 219 585 376 532 l 216 585 q 210 538 210 562 l 210 526 q 278 361 210 448 l 237 342 q 97 59 97 254 l 94 59 q 66 187 66 128 q 119 387 66 262 q 122 427 122 402 l 122 448 q 98 690 122 593 q 146 734 140 713 l 146 741 q 105 796 130 796 l 100 796 q 53 769 82 796 l 52 771 l 52 772 q 290 1053 52 947 q 347 1073 318 1067 q 220 880 220 966 l 220 873 q 303 677 220 719 q 357 667 332 667 l 372 669 l 454 483 l 456 483 q 514 604 457 509 q 528 652 528 635 q 491 813 528 664 q 486 867 486 839 q 697 1158 486 1013 l 700 1158 m 676 1257 l 676 1255 q 608 1216 625 1240 q 577 1113 577 1172 q 580 1088 578 1094 l 579 1088 l 574 1088 q 528 1072 553 1088 q 448 1054 497 1054 l 436 1054 q 353 1078 385 1054 q 374 1106 374 1088 q 310 1140 374 1130 l 307 1140 q 219 1066 262 1140 l 218 1066 l 218 1067 q 274 1188 234 1145 q 314 1228 295 1216 l 317 1228 q 313 1204 313 1215 l 313 1202 q 336 1190 313 1190 q 412 1165 391 1181 q 441 1124 429 1147 q 466 1116 450 1116 l 471 1116 q 508 1129 508 1121 q 513 1141 513 1134 q 497 1179 513 1154 l 497 1180 l 522 1176 q 567 1203 555 1176 q 669 1257 608 1257 l 676 1257 z "},"Ò":{"ha":689,"x_min":6,"x_max":665,"o":"m 567 1093 l 567 1092 q 486 877 486 973 q 665 654 486 731 l 665 650 q 620 568 620 623 l 626 503 q 585 332 626 448 l 582 300 l 582 296 l 588 231 l 588 225 q 480 66 588 170 l 480 67 q 517 187 517 131 q 479 271 517 256 l 467 273 q 389 193 429 273 q 376 149 376 168 q 465 -11 376 87 l 461 -11 q 328 87 405 13 q 275 193 285 136 l 260 281 q 212 313 247 313 q 175 286 186 313 l 170 258 q 201 171 170 220 l 199 171 q 125 314 125 231 l 134 412 q 74 527 134 472 q 115 583 115 549 l 115 591 q 83 647 106 647 l 79 647 q 9 585 51 647 l 6 585 q 52 755 22 706 q 172 891 63 783 q 360 1013 275 972 q 567 1093 451 1057 m 153 714 q 203 618 203 661 l 201 610 q 224 604 212 604 q 358 732 288 604 l 360 732 l 360 730 q 319 593 342 649 q 252 509 309 569 q 226 419 226 468 l 228 419 q 330 366 273 417 q 357 307 357 328 q 492 394 447 394 l 497 396 q 536 511 528 412 q 491 558 536 558 q 422 544 469 558 l 421 545 l 421 547 q 456 652 456 602 l 456 667 q 410 787 456 707 q 396 895 396 831 l 396 921 q 266 850 328 895 q 153 714 175 779 m 238 1213 l 245 1204 l 248 1201 l 248 1200 q 211 1193 222 1198 l 207 1191 l 201 1187 q 208 1133 181 1160 l 210 1131 q 401 1043 252 1086 l 402 1042 l 400 1041 l 398 1041 q 267 1061 296 1050 q 134 1129 180 1081 q 109 1172 114 1150 l 137 1188 q 138 1233 159 1211 l 136 1235 q 98 1255 125 1247 l 96 1257 q 238 1213 202 1250 z "},"Ó":{"ha":689,"x_min":6,"x_max":665,"o":"m 567 1093 l 567 1092 q 486 877 486 973 q 665 654 486 731 l 665 650 q 620 568 620 623 l 626 503 q 585 332 626 448 l 582 300 l 582 296 l 588 231 l 588 225 q 480 66 588 170 l 480 67 q 517 187 517 131 q 479 271 517 256 l 467 273 q 389 193 429 273 q 376 149 376 168 q 465 -11 376 87 l 461 -11 q 328 87 405 13 q 275 193 285 136 l 260 281 q 212 313 247 313 q 175 286 186 313 l 170 258 q 201 171 170 220 l 199 171 q 125 314 125 231 l 134 412 q 74 527 134 472 q 115 583 115 549 l 115 591 q 83 647 106 647 l 79 647 q 9 585 51 647 l 6 585 q 52 755 22 706 q 172 891 63 783 q 360 1013 275 972 q 567 1093 451 1057 m 153 714 q 203 618 203 661 l 201 610 q 224 604 212 604 q 358 732 288 604 l 360 732 l 360 730 q 319 593 342 649 q 252 509 309 569 q 226 419 226 468 l 228 419 q 330 366 273 417 q 357 307 357 328 q 492 394 447 394 l 497 396 q 536 511 528 412 q 491 558 536 558 q 422 544 469 558 l 421 545 l 421 547 q 456 652 456 602 l 456 667 q 410 787 456 707 q 396 895 396 831 l 396 921 q 266 850 328 895 q 153 714 175 779 m 477 1257 l 476 1255 q 437 1235 449 1247 l 435 1233 q 437 1188 414 1211 l 465 1172 q 439 1129 460 1150 q 307 1061 393 1081 q 176 1041 277 1050 l 174 1041 l 172 1042 l 172 1043 q 363 1131 321 1086 l 366 1133 q 373 1187 393 1160 l 367 1191 l 363 1193 q 326 1200 352 1198 l 326 1201 l 328 1204 l 336 1213 q 477 1257 372 1250 z "},"Ô":{"ha":689,"x_min":6,"x_max":665,"o":"m 567 1093 l 567 1092 q 486 877 486 973 q 665 654 486 731 l 665 650 q 620 568 620 623 l 626 503 q 585 332 626 448 l 582 300 l 582 296 l 588 231 l 588 225 q 480 66 588 170 l 480 67 q 517 187 517 131 q 479 271 517 256 l 467 273 q 389 193 429 273 q 376 149 376 168 q 465 -11 376 87 l 461 -11 q 328 87 405 13 q 275 193 285 136 l 260 281 q 212 313 247 313 q 175 286 186 313 l 170 258 q 201 171 170 220 l 199 171 q 125 314 125 231 l 134 412 q 74 527 134 472 q 115 583 115 549 l 115 591 q 83 647 106 647 l 79 647 q 9 585 51 647 l 6 585 q 52 755 22 706 q 172 891 63 783 q 360 1013 275 972 q 567 1093 451 1057 m 153 714 q 203 618 203 661 l 201 610 q 224 604 212 604 q 358 732 288 604 l 360 732 l 360 730 q 319 593 342 649 q 252 509 309 569 q 226 419 226 468 l 228 419 q 330 366 273 417 q 357 307 357 328 q 492 394 447 394 l 497 396 q 536 511 528 412 q 491 558 536 558 q 422 544 469 558 l 421 545 l 421 547 q 456 652 456 602 l 456 667 q 410 787 456 707 q 396 895 396 831 l 396 921 q 266 850 328 895 q 153 714 175 779 m 421 1257 l 421 1256 q 363 1177 363 1214 l 366 1177 q 416 1217 391 1177 q 482 1159 435 1207 q 526 1057 526 1104 l 525 1057 q 406 1159 494 1114 q 345 1131 373 1131 l 317 1125 q 245 1070 289 1116 q 232 1053 240 1067 l 231 1053 q 412 1255 231 1168 l 421 1257 z "},"Õ":{"ha":689,"x_min":6,"x_max":665,"o":"m 567 1093 l 567 1092 q 486 877 486 973 q 665 654 486 731 l 665 650 q 620 568 620 623 l 626 503 q 585 332 626 448 l 582 300 l 582 296 l 588 231 l 588 225 q 480 66 588 170 l 480 67 q 517 187 517 131 q 479 271 517 256 l 467 273 q 389 193 429 273 q 376 149 376 168 q 465 -11 376 87 l 461 -11 q 328 87 405 13 q 275 193 285 136 l 260 281 q 212 313 247 313 q 175 286 186 313 l 170 258 q 201 171 170 220 l 199 171 q 125 314 125 231 l 134 412 q 74 527 134 472 q 115 583 115 549 l 115 591 q 83 647 106 647 l 79 647 q 9 585 51 647 l 6 585 q 52 755 22 706 q 172 891 63 783 q 360 1013 275 972 q 567 1093 451 1057 m 153 714 q 203 618 203 661 l 201 610 q 224 604 212 604 q 358 732 288 604 l 360 732 l 360 730 q 319 593 342 649 q 252 509 309 569 q 226 419 226 468 l 228 419 q 330 366 273 417 q 357 307 357 328 q 492 394 447 394 l 497 396 q 536 511 528 412 q 491 558 536 558 q 422 544 469 558 l 421 545 l 421 547 q 456 652 456 602 l 456 667 q 410 787 456 707 q 396 895 396 831 l 396 921 q 266 850 328 895 q 153 714 175 779 m 586 1257 l 586 1255 q 518 1216 535 1240 q 487 1113 487 1172 q 490 1088 488 1094 l 489 1088 l 484 1088 q 437 1072 463 1088 q 358 1054 407 1054 l 346 1054 q 263 1078 295 1054 q 284 1106 284 1088 q 220 1140 284 1130 l 216 1140 q 129 1066 172 1140 l 128 1066 l 128 1067 q 184 1188 144 1145 q 224 1228 205 1216 l 227 1228 q 223 1204 223 1215 l 223 1202 q 245 1190 223 1190 q 322 1165 301 1181 q 351 1124 339 1147 q 376 1116 359 1116 l 381 1116 q 418 1129 418 1121 q 423 1141 423 1134 q 407 1179 423 1154 l 407 1180 l 432 1176 q 477 1203 465 1176 q 578 1257 518 1257 l 586 1257 z "},"Ö":{"ha":689,"x_min":6,"x_max":707,"o":"m 567 1093 l 567 1092 q 486 877 486 973 q 665 654 486 731 l 665 650 q 620 568 620 623 l 626 503 q 585 332 626 448 l 582 300 l 582 296 l 588 231 l 588 225 q 480 66 588 170 l 480 67 q 517 187 517 131 q 479 271 517 256 l 467 273 q 389 193 429 273 q 376 149 376 168 q 465 -11 376 87 l 461 -11 q 328 87 405 13 q 275 193 285 136 l 260 281 q 212 313 247 313 q 175 286 186 313 l 170 258 q 201 171 170 220 l 199 171 q 125 314 125 231 l 134 412 q 74 527 134 472 q 115 583 115 549 l 115 591 q 83 647 106 647 l 79 647 q 9 585 51 647 l 6 585 q 52 755 22 706 q 172 891 63 783 q 360 1013 275 972 q 567 1093 451 1057 m 153 714 q 203 618 203 661 l 201 610 q 224 604 212 604 q 358 732 288 604 l 360 732 l 360 730 q 319 593 342 649 q 252 509 309 569 q 226 419 226 468 l 228 419 q 330 366 273 417 q 357 307 357 328 q 492 394 447 394 l 497 396 q 536 511 528 412 q 491 558 536 558 q 422 544 469 558 l 421 545 l 421 547 q 456 652 456 602 l 456 667 q 410 787 456 707 q 396 895 396 831 l 396 921 q 266 850 328 895 q 153 714 175 779 m 366 1257 l 367 1257 l 367 1256 q 354 1222 354 1238 q 380 1185 354 1198 q 392 1183 385 1183 q 432 1189 408 1183 q 445 1154 445 1173 q 408 1074 445 1120 q 328 1096 368 1096 l 313 1096 l 285 1094 q 338 1115 312 1115 l 356 1115 q 368 1124 368 1117 l 368 1131 q 335 1158 355 1158 l 330 1158 q 302 1149 317 1158 l 299 1155 l 299 1161 q 366 1257 299 1211 m 706 1217 l 707 1216 l 707 1215 q 671 1206 684 1216 q 655 1164 651 1193 q 661 1153 656 1159 q 688 1124 669 1140 q 668 1093 684 1104 q 581 1078 640 1074 q 553 1156 576 1123 l 545 1168 l 527 1190 q 574 1158 559 1179 l 585 1143 q 599 1139 593 1135 l 604 1143 q 608 1185 619 1169 l 605 1190 q 582 1208 597 1200 l 585 1213 l 589 1217 q 706 1217 631 1245 z "},"×":{"ha":682,"x_min":43,"x_max":633,"o":"m 296 616 q 150 663 233 669 l 138 660 q 132 594 131 652 l 130 594 q 70 702 103 669 l 68 703 q 43 721 59 712 l 44 723 q 132 762 75 744 l 168 788 q 191 819 188 811 l 194 820 q 228 768 201 794 l 234 762 q 352 686 280 718 q 363 662 353 671 q 387 647 374 651 l 405 663 q 480 821 479 726 l 479 832 q 414 844 471 840 l 414 847 q 527 897 492 866 l 528 898 q 548 920 538 906 l 550 920 q 581 828 568 887 l 604 791 q 633 765 625 768 l 632 762 q 578 732 606 756 l 572 726 q 484 616 523 685 q 481 616 483 616 q 471 606 476 611 q 471 537 446 562 l 478 531 q 596 551 513 497 l 601 555 l 604 553 q 506 378 572 446 q 405 308 467 338 l 403 310 q 445 433 441 356 q 434 470 444 457 q 414 486 423 477 q 336 507 387 500 q 283 467 312 495 l 276 461 q 284 342 239 429 l 289 337 l 286 334 q 121 448 183 376 q 60 554 85 490 l 63 557 q 180 503 106 515 q 224 514 210 503 q 296 616 275 563 z "},"Ø":{"ha":689,"x_min":-3,"x_max":665,"o":"m 233 467 q 227 438 231 452 q 226 419 226 429 l 228 419 q 330 366 273 417 q 357 307 357 328 q 492 394 447 394 l 497 396 q 536 511 528 412 q 491 558 536 558 q 422 544 469 558 l 421 545 l 421 547 q 444 591 435 570 q 327 534 378 547 q 258 515 286 533 l 257 514 q 252 509 254 512 q 233 467 239 489 m 123 462 q 74 527 109 495 q 115 583 115 549 l 115 591 q 83 647 106 647 l 79 647 q 9 585 51 647 l 6 585 q 52 755 22 706 q 172 891 63 783 q 360 1013 275 972 q 567 1093 451 1057 l 567 1092 q 486 877 486 973 q 500 800 486 836 q 599 981 549 866 l 622 1044 l 622 1043 q 566 850 606 958 q 524 757 543 793 q 665 654 568 695 l 665 650 q 620 568 620 623 l 626 503 q 585 332 626 448 l 582 300 l 582 296 l 588 231 l 588 225 q 480 66 588 170 l 480 67 q 517 187 517 131 q 479 271 517 256 l 467 273 q 389 193 429 273 q 376 149 376 168 q 465 -11 376 87 l 461 -11 q 328 87 405 13 q 275 193 285 136 l 260 281 q 212 313 247 313 q 175 286 186 313 l 170 258 q 201 171 170 220 l 199 171 q 126 302 131 227 q 98 277 113 290 q 7 159 39 222 l -2 136 l -3 138 q 83 321 24 261 q 130 368 100 340 l 134 412 q 132 431 134 422 q 62 351 98 405 q 113 449 89 419 q 123 462 117 455 m 427 755 q 410 787 419 770 q 396 895 396 831 l 396 921 q 266 850 328 895 q 153 714 175 779 q 203 618 203 661 l 201 610 q 224 604 212 604 q 270 620 247 604 l 271 623 l 272 624 q 274 623 273 623 q 332 688 302 644 q 296 683 319 689 l 296 684 l 298 687 l 336 712 q 353 724 345 718 q 358 732 356 728 l 360 732 l 360 730 q 359 727 359 728 q 427 755 397 749 m 456 673 q 387 677 418 697 q 342 604 371 623 l 345 594 l 345 591 q 438 591 355 564 l 445 594 q 456 652 456 624 l 456 673 z "},"Ù":{"ha":743,"x_min":-1,"x_max":693,"o":"m 455 1228 l 457 1228 q 581 1124 500 1206 q 693 866 693 995 l 693 853 q 688 797 693 825 l 685 797 q 627 878 665 878 q 587 845 599 878 l 584 823 q 639 773 584 781 q 585 604 585 649 q 613 450 595 473 q 664 404 640 404 q 690 321 690 370 l 690 304 q 653 114 690 235 q 645 96 650 114 l 642 96 l 642 112 q 571 262 642 200 q 481 291 519 291 l 475 291 q 410 268 446 291 q 363 167 380 245 q 354 94 354 130 l 354 79 q 416 -64 354 -4 l 414 -64 q 286 71 321 -18 q 259 189 271 106 q 224 289 259 222 q 184 317 201 317 l 179 317 q 124 263 147 317 q 119 231 119 252 l 119 227 q 137 149 119 191 l 136 148 l 134 148 q 69 284 69 200 l 69 300 q 92 411 69 343 l 97 447 q 29 488 62 488 l 16 492 l 16 493 q 92 566 92 524 l 92 577 q 63 641 92 603 q 106 707 106 666 q 81 755 102 755 l 77 755 q 0 696 54 755 l -1 696 q 102 903 35 842 q 262 1037 224 1021 l 262 1035 q 153 808 153 891 q 190 739 182 779 q 199 715 190 715 l 212 713 q 362 839 273 713 l 362 838 q 269 659 319 711 q 190 492 216 610 q 312 332 229 428 q 349 345 340 332 q 388 410 375 401 l 393 413 q 473 389 420 397 l 507 395 l 507 406 l 508 408 l 507 413 q 468 572 507 549 l 454 577 q 496 669 483 629 q 436 802 496 743 q 420 845 420 820 l 420 855 q 477 953 420 917 l 481 953 l 481 951 q 460 890 460 920 q 488 834 464 842 l 490 834 q 537 927 514 834 q 542 977 542 951 l 542 981 q 455 1226 542 1101 l 455 1228 m 238 1213 l 245 1204 l 248 1201 l 248 1200 q 211 1193 222 1198 l 207 1191 l 201 1187 q 208 1133 181 1160 l 210 1131 q 401 1043 252 1086 l 402 1042 l 400 1041 l 398 1041 q 267 1061 296 1050 q 134 1129 180 1081 q 109 1172 114 1150 l 137 1188 q 138 1233 159 1211 l 136 1235 q 98 1255 125 1247 l 96 1257 q 238 1213 202 1250 z "},"Ú":{"ha":743,"x_min":-1,"x_max":693,"o":"m 455 1228 l 457 1228 q 581 1124 500 1206 q 693 866 693 995 l 693 853 q 688 797 693 825 l 685 797 q 627 878 665 878 q 587 845 599 878 l 584 823 q 639 773 584 781 q 585 604 585 649 q 613 450 595 473 q 664 404 640 404 q 690 321 690 370 l 690 304 q 653 114 690 235 q 645 96 650 114 l 642 96 l 642 112 q 571 262 642 200 q 481 291 519 291 l 475 291 q 410 268 446 291 q 363 167 380 245 q 354 94 354 130 l 354 79 q 416 -64 354 -4 l 414 -64 q 286 71 321 -18 q 259 189 271 106 q 224 289 259 222 q 184 317 201 317 l 179 317 q 124 263 147 317 q 119 231 119 252 l 119 227 q 137 149 119 191 l 136 148 l 134 148 q 69 284 69 200 l 69 300 q 92 411 69 343 l 97 447 q 29 488 62 488 l 16 492 l 16 493 q 92 566 92 524 l 92 577 q 63 641 92 603 q 106 707 106 666 q 81 755 102 755 l 77 755 q 0 696 54 755 l -1 696 q 102 903 35 842 q 262 1037 224 1021 l 262 1035 q 153 808 153 891 q 190 739 182 779 q 199 715 190 715 l 212 713 q 362 839 273 713 l 362 838 q 269 659 319 711 q 190 492 216 610 q 312 332 229 428 q 349 345 340 332 q 388 410 375 401 l 393 413 q 473 389 420 397 l 507 395 l 507 406 l 508 408 l 507 413 q 468 572 507 549 l 454 577 q 496 669 483 629 q 436 802 496 743 q 420 845 420 820 l 420 855 q 477 953 420 917 l 481 953 l 481 951 q 460 890 460 920 q 488 834 464 842 l 490 834 q 537 927 514 834 q 542 977 542 951 l 542 981 q 455 1226 542 1101 l 455 1228 m 462 1257 l 460 1255 q 422 1235 433 1247 l 420 1233 q 421 1188 399 1211 l 450 1172 q 424 1129 444 1150 q 291 1061 378 1081 q 160 1041 262 1050 l 158 1041 l 156 1042 l 157 1043 q 348 1131 306 1086 l 351 1133 q 357 1187 377 1160 l 351 1191 l 347 1193 q 310 1200 336 1198 l 311 1201 l 313 1204 l 320 1213 q 462 1257 356 1250 z "},"Û":{"ha":743,"x_min":-1,"x_max":693,"o":"m 455 1228 l 457 1228 q 581 1124 500 1206 q 693 866 693 995 l 693 853 q 688 797 693 825 l 685 797 q 627 878 665 878 q 587 845 599 878 l 584 823 q 639 773 584 781 q 585 604 585 649 q 613 450 595 473 q 664 404 640 404 q 690 321 690 370 l 690 304 q 653 114 690 235 q 645 96 650 114 l 642 96 l 642 112 q 571 262 642 200 q 481 291 519 291 l 475 291 q 410 268 446 291 q 363 167 380 245 q 354 94 354 130 l 354 79 q 416 -64 354 -4 l 414 -64 q 286 71 321 -18 q 259 189 271 106 q 224 289 259 222 q 184 317 201 317 l 179 317 q 124 263 147 317 q 119 231 119 252 l 119 227 q 137 149 119 191 l 136 148 l 134 148 q 69 284 69 200 l 69 300 q 92 411 69 343 l 97 447 q 29 488 62 488 l 16 492 l 16 493 q 92 566 92 524 l 92 577 q 63 641 92 603 q 106 707 106 666 q 81 755 102 755 l 77 755 q 0 696 54 755 l -1 696 q 102 903 35 842 q 262 1037 224 1021 l 262 1035 q 153 808 153 891 q 190 739 182 779 q 199 715 190 715 l 212 713 q 362 839 273 713 l 362 838 q 269 659 319 711 q 190 492 216 610 q 312 332 229 428 q 349 345 340 332 q 388 410 375 401 l 393 413 q 473 389 420 397 l 507 395 l 507 406 l 508 408 l 507 413 q 468 572 507 549 l 454 577 q 496 669 483 629 q 436 802 496 743 q 420 845 420 820 l 420 855 q 477 953 420 917 l 481 953 l 481 951 q 460 890 460 920 q 488 834 464 842 l 490 834 q 537 927 514 834 q 542 977 542 951 l 542 981 q 455 1226 542 1101 l 455 1228 m 352 1257 l 352 1256 q 294 1177 294 1214 l 297 1177 q 347 1217 322 1177 q 413 1159 366 1207 q 456 1057 456 1104 l 456 1057 q 337 1159 425 1114 q 275 1131 304 1131 l 248 1125 q 176 1070 220 1116 q 163 1053 171 1067 l 161 1053 q 343 1255 161 1168 l 352 1257 z "},"Ü":{"ha":743,"x_min":-1,"x_max":693,"o":"m 455 1228 l 457 1228 q 581 1124 500 1206 q 693 866 693 995 l 693 853 q 688 797 693 825 l 685 797 q 627 878 665 878 q 587 845 599 878 l 584 823 q 639 773 584 781 q 585 604 585 649 q 613 450 595 473 q 664 404 640 404 q 690 321 690 370 l 690 304 q 653 114 690 235 q 645 96 650 114 l 642 96 l 642 112 q 571 262 642 200 q 481 291 519 291 l 475 291 q 410 268 446 291 q 363 167 380 245 q 354 94 354 130 l 354 79 q 416 -64 354 -4 l 414 -64 q 286 71 321 -18 q 259 189 271 106 q 224 289 259 222 q 184 317 201 317 l 179 317 q 124 263 147 317 q 119 231 119 252 l 119 227 q 137 149 119 191 l 136 148 l 134 148 q 69 284 69 200 l 69 300 q 92 411 69 343 l 97 447 q 29 488 62 488 l 16 492 l 16 493 q 92 566 92 524 l 92 577 q 63 641 92 603 q 106 707 106 666 q 81 755 102 755 l 77 755 q 0 696 54 755 l -1 696 q 102 903 35 842 q 262 1037 224 1021 l 262 1035 q 153 808 153 891 q 190 739 182 779 q 199 715 190 715 l 212 713 q 362 839 273 713 l 362 838 q 269 659 319 711 q 190 492 216 610 q 312 332 229 428 q 349 345 340 332 q 388 410 375 401 l 393 413 q 473 389 420 397 l 507 395 l 507 406 l 508 408 l 507 413 q 468 572 507 549 l 454 577 q 496 669 483 629 q 436 802 496 743 q 420 845 420 820 l 420 855 q 477 953 420 917 l 481 953 l 481 951 q 460 890 460 920 q 488 834 464 842 l 490 834 q 537 927 514 834 q 542 977 542 951 l 542 981 q 455 1226 542 1101 l 455 1228 m 156 1257 l 157 1257 l 157 1256 q 144 1222 144 1238 q 171 1185 144 1198 q 182 1183 175 1183 q 222 1189 198 1183 q 235 1154 235 1173 q 198 1074 235 1120 q 118 1096 159 1096 l 104 1096 l 75 1094 q 128 1115 102 1115 l 146 1115 q 159 1124 159 1117 l 159 1131 q 125 1158 145 1158 l 120 1158 q 92 1149 108 1158 l 90 1155 l 90 1161 q 156 1257 90 1211 m 496 1217 l 498 1216 l 497 1215 q 461 1206 474 1216 q 446 1164 441 1193 q 451 1153 447 1159 q 479 1124 460 1140 q 458 1093 474 1104 q 371 1078 431 1074 q 343 1156 366 1123 l 335 1168 l 317 1190 q 364 1158 350 1179 l 375 1143 q 389 1139 383 1135 l 395 1143 q 398 1185 410 1169 l 395 1190 q 372 1208 388 1200 l 375 1213 l 380 1217 q 496 1217 421 1245 z "},"Ý":{"ha":706,"x_min":17,"x_max":686,"o":"m 440 1152 l 440 1149 q 176 838 176 1010 q 222 746 222 790 q 276 733 253 733 l 286 733 q 327 764 313 733 l 330 786 l 330 794 q 322 846 330 820 l 323 848 l 326 848 q 380 770 380 802 q 357 694 357 749 q 369 646 357 665 l 373 646 q 557 775 437 734 q 515 862 553 800 q 463 903 484 903 l 462 903 l 395 891 l 395 894 q 469 972 456 938 q 494 1026 479 981 l 496 1026 q 600 875 577 943 q 683 804 633 804 q 686 786 686 798 l 686 766 q 602 559 686 665 l 599 559 q 606 618 604 585 q 567 685 606 676 l 564 685 q 469 630 528 685 q 422 576 442 601 l 422 574 l 436 572 q 505 619 476 572 l 507 619 q 515 536 515 566 q 463 406 515 449 l 463 404 l 459 404 l 459 406 l 468 458 q 436 508 463 508 l 430 510 l 427 510 q 365 450 387 510 q 355 391 355 412 q 421 320 376 340 q 503 296 452 306 q 515 229 515 264 l 515 220 q 284 -104 515 65 l 281 -104 l 281 -103 q 421 199 421 112 l 421 214 l 387 230 q 317 283 355 244 q 218 232 278 279 q 151 146 161 174 l 148 146 q 267 376 148 247 l 267 385 q 290 547 267 491 q 260 633 260 584 l 260 642 l 262 650 q 184 679 225 679 l 163 679 q 96 666 138 679 l 96 667 q 123 717 123 696 q 76 766 123 749 l 68 766 q 20 727 40 766 l 17 727 q 176 1019 17 887 q 440 1152 307 1116 m 662 1257 l 661 1255 q 622 1235 633 1247 l 620 1233 q 621 1188 599 1211 l 650 1172 q 624 1129 644 1150 q 491 1061 578 1081 q 360 1041 462 1050 l 358 1041 l 356 1042 l 357 1043 q 548 1131 506 1086 l 551 1133 q 557 1187 577 1160 l 551 1191 l 547 1193 q 510 1200 536 1198 l 511 1201 l 513 1204 l 520 1213 q 662 1257 556 1250 z "},"Þ":{"ha":713,"x_min":3,"x_max":681,"o":"m 182 834 l 182 833 l 182 832 l 182 834 m 237 984 q 416 1041 314 1018 q 528 1059 505 1059 l 528 1055 q 448 995 448 1019 l 448 990 q 583 886 502 967 q 681 648 681 777 l 681 646 l 679 640 l 676 640 q 626 677 649 677 q 580 635 599 677 l 580 628 q 616 581 580 608 q 469 362 616 540 q 426 235 426 298 l 426 216 q 545 -43 426 101 l 543 -43 q 388 81 486 -12 q 306 241 327 146 q 252 330 292 330 q 209 309 229 330 q 229 267 223 288 q 222 15 253 168 q 225 -182 202 -90 l 237 -213 l 235 -212 q 159 50 144 -60 q 171 145 162 85 q 117 216 129 190 q 115 220 116 218 l 114 218 q 101 64 92 161 q 68 208 67 158 q 78 294 64 243 q 58 385 58 344 l 60 409 q 109 429 89 414 q 107 460 109 444 l 92 517 l 92 518 q 130 549 119 519 l 133 555 q 127 636 148 625 l 126 637 q 63 600 107 646 l 62 600 l 61 605 l 83 661 q 92 683 88 673 q 75 693 84 688 l 75 694 q 98 696 88 694 q 127 746 112 725 q 90 773 115 773 q 7 709 54 773 l 3 709 l 3 710 q 102 902 3 807 q 193 963 141 936 q 144 1154 179 1047 l 109 1238 l 111 1238 q 235 989 176 1136 q 237 984 235 987 m 209 465 q 197 435 203 450 l 213 435 q 344 395 292 435 q 355 383 355 386 l 357 383 l 499 572 q 427 620 469 620 l 424 620 q 355 595 391 620 l 353 595 l 353 597 q 413 667 387 649 l 494 708 q 557 758 525 728 q 351 908 490 859 q 202 861 271 885 q 218 786 216 816 q 216 726 219 749 q 254 757 237 731 l 258 757 q 243 555 263 663 q 319 618 275 573 l 326 628 l 330 627 q 225 475 283 529 q 209 465 216 470 z "},"ß":{"ha":671,"x_min":-125,"x_max":620,"o":"m 573 1105 l 573 1104 q 496 1019 496 1055 q 512 918 512 971 q 425 670 512 798 l 425 668 l 436 668 q 518 641 481 668 q 573 694 541 641 q 595 789 595 749 l 597 791 l 600 791 q 614 724 614 757 q 589 600 614 690 l 586 578 q 613 481 586 547 q 620 431 620 458 l 620 424 q 599 292 620 370 l 595 292 l 595 298 q 565 370 595 370 q 503 307 530 370 q 496 237 497 294 q 408 114 479 174 q 354 75 370 81 l 354 77 q 423 205 422 163 l 423 214 q 338 264 423 251 l 336 264 q 290 237 320 264 q 286 273 286 242 l 286 288 q 391 551 286 422 l 391 549 q 364 427 364 480 q 391 357 364 374 l 431 364 q 469 431 435 395 q 515 453 496 449 q 454 564 498 530 q 347 612 397 612 q 290 600 304 600 l 287 600 q 261 607 263 601 q 372 745 307 618 q 409 871 409 825 l 410 893 l 408 934 q 308 892 367 934 q 229 784 250 836 q 182 612 186 674 q 216 410 202 410 q 242 370 221 395 q 197 260 212 342 l 195 245 q 239 178 195 203 q 252 159 252 165 l 250 159 q 213 168 227 168 q 160 153 178 163 q 115 72 120 113 q 7 -50 83 -9 q -109 -76 -43 -76 l -125 -75 l -125 -71 l -123 -71 q -7 -16 -65 -71 q 35 112 35 35 l 35 130 l 33 140 q 92 328 92 252 l 92 331 q 57 414 92 385 q 89 514 89 457 l 89 520 q 43 656 89 591 l 43 657 q 87 697 48 657 q 132 845 104 718 q 303 1030 189 958 q 443 1083 413 1083 q 573 1105 535 1105 z "},"à":{"ha":648,"x_min":8,"x_max":628,"o":"m 551 1118 q 480 942 480 1031 q 547 732 480 859 q 627 681 584 681 l 627 678 l 628 649 q 547 441 628 523 l 545 441 l 545 443 q 557 509 557 477 q 524 547 557 547 q 464 448 478 547 l 463 429 q 522 320 463 357 q 562 311 535 314 q 580 225 580 265 q 448 -39 580 106 l 448 -40 l 444 -40 q 469 159 469 59 q 391 288 469 244 q 356 294 374 294 q 292 277 330 294 l 292 279 q 304 353 304 313 l 304 366 q 180 541 304 481 l 180 539 q 252 351 180 437 q 121 198 161 302 q 100 73 100 125 l 97 73 q 69 235 69 179 l 69 250 q 97 343 69 275 l 103 390 q 58 631 103 478 q 20 705 40 671 q 8 752 8 734 l 8 770 l 9 778 l 13 778 q 66 743 38 743 q 127 834 106 743 q 343 1011 264 964 q 546 1118 456 1084 l 551 1118 m 193 667 q 283 583 267 583 q 368 507 313 571 l 377 488 q 395 532 395 507 q 378 601 378 585 l 378 610 l 380 612 l 380 614 q 398 610 387 610 l 403 610 q 475 641 429 610 q 374 776 441 776 l 368 776 q 330 768 353 776 l 330 770 q 372 882 372 829 l 369 887 q 262 823 317 872 q 193 667 193 745 m 238 1213 l 245 1204 l 248 1201 l 248 1200 q 211 1193 222 1198 l 207 1191 l 201 1187 q 208 1133 181 1160 l 210 1131 q 401 1043 252 1086 l 402 1042 l 400 1041 l 398 1041 q 267 1061 296 1050 q 134 1129 180 1081 q 109 1172 114 1150 l 137 1188 q 138 1233 159 1211 l 136 1235 q 98 1255 125 1247 l 96 1257 q 238 1213 202 1250 z "},"á":{"ha":648,"x_min":8,"x_max":628,"o":"m 551 1118 q 480 942 480 1031 q 547 732 480 859 q 627 681 584 681 l 627 678 l 628 649 q 547 441 628 523 l 545 441 l 545 443 q 557 509 557 477 q 524 547 557 547 q 464 448 478 547 l 463 429 q 522 320 463 357 q 562 311 535 314 q 580 225 580 265 q 448 -39 580 106 l 448 -40 l 444 -40 q 469 159 469 59 q 391 288 469 244 q 356 294 374 294 q 292 277 330 294 l 292 279 q 304 353 304 313 l 304 366 q 180 541 304 481 l 180 539 q 252 351 180 437 q 121 198 161 302 q 100 73 100 125 l 97 73 q 69 235 69 179 l 69 250 q 97 343 69 275 l 103 390 q 58 631 103 478 q 20 705 40 671 q 8 752 8 734 l 8 770 l 9 778 l 13 778 q 66 743 38 743 q 127 834 106 743 q 343 1011 264 964 q 546 1118 456 1084 l 551 1118 m 193 667 q 283 583 267 583 q 368 507 313 571 l 377 488 q 395 532 395 507 q 378 601 378 585 l 378 610 l 380 612 l 380 614 q 398 610 387 610 l 403 610 q 475 641 429 610 q 374 776 441 776 l 368 776 q 330 768 353 776 l 330 770 q 372 882 372 829 l 369 887 q 262 823 317 872 q 193 667 193 745 m 472 1257 l 471 1255 q 432 1235 444 1247 l 430 1233 q 431 1188 409 1211 l 460 1172 q 434 1129 454 1150 q 301 1061 388 1081 q 170 1041 272 1050 l 168 1041 l 166 1042 l 167 1043 q 358 1131 316 1086 l 361 1133 q 368 1187 387 1160 l 361 1191 l 357 1193 q 320 1200 347 1198 l 321 1201 l 323 1204 l 330 1213 q 472 1257 366 1250 z "},"â":{"ha":648,"x_min":8,"x_max":628,"o":"m 551 1118 q 480 942 480 1031 q 547 732 480 859 q 627 681 584 681 l 627 678 l 628 649 q 547 441 628 523 l 545 441 l 545 443 q 557 509 557 477 q 524 547 557 547 q 464 448 478 547 l 463 429 q 522 320 463 357 q 562 311 535 314 q 580 225 580 265 q 448 -39 580 106 l 448 -40 l 444 -40 q 469 159 469 59 q 391 288 469 244 q 356 294 374 294 q 292 277 330 294 l 292 279 q 304 353 304 313 l 304 366 q 180 541 304 481 l 180 539 q 252 351 180 437 q 121 198 161 302 q 100 73 100 125 l 97 73 q 69 235 69 179 l 69 250 q 97 343 69 275 l 103 390 q 58 631 103 478 q 20 705 40 671 q 8 752 8 734 l 8 770 l 9 778 l 13 778 q 66 743 38 743 q 127 834 106 743 q 343 1011 264 964 q 546 1118 456 1084 l 551 1118 m 193 667 q 283 583 267 583 q 368 507 313 571 l 377 488 q 395 532 395 507 q 378 601 378 585 l 378 610 l 380 612 l 380 614 q 398 610 387 610 l 403 610 q 475 641 429 610 q 374 776 441 776 l 368 776 q 330 768 353 776 l 330 770 q 372 882 372 829 l 369 887 q 262 823 317 872 q 193 667 193 745 m 507 1257 l 507 1256 q 448 1177 448 1214 l 452 1177 q 502 1217 477 1177 q 568 1159 521 1207 q 611 1057 611 1104 l 610 1057 q 492 1159 580 1114 q 430 1131 458 1131 l 403 1125 q 331 1070 374 1116 q 317 1053 326 1067 l 316 1053 q 498 1255 316 1168 l 507 1257 z "},"ã":{"ha":648,"x_min":8,"x_max":628,"o":"m 551 1118 q 480 942 480 1031 q 547 732 480 859 q 627 681 584 681 l 627 678 l 628 649 q 547 441 628 523 l 545 441 l 545 443 q 557 509 557 477 q 524 547 557 547 q 464 448 478 547 l 463 429 q 522 320 463 357 q 562 311 535 314 q 580 225 580 265 q 448 -39 580 106 l 448 -40 l 444 -40 q 469 159 469 59 q 391 288 469 244 q 356 294 374 294 q 292 277 330 294 l 292 279 q 304 353 304 313 l 304 366 q 180 541 304 481 l 180 539 q 252 351 180 437 q 121 198 161 302 q 100 73 100 125 l 97 73 q 69 235 69 179 l 69 250 q 97 343 69 275 l 103 390 q 58 631 103 478 q 20 705 40 671 q 8 752 8 734 l 8 770 l 9 778 l 13 778 q 66 743 38 743 q 127 834 106 743 q 343 1011 264 964 q 546 1118 456 1084 l 551 1118 m 193 667 q 283 583 267 583 q 368 507 313 571 l 377 488 q 395 532 395 507 q 378 601 378 585 l 378 610 l 380 612 l 380 614 q 398 610 387 610 l 403 610 q 475 641 429 610 q 374 776 441 776 l 368 776 q 330 768 353 776 l 330 770 q 372 882 372 829 l 369 887 q 262 823 317 872 q 193 667 193 745 m 498 1282 l 499 1280 q 439 1230 452 1257 q 427 1122 416 1180 q 435 1099 431 1103 l 434 1098 l 429 1097 q 386 1073 408 1094 q 311 1041 359 1050 l 299 1038 q 214 1047 250 1029 q 229 1079 233 1061 q 159 1101 225 1102 l 157 1100 q 83 1011 113 1092 l 83 1011 l 83 1012 q 115 1141 84 1091 q 148 1188 131 1173 l 151 1188 q 151 1164 149 1175 l 152 1162 q 176 1154 154 1150 q 256 1143 232 1156 q 292 1108 276 1129 q 317 1105 302 1102 l 323 1105 q 356 1126 358 1118 q 359 1138 361 1131 q 336 1173 357 1152 l 336 1174 l 362 1175 q 401 1209 395 1180 q 491 1280 432 1270 l 498 1282 z "},"ä":{"ha":648,"x_min":8,"x_max":692,"o":"m 551 1118 q 480 942 480 1031 q 547 732 480 859 q 627 681 584 681 l 627 678 l 628 649 q 547 441 628 523 l 545 441 l 545 443 q 557 509 557 477 q 524 547 557 547 q 464 448 478 547 l 463 429 q 522 320 463 357 q 562 311 535 314 q 580 225 580 265 q 448 -39 580 106 l 448 -40 l 444 -40 q 469 159 469 59 q 391 288 469 244 q 356 294 374 294 q 292 277 330 294 l 292 279 q 304 353 304 313 l 304 366 q 180 541 304 481 l 180 539 q 252 351 180 437 q 121 198 161 302 q 100 73 100 125 l 97 73 q 69 235 69 179 l 69 250 q 97 343 69 275 l 103 390 q 58 631 103 478 q 20 705 40 671 q 8 752 8 734 l 8 770 l 9 778 l 13 778 q 66 743 38 743 q 127 834 106 743 q 343 1011 264 964 q 546 1118 456 1084 l 551 1118 m 193 667 q 283 583 267 583 q 368 507 313 571 l 377 488 q 395 532 395 507 q 378 601 378 585 l 378 610 l 380 612 l 380 614 q 398 610 387 610 l 403 610 q 475 641 429 610 q 374 776 441 776 l 368 776 q 330 768 353 776 l 330 770 q 372 882 372 829 l 369 887 q 262 823 317 872 q 193 667 193 745 m 351 1257 l 352 1257 l 352 1256 q 339 1222 339 1238 q 366 1185 339 1198 q 377 1183 370 1183 q 417 1189 393 1183 q 430 1154 430 1173 q 393 1074 430 1120 q 313 1096 353 1096 l 298 1096 l 270 1094 q 323 1115 297 1115 l 341 1115 q 353 1124 353 1117 l 353 1131 q 320 1158 340 1158 l 315 1158 q 287 1149 302 1158 l 284 1155 l 284 1161 q 351 1257 284 1211 m 691 1217 l 692 1216 l 692 1215 q 656 1206 669 1216 q 640 1164 636 1193 q 646 1153 642 1159 q 673 1124 654 1140 q 653 1093 669 1104 q 566 1078 625 1074 q 538 1156 561 1123 l 530 1168 l 512 1190 q 559 1158 545 1179 l 570 1143 q 584 1139 578 1135 l 589 1143 q 593 1185 604 1169 l 590 1190 q 567 1208 583 1200 l 570 1213 l 574 1217 q 691 1217 616 1245 z "},"å":{"ha":648,"x_min":8,"x_max":628,"o":"m 551 1118 q 480 942 480 1031 q 547 732 480 859 q 627 681 584 681 l 627 678 l 628 649 q 547 441 628 523 l 545 441 l 545 443 q 557 509 557 477 q 524 547 557 547 q 464 448 478 547 l 463 429 q 522 320 463 357 q 562 311 535 314 q 580 225 580 265 q 448 -39 580 106 l 448 -40 l 444 -40 q 469 159 469 59 q 391 288 469 244 q 356 294 374 294 q 292 277 330 294 l 292 279 q 304 353 304 313 l 304 366 q 180 541 304 481 l 180 539 q 252 351 180 437 q 121 198 161 302 q 100 73 100 125 l 97 73 q 69 235 69 179 l 69 250 q 97 343 69 275 l 103 390 q 58 631 103 478 q 20 705 40 671 q 8 752 8 734 l 8 770 l 9 778 l 13 778 q 66 743 38 743 q 127 834 106 743 q 343 1011 264 964 q 546 1118 456 1084 l 551 1118 m 193 667 q 283 583 267 583 q 368 507 313 571 l 377 488 q 395 532 395 507 q 378 601 378 585 l 378 610 l 380 612 l 380 614 q 398 610 387 610 l 403 610 q 475 641 429 610 q 374 776 441 776 l 368 776 q 330 768 353 776 l 330 770 q 372 882 372 829 l 369 887 q 262 823 317 872 q 193 667 193 745 m 264 1165 q 273 1234 260 1200 l 277 1257 l 277 1257 q 324 1243 292 1245 q 389 1254 364 1240 l 393 1257 l 395 1258 q 428 1221 414 1247 q 450 1124 452 1179 q 452 1105 451 1115 l 457 1083 l 457 1082 q 445 1084 452 1084 q 422 1006 438 1040 l 421 1006 l 421 1006 q 423 1082 425 1049 q 408 1078 416 1080 q 353 1041 370 1064 l 351 1036 l 350 1036 q 304 1056 328 1038 q 235 1173 252 1095 q 224 1255 223 1217 l 224 1256 l 225 1256 q 264 1165 244 1200 m 395 1181 q 381 1192 388 1190 l 340 1196 l 338 1200 l 325 1195 q 292 1127 302 1182 q 304 1116 298 1120 l 309 1113 q 336 1101 324 1101 l 375 1114 l 378 1112 l 389 1121 q 395 1181 402 1139 z "},"æ":{"ha":1026,"x_min":8,"x_max":998,"o":"m 193 667 q 283 583 267 583 q 368 507 313 571 l 377 488 q 395 532 395 507 q 378 601 378 585 l 378 610 l 380 612 l 380 614 q 398 610 387 610 l 403 610 q 475 641 429 610 q 374 776 441 776 l 368 776 q 330 768 353 776 l 330 770 q 372 882 372 829 l 369 887 q 262 823 317 872 q 193 667 193 745 m 626 681 q 696 711 654 700 q 768 803 741 733 q 771 808 768 808 l 772 808 q 776 766 777 785 q 723 635 774 711 q 689 486 692 572 l 688 458 l 688 410 l 685 410 q 640 574 637 501 l 640 597 q 629 604 641 600 q 625 603 627 604 q 547 441 613 507 l 545 441 l 545 443 q 557 509 557 477 q 524 547 557 547 q 464 448 478 547 l 463 434 q 657 336 602 336 l 663 336 q 796 450 723 422 l 812 446 l 829 446 q 995 502 870 446 l 998 500 q 972 433 974 464 l 972 429 l 976 351 q 823 180 972 235 l 819 180 q 899 298 888 229 q 866 351 888 351 q 832 359 850 359 q 743 209 745 266 q 669 71 716 128 q 519 -48 606 -5 l 517 -48 l 517 -47 q 611 135 591 38 q 608 224 626 188 q 391 288 481 330 q 292 277 331 311 l 292 279 q 304 353 304 313 l 304 366 q 180 541 304 481 l 180 539 q 252 351 180 437 q 121 198 161 302 q 100 73 100 125 l 97 73 q 69 235 69 179 l 69 250 q 97 343 69 275 l 103 390 q 58 631 103 478 q 20 705 40 671 q 8 752 8 734 l 8 770 l 9 778 l 13 778 q 66 743 38 743 q 127 834 106 743 q 343 1011 264 964 q 546 1118 456 1084 l 551 1118 q 480 942 480 1031 q 481 921 480 932 q 488 928 485 924 q 769 1100 621 1042 l 819 1118 l 819 1114 q 759 1031 760 1069 q 884 939 813 1010 q 962 783 946 863 q 837 651 871 730 l 833 617 l 835 581 q 798 667 797 614 l 799 684 l 821 719 q 844 808 842 757 q 787 889 834 841 q 694 945 735 935 q 545 834 587 902 l 515 800 q 547 732 528 768 q 626 681 584 681 z "},"ç":{"ha":631,"x_min":-27,"x_max":625,"o":"m 271 75 q 274 113 274 94 q 168 310 274 224 q 90 491 90 392 q 74 597 83 597 q 15 665 68 615 l 15 667 l 17 667 q 108 704 89 667 l 110 714 l 110 717 q 66 769 102 769 q -27 719 33 769 l -27 720 q 233 1018 40 895 q 435 1114 363 1097 q 376 1026 376 1063 q 503 935 422 1013 q 567 839 547 879 q 625 798 598 803 l 625 797 q 526 735 574 735 q 446 684 486 722 q 396 595 408 636 l 395 595 q 391 600 391 595 l 389 625 q 448 789 389 694 l 453 814 l 453 817 q 324 934 453 868 l 316 935 q 196 861 262 920 q 170 826 178 840 q 205 735 205 785 l 205 727 q 170 626 205 680 q 220 435 174 531 q 289 354 240 399 q 330 333 323 333 q 373 448 344 424 q 419 431 392 431 l 420 431 q 560 522 479 431 l 562 522 q 552 448 552 478 q 611 372 552 372 l 612 372 l 612 370 q 505 198 580 252 q 452 172 465 173 l 452 174 q 507 273 507 225 l 507 277 q 353 81 376 161 l 351 73 q 351 23 342 41 l 394 -31 l 392 -37 l 414 -47 q 565 20 465 -61 l 568 19 l 568 18 q 429 -155 532 -110 l 397 -177 l 396 -177 q 357 -104 393 -145 q 267 -41 314 -54 l 258 -40 l 256 -40 q 254 -31 255 -36 q 216 -58 236 -46 l 216 -56 q 254 15 240 -20 q 260 44 256 29 q 271 75 264 60 m 505 286 q 473 333 500 317 l 471 333 q 397 239 429 333 q 395 222 396 230 q 399 224 397 223 q 505 286 453 264 z "},"è":{"ha":659,"x_min":1,"x_max":620,"o":"m 476 1118 l 476 1114 q 416 1031 418 1069 q 541 939 471 1010 q 620 783 604 863 q 494 651 528 730 l 491 617 l 492 581 q 456 667 454 614 l 456 684 l 479 719 q 501 808 500 757 q 445 889 492 841 q 352 945 393 935 q 203 834 244 902 q 239 741 241 789 l 235 717 q 272 680 251 693 q 356 722 302 708 q 428 814 401 744 q 431 819 428 819 l 433 819 q 436 777 437 795 q 383 646 435 722 q 349 497 352 583 l 349 469 l 349 421 l 345 421 q 300 585 298 512 l 300 608 q 289 614 301 610 q 245 572 270 614 l 245 571 l 242 571 l 202 611 l 202 608 q 226 465 200 534 q 232 415 233 440 l 232 405 q 336 336 292 336 l 342 336 q 449 450 390 422 l 462 446 l 475 446 q 610 502 509 446 l 612 500 q 591 433 593 464 l 591 429 l 594 351 q 471 180 591 235 l 467 180 q 525 281 524 229 q 498 334 516 334 q 471 342 486 342 q 406 209 408 266 q 347 71 385 128 q 225 -48 295 -5 l 224 -48 l 224 -47 q 286 121 283 38 q 120 325 291 274 q 105 330 113 325 q 125 391 124 364 q 108 578 113 456 q 64 651 98 623 l 44 672 l 44 673 q 135 707 109 673 l 140 725 q 96 777 132 777 q 3 728 62 777 l 1 728 l 1 730 q 138 921 35 815 q 427 1100 275 1041 l 476 1118 m 153 1213 l 160 1204 l 162 1201 l 163 1200 q 125 1193 136 1198 l 121 1191 l 115 1187 q 122 1133 96 1160 l 125 1131 q 316 1043 167 1086 l 317 1042 l 315 1041 l 313 1041 q 182 1061 211 1050 q 49 1129 95 1081 q 23 1172 28 1150 l 52 1188 q 53 1233 74 1211 l 51 1235 q 12 1255 39 1247 l 11 1257 q 153 1213 117 1250 z "},"é":{"ha":659,"x_min":1,"x_max":620,"o":"m 476 1118 l 476 1114 q 416 1031 418 1069 q 541 939 471 1010 q 620 783 604 863 q 494 651 528 730 l 491 617 l 492 581 q 456 667 454 614 l 456 684 l 479 719 q 501 808 500 757 q 445 889 492 841 q 352 945 393 935 q 203 834 244 902 q 239 741 241 789 l 235 717 q 272 680 251 693 q 356 722 302 708 q 428 814 401 744 q 431 819 428 819 l 433 819 q 436 777 437 795 q 383 646 435 722 q 349 497 352 583 l 349 469 l 349 421 l 345 421 q 300 585 298 512 l 300 608 q 289 614 301 610 q 245 572 270 614 l 245 571 l 242 571 l 202 611 l 202 608 q 226 465 200 534 q 232 415 233 440 l 232 405 q 336 336 292 336 l 342 336 q 449 450 390 422 l 462 446 l 475 446 q 610 502 509 446 l 612 500 q 591 433 593 464 l 591 429 l 594 351 q 471 180 591 235 l 467 180 q 525 281 524 229 q 498 334 516 334 q 471 342 486 342 q 406 209 408 266 q 347 71 385 128 q 225 -48 295 -5 l 224 -48 l 224 -47 q 286 121 283 38 q 120 325 291 274 q 105 330 113 325 q 125 391 124 364 q 108 578 113 456 q 64 651 98 623 l 44 672 l 44 673 q 135 707 109 673 l 140 725 q 96 777 132 777 q 3 728 62 777 l 1 728 l 1 730 q 138 921 35 815 q 427 1100 275 1041 l 476 1118 m 432 1257 l 431 1255 q 392 1235 404 1247 l 390 1233 q 391 1188 369 1211 l 420 1172 q 394 1129 414 1150 q 261 1061 348 1081 q 130 1041 232 1050 l 128 1041 l 126 1042 l 127 1043 q 318 1131 276 1086 l 321 1133 q 328 1187 347 1160 l 321 1191 l 317 1193 q 280 1200 307 1198 l 281 1201 l 283 1204 l 290 1213 q 432 1257 326 1250 z "},"ê":{"ha":659,"x_min":1,"x_max":620,"o":"m 476 1118 l 476 1114 q 416 1031 418 1069 q 541 939 471 1010 q 620 783 604 863 q 494 651 528 730 l 491 617 l 492 581 q 456 667 454 614 l 456 684 l 479 719 q 501 808 500 757 q 445 889 492 841 q 352 945 393 935 q 203 834 244 902 q 239 741 241 789 l 235 717 q 272 680 251 693 q 356 722 302 708 q 428 814 401 744 q 431 819 428 819 l 433 819 q 436 777 437 795 q 383 646 435 722 q 349 497 352 583 l 349 469 l 349 421 l 345 421 q 300 585 298 512 l 300 608 q 289 614 301 610 q 245 572 270 614 l 245 571 l 242 571 l 202 611 l 202 608 q 226 465 200 534 q 232 415 233 440 l 232 405 q 336 336 292 336 l 342 336 q 449 450 390 422 l 462 446 l 475 446 q 610 502 509 446 l 612 500 q 591 433 593 464 l 591 429 l 594 351 q 471 180 591 235 l 467 180 q 525 281 524 229 q 498 334 516 334 q 471 342 486 342 q 406 209 408 266 q 347 71 385 128 q 225 -48 295 -5 l 224 -48 l 224 -47 q 286 121 283 38 q 120 325 291 274 q 105 330 113 325 q 125 391 124 364 q 108 578 113 456 q 64 651 98 623 l 44 672 l 44 673 q 135 707 109 673 l 140 725 q 96 777 132 777 q 3 728 62 777 l 1 728 l 1 730 q 138 921 35 815 q 427 1100 275 1041 l 476 1118 m 446 1257 l 446 1256 q 388 1177 388 1214 l 391 1177 q 441 1217 416 1177 q 507 1159 460 1207 q 551 1057 551 1104 l 550 1057 q 431 1159 519 1114 q 370 1131 398 1131 l 342 1125 q 271 1070 314 1116 q 257 1053 265 1067 l 256 1053 q 437 1255 256 1168 l 446 1257 z "},"ë":{"ha":659,"x_min":1,"x_max":620,"o":"m 476 1118 l 476 1114 q 416 1031 418 1069 q 541 939 471 1010 q 620 783 604 863 q 494 651 528 730 l 491 617 l 492 581 q 456 667 454 614 l 456 684 l 479 719 q 501 808 500 757 q 445 889 492 841 q 352 945 393 935 q 203 834 244 902 q 239 741 241 789 l 235 717 q 272 680 251 693 q 356 722 302 708 q 428 814 401 744 q 431 819 428 819 l 433 819 q 436 777 437 795 q 383 646 435 722 q 349 497 352 583 l 349 469 l 349 421 l 345 421 q 300 585 298 512 l 300 608 q 289 614 301 610 q 245 572 270 614 l 245 571 l 242 571 l 202 611 l 202 608 q 226 465 200 534 q 232 415 233 440 l 232 405 q 336 336 292 336 l 342 336 q 449 450 390 422 l 462 446 l 475 446 q 610 502 509 446 l 612 500 q 591 433 593 464 l 591 429 l 594 351 q 471 180 591 235 l 467 180 q 525 281 524 229 q 498 334 516 334 q 471 342 486 342 q 406 209 408 266 q 347 71 385 128 q 225 -48 295 -5 l 224 -48 l 224 -47 q 286 121 283 38 q 120 325 291 274 q 105 330 113 325 q 125 391 124 364 q 108 578 113 456 q 64 651 98 623 l 44 672 l 44 673 q 135 707 109 673 l 140 725 q 96 777 132 777 q 3 728 62 777 l 1 728 l 1 730 q 138 921 35 815 q 427 1100 275 1041 l 476 1118 m 271 1257 l 272 1257 l 272 1256 q 259 1222 259 1238 q 286 1185 259 1198 q 297 1183 290 1183 q 337 1189 313 1183 q 350 1154 350 1173 q 313 1074 350 1120 q 233 1096 273 1096 l 218 1096 l 190 1094 q 243 1115 217 1115 l 261 1115 q 273 1124 273 1117 l 273 1131 q 240 1158 260 1158 l 235 1158 q 207 1149 222 1158 l 204 1155 l 204 1161 q 271 1257 204 1211 m 611 1217 l 612 1216 l 612 1215 q 576 1206 589 1216 q 560 1164 556 1193 q 566 1153 562 1159 q 593 1124 574 1140 q 573 1093 589 1104 q 486 1078 545 1074 q 458 1156 481 1123 l 450 1168 l 432 1190 q 479 1158 465 1179 l 490 1143 q 504 1139 498 1135 l 509 1143 q 513 1185 524 1169 l 510 1190 q 487 1208 503 1200 l 490 1213 l 494 1217 q 611 1217 536 1245 z "},"ì":{"ha":393,"x_min":-26,"x_max":444,"o":"m 441 1087 l 444 1087 l 444 1084 q 306 944 430 1084 q 237 810 237 859 q 292 733 237 749 l 327 725 q 316 686 316 703 l 316 684 q 348 603 316 663 q 374 534 374 544 l 375 521 l 372 521 q 275 612 328 612 q 234 558 234 604 q 314 307 234 515 l 314 306 q 198 132 198 250 q 245 -35 198 66 l 250 -52 l 248 -52 q 121 176 131 100 q 113 237 113 196 q 123 277 113 277 q 160 325 160 301 q 174 400 174 378 l 174 423 q 94 582 174 494 q 147 630 147 601 l 147 633 q 105 686 138 686 l 98 686 q 9 606 63 686 l 5 606 q 44 735 18 674 q 139 822 90 822 q 165 901 155 901 q 364 1046 290 1012 q 441 1087 430 1084 m 116 1213 l 123 1204 l 125 1201 l 126 1200 q 89 1193 100 1198 l 85 1191 l 79 1187 q 85 1133 59 1160 l 88 1131 q 279 1043 130 1086 l 280 1042 l 278 1041 l 276 1041 q 145 1061 174 1050 q 12 1129 58 1081 q -14 1172 -8 1150 l 15 1188 q 16 1233 37 1211 l 14 1235 q -24 1255 3 1247 l -26 1257 q 116 1213 80 1250 z "},"í":{"ha":393,"x_min":5,"x_max":444,"o":"m 441 1087 l 444 1087 l 444 1084 q 306 944 430 1084 q 237 810 237 859 q 292 733 237 749 l 327 725 q 316 686 316 703 l 316 684 q 348 603 316 663 q 374 534 374 544 l 375 521 l 372 521 q 275 612 328 612 q 234 558 234 604 q 314 307 234 515 l 314 306 q 198 132 198 250 q 245 -35 198 66 l 250 -52 l 248 -52 q 121 176 131 100 q 113 237 113 196 q 123 277 113 277 q 160 325 160 301 q 174 400 174 378 l 174 423 q 94 582 174 494 q 147 630 147 601 l 147 633 q 105 686 138 686 l 98 686 q 9 606 63 686 l 5 606 q 44 735 18 674 q 139 822 90 822 q 165 901 155 901 q 364 1046 290 1012 q 441 1087 430 1084 m 416 1257 l 414 1255 q 376 1235 387 1247 l 374 1233 q 375 1188 353 1211 l 404 1172 q 378 1129 398 1150 q 245 1061 332 1081 q 114 1041 216 1050 l 112 1041 l 110 1042 l 111 1043 q 302 1131 260 1086 l 304 1133 q 311 1187 331 1160 l 305 1191 l 301 1193 q 264 1200 290 1198 l 264 1201 l 267 1204 l 274 1213 q 416 1257 310 1250 z "},"î":{"ha":393,"x_min":5,"x_max":444,"o":"m 441 1087 l 444 1087 l 444 1084 q 306 944 430 1084 q 237 810 237 859 q 292 733 237 749 l 327 725 q 316 686 316 703 l 316 684 q 348 603 316 663 q 374 534 374 544 l 375 521 l 372 521 q 275 612 328 612 q 234 558 234 604 q 314 307 234 515 l 314 306 q 198 132 198 250 q 245 -35 198 66 l 250 -52 l 248 -52 q 121 176 131 100 q 113 237 113 196 q 123 277 113 277 q 160 325 160 301 q 174 400 174 378 l 174 423 q 94 582 174 494 q 147 630 147 601 l 147 633 q 105 686 138 686 l 98 686 q 9 606 63 686 l 5 606 q 44 735 18 674 q 139 822 90 822 q 165 901 155 901 q 364 1046 290 1012 q 441 1087 430 1084 m 317 1257 l 317 1256 q 258 1177 258 1214 l 262 1177 q 312 1217 287 1177 q 378 1159 331 1207 q 421 1057 421 1104 l 420 1057 q 302 1159 390 1114 q 240 1131 269 1131 l 213 1125 q 141 1070 184 1116 q 127 1053 136 1067 l 126 1053 q 308 1255 126 1168 l 317 1257 z "},"ï":{"ha":393,"x_min":5,"x_max":583,"o":"m 441 1087 l 444 1087 l 444 1084 q 306 944 430 1084 q 237 810 237 859 q 292 733 237 749 l 327 725 q 316 686 316 703 l 316 684 q 348 603 316 663 q 374 534 374 544 l 375 521 l 372 521 q 275 612 328 612 q 234 558 234 604 q 314 307 234 515 l 314 306 q 198 132 198 250 q 245 -35 198 66 l 250 -52 l 248 -52 q 121 176 131 100 q 113 237 113 196 q 123 277 113 277 q 160 325 160 301 q 174 400 174 378 l 174 423 q 94 582 174 494 q 147 630 147 601 l 147 633 q 105 686 138 686 l 98 686 q 9 606 63 686 l 5 606 q 44 735 18 674 q 139 822 90 822 q 165 901 155 901 q 364 1046 290 1012 q 441 1087 430 1084 m 241 1257 l 242 1257 l 242 1256 q 229 1222 229 1238 q 256 1185 229 1198 q 267 1183 260 1183 q 307 1189 283 1183 q 320 1154 320 1173 q 283 1074 320 1120 q 203 1096 243 1096 l 189 1096 l 160 1094 q 213 1115 187 1115 l 231 1115 q 243 1124 243 1117 l 243 1131 q 210 1158 230 1158 l 205 1158 q 177 1149 193 1158 l 174 1155 l 174 1161 q 241 1257 174 1211 m 581 1217 l 583 1216 l 582 1215 q 546 1206 559 1216 q 530 1164 526 1193 q 536 1153 532 1159 q 564 1124 545 1140 q 543 1093 559 1104 q 456 1078 515 1074 q 428 1156 451 1123 l 420 1168 l 402 1190 q 449 1158 435 1179 l 460 1143 q 474 1139 468 1135 l 479 1143 q 483 1185 494 1169 l 480 1190 q 457 1208 473 1200 l 460 1213 l 465 1217 q 581 1217 506 1245 z "},"ð":{"ha":749,"x_min":-75,"x_max":709,"o":"m 315 634 q 254 416 290 528 l 268 416 q 383 372 338 416 q 393 357 393 361 l 395 357 l 519 570 q 456 625 494 625 l 454 625 q 393 597 425 625 l 391 597 l 391 599 q 444 677 420 658 l 515 724 q 571 780 543 747 q 390 949 512 894 q 241 874 312 922 l 228 862 l 250 796 q 302 756 272 756 q 343 791 326 756 l 347 791 q 340 754 344 773 q 376 640 376 696 q 358 564 376 605 l 355 564 q 315 634 351 600 m 123 710 q 158 748 152 718 l 158 754 q 117 794 147 794 q 35 724 81 794 l 31 724 l 31 726 q 130 934 31 831 q 444 1084 237 1034 q 556 1103 533 1103 l 556 1100 q 476 1034 476 1060 l 476 1029 q 611 916 530 1004 q 709 659 709 798 l 709 656 l 707 649 l 704 649 q 654 689 677 689 q 608 644 627 689 l 608 636 q 644 585 608 615 q 497 348 644 541 q 454 210 454 279 l 454 189 q 572 -91 454 65 l 571 -91 q 416 43 514 -57 q 334 216 355 113 q 279 313 320 313 q 220 269 248 313 q 212 224 212 244 l 212 212 q 257 52 212 153 l 256 52 q 145 189 163 145 q 85 373 85 296 l 87 399 q 150 433 126 407 q 191 586 191 482 q 164 657 191 624 l 144 657 q 18 612 67 657 l 13 606 q 45 573 14 599 l 44 572 q -50 594 -12 594 l -50 594 q -74 591 -61 594 l -75 593 q -46 650 -69 616 l -41 677 q -45 702 -42 696 l -43 703 q 4 695 -25 695 l 11 695 q 103 707 54 695 l 103 708 l 104 708 q 119 712 112 710 q 123 710 121 711 z "},"ñ":{"ha":734,"x_min":52,"x_max":700,"o":"m 700 1158 q 573 911 573 1039 l 573 896 q 654 680 573 810 q 692 568 692 611 q 637 417 692 480 l 631 414 l 631 417 q 648 475 648 449 l 648 478 q 602 547 645 532 q 549 486 578 547 l 543 444 q 578 290 543 427 q 583 240 583 266 l 583 220 q 414 -58 583 135 l 414 -55 q 498 197 498 103 q 449 292 488 292 l 439 294 l 437 294 q 355 273 401 294 l 353 275 q 376 387 376 336 q 219 585 376 532 l 216 585 q 210 538 210 562 l 210 526 q 278 361 210 448 l 237 342 q 97 59 97 254 l 94 59 q 66 187 66 128 q 119 387 66 262 q 122 427 122 402 l 122 448 q 98 690 122 593 q 146 734 140 713 l 146 741 q 105 796 130 796 l 100 796 q 53 769 82 796 l 52 771 l 52 772 q 290 1053 52 947 q 347 1073 318 1067 q 220 880 220 966 l 220 873 q 303 677 220 719 q 357 667 332 667 l 372 669 l 454 483 l 456 483 q 514 604 457 509 q 528 652 528 635 q 491 813 528 664 q 486 867 486 839 q 697 1158 486 1013 l 700 1158 m 676 1257 l 676 1255 q 608 1216 625 1240 q 577 1113 577 1172 q 580 1088 578 1094 l 579 1088 l 574 1088 q 528 1072 553 1088 q 448 1054 497 1054 l 436 1054 q 353 1078 385 1054 q 374 1106 374 1088 q 310 1140 374 1130 l 307 1140 q 219 1066 262 1140 l 218 1066 l 218 1067 q 274 1188 234 1145 q 314 1228 295 1216 l 317 1228 q 313 1204 313 1215 l 313 1202 q 336 1190 313 1190 q 412 1165 391 1181 q 441 1124 429 1147 q 466 1116 450 1116 l 471 1116 q 508 1129 508 1121 q 513 1141 513 1134 q 497 1179 513 1154 l 497 1180 l 522 1176 q 567 1203 555 1176 q 669 1257 608 1257 l 676 1257 z "},"ò":{"ha":689,"x_min":6,"x_max":665,"o":"m 567 1093 l 567 1092 q 486 877 486 973 q 665 654 486 731 l 665 650 q 620 568 620 623 l 626 503 q 585 332 626 448 l 582 300 l 582 296 l 588 231 l 588 225 q 480 66 588 170 l 480 67 q 517 187 517 131 q 479 271 517 256 l 467 273 q 389 193 429 273 q 376 149 376 168 q 465 -11 376 87 l 461 -11 q 328 87 405 13 q 275 193 285 136 l 260 281 q 212 313 247 313 q 175 286 186 313 l 170 258 q 201 171 170 220 l 199 171 q 125 314 125 231 l 134 412 q 74 527 134 472 q 115 583 115 549 l 115 591 q 83 647 106 647 l 79 647 q 9 585 51 647 l 6 585 q 52 755 22 706 q 172 891 63 783 q 360 1013 275 972 q 567 1093 451 1057 m 153 714 q 203 618 203 661 l 201 610 q 224 604 212 604 q 358 732 288 604 l 360 732 l 360 730 q 319 593 342 649 q 252 509 309 569 q 226 419 226 468 l 228 419 q 330 366 273 417 q 357 307 357 328 q 492 394 447 394 l 497 396 q 536 511 528 412 q 491 558 536 558 q 422 544 469 558 l 421 545 l 421 547 q 456 652 456 602 l 456 667 q 410 787 456 707 q 396 895 396 831 l 396 921 q 266 850 328 895 q 153 714 175 779 m 238 1213 l 245 1204 l 248 1201 l 248 1200 q 211 1193 222 1198 l 207 1191 l 201 1187 q 208 1133 181 1160 l 210 1131 q 401 1043 252 1086 l 402 1042 l 400 1041 l 398 1041 q 267 1061 296 1050 q 134 1129 180 1081 q 109 1172 114 1150 l 137 1188 q 138 1233 159 1211 l 136 1235 q 98 1255 125 1247 l 96 1257 q 238 1213 202 1250 z "},"ó":{"ha":689,"x_min":6,"x_max":665,"o":"m 567 1093 l 567 1092 q 486 877 486 973 q 665 654 486 731 l 665 650 q 620 568 620 623 l 626 503 q 585 332 626 448 l 582 300 l 582 296 l 588 231 l 588 225 q 480 66 588 170 l 480 67 q 517 187 517 131 q 479 271 517 256 l 467 273 q 389 193 429 273 q 376 149 376 168 q 465 -11 376 87 l 461 -11 q 328 87 405 13 q 275 193 285 136 l 260 281 q 212 313 247 313 q 175 286 186 313 l 170 258 q 201 171 170 220 l 199 171 q 125 314 125 231 l 134 412 q 74 527 134 472 q 115 583 115 549 l 115 591 q 83 647 106 647 l 79 647 q 9 585 51 647 l 6 585 q 52 755 22 706 q 172 891 63 783 q 360 1013 275 972 q 567 1093 451 1057 m 153 714 q 203 618 203 661 l 201 610 q 224 604 212 604 q 358 732 288 604 l 360 732 l 360 730 q 319 593 342 649 q 252 509 309 569 q 226 419 226 468 l 228 419 q 330 366 273 417 q 357 307 357 328 q 492 394 447 394 l 497 396 q 536 511 528 412 q 491 558 536 558 q 422 544 469 558 l 421 545 l 421 547 q 456 652 456 602 l 456 667 q 410 787 456 707 q 396 895 396 831 l 396 921 q 266 850 328 895 q 153 714 175 779 m 477 1257 l 476 1255 q 437 1235 449 1247 l 435 1233 q 437 1188 414 1211 l 465 1172 q 439 1129 460 1150 q 307 1061 393 1081 q 176 1041 277 1050 l 174 1041 l 172 1042 l 172 1043 q 363 1131 321 1086 l 366 1133 q 373 1187 393 1160 l 367 1191 l 363 1193 q 326 1200 352 1198 l 326 1201 l 328 1204 l 336 1213 q 477 1257 372 1250 z "},"ô":{"ha":689,"x_min":6,"x_max":665,"o":"m 567 1093 l 567 1092 q 486 877 486 973 q 665 654 486 731 l 665 650 q 620 568 620 623 l 626 503 q 585 332 626 448 l 582 300 l 582 296 l 588 231 l 588 225 q 480 66 588 170 l 480 67 q 517 187 517 131 q 479 271 517 256 l 467 273 q 389 193 429 273 q 376 149 376 168 q 465 -11 376 87 l 461 -11 q 328 87 405 13 q 275 193 285 136 l 260 281 q 212 313 247 313 q 175 286 186 313 l 170 258 q 201 171 170 220 l 199 171 q 125 314 125 231 l 134 412 q 74 527 134 472 q 115 583 115 549 l 115 591 q 83 647 106 647 l 79 647 q 9 585 51 647 l 6 585 q 52 755 22 706 q 172 891 63 783 q 360 1013 275 972 q 567 1093 451 1057 m 153 714 q 203 618 203 661 l 201 610 q 224 604 212 604 q 358 732 288 604 l 360 732 l 360 730 q 319 593 342 649 q 252 509 309 569 q 226 419 226 468 l 228 419 q 330 366 273 417 q 357 307 357 328 q 492 394 447 394 l 497 396 q 536 511 528 412 q 491 558 536 558 q 422 544 469 558 l 421 545 l 421 547 q 456 652 456 602 l 456 667 q 410 787 456 707 q 396 895 396 831 l 396 921 q 266 850 328 895 q 153 714 175 779 m 421 1257 l 421 1256 q 363 1177 363 1214 l 366 1177 q 416 1217 391 1177 q 482 1159 435 1207 q 526 1057 526 1104 l 525 1057 q 406 1159 494 1114 q 345 1131 373 1131 l 317 1125 q 245 1070 289 1116 q 232 1053 240 1067 l 231 1053 q 412 1255 231 1168 l 421 1257 z "},"õ":{"ha":689,"x_min":6,"x_max":665,"o":"m 567 1093 l 567 1092 q 486 877 486 973 q 665 654 486 731 l 665 650 q 620 568 620 623 l 626 503 q 585 332 626 448 l 582 300 l 582 296 l 588 231 l 588 225 q 480 66 588 170 l 480 67 q 517 187 517 131 q 479 271 517 256 l 467 273 q 389 193 429 273 q 376 149 376 168 q 465 -11 376 87 l 461 -11 q 328 87 405 13 q 275 193 285 136 l 260 281 q 212 313 247 313 q 175 286 186 313 l 170 258 q 201 171 170 220 l 199 171 q 125 314 125 231 l 134 412 q 74 527 134 472 q 115 583 115 549 l 115 591 q 83 647 106 647 l 79 647 q 9 585 51 647 l 6 585 q 52 755 22 706 q 172 891 63 783 q 360 1013 275 972 q 567 1093 451 1057 m 153 714 q 203 618 203 661 l 201 610 q 224 604 212 604 q 358 732 288 604 l 360 732 l 360 730 q 319 593 342 649 q 252 509 309 569 q 226 419 226 468 l 228 419 q 330 366 273 417 q 357 307 357 328 q 492 394 447 394 l 497 396 q 536 511 528 412 q 491 558 536 558 q 422 544 469 558 l 421 545 l 421 547 q 456 652 456 602 l 456 667 q 410 787 456 707 q 396 895 396 831 l 396 921 q 266 850 328 895 q 153 714 175 779 m 586 1257 l 586 1255 q 518 1216 535 1240 q 487 1113 487 1172 q 490 1088 488 1094 l 489 1088 l 484 1088 q 437 1072 463 1088 q 358 1054 407 1054 l 346 1054 q 263 1078 295 1054 q 284 1106 284 1088 q 220 1140 284 1130 l 216 1140 q 129 1066 172 1140 l 128 1066 l 128 1067 q 184 1188 144 1145 q 224 1228 205 1216 l 227 1228 q 223 1204 223 1215 l 223 1202 q 245 1190 223 1190 q 322 1165 301 1181 q 351 1124 339 1147 q 376 1116 359 1116 l 381 1116 q 418 1129 418 1121 q 423 1141 423 1134 q 407 1179 423 1154 l 407 1180 l 432 1176 q 477 1203 465 1176 q 578 1257 518 1257 l 586 1257 z "},"ö":{"ha":689,"x_min":6,"x_max":707,"o":"m 567 1093 l 567 1092 q 486 877 486 973 q 665 654 486 731 l 665 650 q 620 568 620 623 l 626 503 q 585 332 626 448 l 582 300 l 582 296 l 588 231 l 588 225 q 480 66 588 170 l 480 67 q 517 187 517 131 q 479 271 517 256 l 467 273 q 389 193 429 273 q 376 149 376 168 q 465 -11 376 87 l 461 -11 q 328 87 405 13 q 275 193 285 136 l 260 281 q 212 313 247 313 q 175 286 186 313 l 170 258 q 201 171 170 220 l 199 171 q 125 314 125 231 l 134 412 q 74 527 134 472 q 115 583 115 549 l 115 591 q 83 647 106 647 l 79 647 q 9 585 51 647 l 6 585 q 52 755 22 706 q 172 891 63 783 q 360 1013 275 972 q 567 1093 451 1057 m 153 714 q 203 618 203 661 l 201 610 q 224 604 212 604 q 358 732 288 604 l 360 732 l 360 730 q 319 593 342 649 q 252 509 309 569 q 226 419 226 468 l 228 419 q 330 366 273 417 q 357 307 357 328 q 492 394 447 394 l 497 396 q 536 511 528 412 q 491 558 536 558 q 422 544 469 558 l 421 545 l 421 547 q 456 652 456 602 l 456 667 q 410 787 456 707 q 396 895 396 831 l 396 921 q 266 850 328 895 q 153 714 175 779 m 366 1257 l 367 1257 l 367 1256 q 354 1222 354 1238 q 380 1185 354 1198 q 392 1183 385 1183 q 432 1189 408 1183 q 445 1154 445 1173 q 408 1074 445 1120 q 328 1096 368 1096 l 313 1096 l 285 1094 q 338 1115 312 1115 l 356 1115 q 368 1124 368 1117 l 368 1131 q 335 1158 355 1158 l 330 1158 q 302 1149 317 1158 l 299 1155 l 299 1161 q 366 1257 299 1211 m 706 1217 l 707 1216 l 707 1215 q 671 1206 684 1216 q 655 1164 651 1193 q 661 1153 656 1159 q 688 1124 669 1140 q 668 1093 684 1104 q 581 1078 640 1074 q 553 1156 576 1123 l 545 1168 l 527 1190 q 574 1158 559 1179 l 585 1143 q 599 1139 593 1135 l 604 1143 q 608 1185 619 1169 l 605 1190 q 582 1208 597 1200 l 585 1213 l 589 1217 q 706 1217 631 1245 z "},"÷":{"ha":635,"x_min":47,"x_max":576,"o":"m 355 836 q 406 688 406 763 q 451 640 418 640 l 459 640 q 525 736 505 640 l 525 743 l 528 743 q 576 549 576 645 q 555 429 576 494 l 552 429 q 501 546 547 488 q 464 566 481 566 q 378 520 433 566 l 376 520 q 327 575 363 575 l 304 575 q 157 505 214 575 l 151 494 q 189 444 152 484 l 187 441 q 78 477 121 477 l 77 477 q 49 472 64 477 l 47 474 q 81 564 55 511 l 87 607 q 83 646 86 637 l 85 648 q 140 635 106 635 l 149 635 q 276 662 208 635 q 298 652 286 652 q 364 744 351 652 l 364 758 q 355 836 364 787 m 314 963 l 315 963 l 315 962 q 299 920 299 940 q 332 874 299 890 q 346 872 337 872 q 395 880 366 872 q 411 838 411 861 q 366 738 411 795 q 267 766 317 766 l 250 766 l 214 763 q 279 789 248 789 l 302 789 q 317 800 317 791 l 317 808 q 276 842 300 842 l 269 842 q 235 831 254 842 l 232 838 l 232 845 q 314 963 232 907 m 461 343 l 460 341 l 459 341 q 420 371 441 366 q 362 351 389 380 q 355 336 358 345 q 349 282 350 315 q 300 278 324 271 q 209 355 256 290 q 267 451 252 399 l 273 469 l 280 507 q 288 431 297 464 l 281 407 q 289 388 279 391 l 297 386 q 345 418 337 393 l 347 426 q 346 465 351 441 l 354 466 l 361 464 q 461 343 426 446 z "},"ø":{"ha":689,"x_min":-3,"x_max":665,"o":"m 233 467 q 227 438 231 452 q 226 419 226 429 l 228 419 q 330 366 273 417 q 357 307 357 328 q 492 394 447 394 l 497 396 q 536 511 528 412 q 491 558 536 558 q 422 544 469 558 l 421 545 l 421 547 q 444 591 435 570 q 327 534 378 547 q 258 515 286 533 l 257 514 q 252 509 254 512 q 233 467 239 489 m 123 462 q 74 527 109 495 q 115 583 115 549 l 115 591 q 83 647 106 647 l 79 647 q 9 585 51 647 l 6 585 q 52 755 22 706 q 172 891 63 783 q 360 1013 275 972 q 567 1093 451 1057 l 567 1092 q 486 877 486 973 q 500 800 486 836 q 599 981 549 866 l 622 1044 l 622 1043 q 566 850 606 958 q 524 757 543 793 q 665 654 568 695 l 665 650 q 620 568 620 623 l 626 503 q 585 332 626 448 l 582 300 l 582 296 l 588 231 l 588 225 q 480 66 588 170 l 480 67 q 517 187 517 131 q 479 271 517 256 l 467 273 q 389 193 429 273 q 376 149 376 168 q 465 -11 376 87 l 461 -11 q 328 87 405 13 q 275 193 285 136 l 260 281 q 212 313 247 313 q 175 286 186 313 l 170 258 q 201 171 170 220 l 199 171 q 126 302 131 227 q 98 277 113 290 q 7 159 39 222 l -2 136 l -3 138 q 83 321 24 261 q 130 368 100 340 l 134 412 q 132 431 134 422 q 62 351 98 405 q 113 449 89 419 q 123 462 117 455 m 427 755 q 410 787 419 770 q 396 895 396 831 l 396 921 q 266 850 328 895 q 153 714 175 779 q 203 618 203 661 l 201 610 q 224 604 212 604 q 270 620 247 604 l 271 623 l 272 624 q 274 623 273 623 q 332 688 302 644 q 296 683 319 689 l 296 684 l 298 687 l 336 712 q 353 724 345 718 q 358 732 356 728 l 360 732 l 360 730 q 359 727 359 728 q 427 755 397 749 m 456 673 q 387 677 418 697 q 342 604 371 623 l 345 594 l 345 591 q 438 591 355 564 l 445 594 q 456 652 456 624 l 456 673 z "},"ù":{"ha":743,"x_min":-1,"x_max":693,"o":"m 455 1228 l 457 1228 q 581 1124 500 1206 q 693 866 693 995 l 693 853 q 688 797 693 825 l 685 797 q 627 878 665 878 q 587 845 599 878 l 584 823 q 639 773 584 781 q 585 604 585 649 q 613 450 595 473 q 664 404 640 404 q 690 321 690 370 l 690 304 q 653 114 690 235 q 645 96 650 114 l 642 96 l 642 112 q 571 262 642 200 q 481 291 519 291 l 475 291 q 410 268 446 291 q 363 167 380 245 q 354 94 354 130 l 354 79 q 416 -64 354 -4 l 414 -64 q 286 71 321 -18 q 259 189 271 106 q 224 289 259 222 q 184 317 201 317 l 179 317 q 124 263 147 317 q 119 231 119 252 l 119 227 q 137 149 119 191 l 136 148 l 134 148 q 69 284 69 200 l 69 300 q 92 411 69 343 l 97 447 q 29 488 62 488 l 16 492 l 16 493 q 92 566 92 524 l 92 577 q 63 641 92 603 q 106 707 106 666 q 81 755 102 755 l 77 755 q 0 696 54 755 l -1 696 q 102 903 35 842 q 262 1037 224 1021 l 262 1035 q 153 808 153 891 q 190 739 182 779 q 199 715 190 715 l 212 713 q 362 839 273 713 l 362 838 q 269 659 319 711 q 190 492 216 610 q 312 332 229 428 q 349 345 340 332 q 388 410 375 401 l 393 413 q 473 389 420 397 l 507 395 l 507 406 l 508 408 l 507 413 q 468 572 507 549 l 454 577 q 496 669 483 629 q 436 802 496 743 q 420 845 420 820 l 420 855 q 477 953 420 917 l 481 953 l 481 951 q 460 890 460 920 q 488 834 464 842 l 490 834 q 537 927 514 834 q 542 977 542 951 l 542 981 q 455 1226 542 1101 l 455 1228 m 238 1213 l 245 1204 l 248 1201 l 248 1200 q 211 1193 222 1198 l 207 1191 l 201 1187 q 208 1133 181 1160 l 210 1131 q 401 1043 252 1086 l 402 1042 l 400 1041 l 398 1041 q 267 1061 296 1050 q 134 1129 180 1081 q 109 1172 114 1150 l 137 1188 q 138 1233 159 1211 l 136 1235 q 98 1255 125 1247 l 96 1257 q 238 1213 202 1250 z "},"ú":{"ha":743,"x_min":-1,"x_max":693,"o":"m 455 1228 l 457 1228 q 581 1124 500 1206 q 693 866 693 995 l 693 853 q 688 797 693 825 l 685 797 q 627 878 665 878 q 587 845 599 878 l 584 823 q 639 773 584 781 q 585 604 585 649 q 613 450 595 473 q 664 404 640 404 q 690 321 690 370 l 690 304 q 653 114 690 235 q 645 96 650 114 l 642 96 l 642 112 q 571 262 642 200 q 481 291 519 291 l 475 291 q 410 268 446 291 q 363 167 380 245 q 354 94 354 130 l 354 79 q 416 -64 354 -4 l 414 -64 q 286 71 321 -18 q 259 189 271 106 q 224 289 259 222 q 184 317 201 317 l 179 317 q 124 263 147 317 q 119 231 119 252 l 119 227 q 137 149 119 191 l 136 148 l 134 148 q 69 284 69 200 l 69 300 q 92 411 69 343 l 97 447 q 29 488 62 488 l 16 492 l 16 493 q 92 566 92 524 l 92 577 q 63 641 92 603 q 106 707 106 666 q 81 755 102 755 l 77 755 q 0 696 54 755 l -1 696 q 102 903 35 842 q 262 1037 224 1021 l 262 1035 q 153 808 153 891 q 190 739 182 779 q 199 715 190 715 l 212 713 q 362 839 273 713 l 362 838 q 269 659 319 711 q 190 492 216 610 q 312 332 229 428 q 349 345 340 332 q 388 410 375 401 l 393 413 q 473 389 420 397 l 507 395 l 507 406 l 508 408 l 507 413 q 468 572 507 549 l 454 577 q 496 669 483 629 q 436 802 496 743 q 420 845 420 820 l 420 855 q 477 953 420 917 l 481 953 l 481 951 q 460 890 460 920 q 488 834 464 842 l 490 834 q 537 927 514 834 q 542 977 542 951 l 542 981 q 455 1226 542 1101 l 455 1228 m 462 1257 l 460 1255 q 422 1235 433 1247 l 420 1233 q 421 1188 399 1211 l 450 1172 q 424 1129 444 1150 q 291 1061 378 1081 q 160 1041 262 1050 l 158 1041 l 156 1042 l 157 1043 q 348 1131 306 1086 l 351 1133 q 357 1187 377 1160 l 351 1191 l 347 1193 q 310 1200 336 1198 l 311 1201 l 313 1204 l 320 1213 q 462 1257 356 1250 z "},"û":{"ha":743,"x_min":-1,"x_max":693,"o":"m 455 1228 l 457 1228 q 581 1124 500 1206 q 693 866 693 995 l 693 853 q 688 797 693 825 l 685 797 q 627 878 665 878 q 587 845 599 878 l 584 823 q 639 773 584 781 q 585 604 585 649 q 613 450 595 473 q 664 404 640 404 q 690 321 690 370 l 690 304 q 653 114 690 235 q 645 96 650 114 l 642 96 l 642 112 q 571 262 642 200 q 481 291 519 291 l 475 291 q 410 268 446 291 q 363 167 380 245 q 354 94 354 130 l 354 79 q 416 -64 354 -4 l 414 -64 q 286 71 321 -18 q 259 189 271 106 q 224 289 259 222 q 184 317 201 317 l 179 317 q 124 263 147 317 q 119 231 119 252 l 119 227 q 137 149 119 191 l 136 148 l 134 148 q 69 284 69 200 l 69 300 q 92 411 69 343 l 97 447 q 29 488 62 488 l 16 492 l 16 493 q 92 566 92 524 l 92 577 q 63 641 92 603 q 106 707 106 666 q 81 755 102 755 l 77 755 q 0 696 54 755 l -1 696 q 102 903 35 842 q 262 1037 224 1021 l 262 1035 q 153 808 153 891 q 190 739 182 779 q 199 715 190 715 l 212 713 q 362 839 273 713 l 362 838 q 269 659 319 711 q 190 492 216 610 q 312 332 229 428 q 349 345 340 332 q 388 410 375 401 l 393 413 q 473 389 420 397 l 507 395 l 507 406 l 508 408 l 507 413 q 468 572 507 549 l 454 577 q 496 669 483 629 q 436 802 496 743 q 420 845 420 820 l 420 855 q 477 953 420 917 l 481 953 l 481 951 q 460 890 460 920 q 488 834 464 842 l 490 834 q 537 927 514 834 q 542 977 542 951 l 542 981 q 455 1226 542 1101 l 455 1228 m 352 1257 l 352 1256 q 294 1177 294 1214 l 297 1177 q 347 1217 322 1177 q 413 1159 366 1207 q 456 1057 456 1104 l 456 1057 q 337 1159 425 1114 q 275 1131 304 1131 l 248 1125 q 176 1070 220 1116 q 163 1053 171 1067 l 161 1053 q 343 1255 161 1168 l 352 1257 z "},"ü":{"ha":743,"x_min":-1,"x_max":693,"o":"m 455 1228 l 457 1228 q 581 1124 500 1206 q 693 866 693 995 l 693 853 q 688 797 693 825 l 685 797 q 627 878 665 878 q 587 845 599 878 l 584 823 q 639 773 584 781 q 585 604 585 649 q 613 450 595 473 q 664 404 640 404 q 690 321 690 370 l 690 304 q 653 114 690 235 q 645 96 650 114 l 642 96 l 642 112 q 571 262 642 200 q 481 291 519 291 l 475 291 q 410 268 446 291 q 363 167 380 245 q 354 94 354 130 l 354 79 q 416 -64 354 -4 l 414 -64 q 286 71 321 -18 q 259 189 271 106 q 224 289 259 222 q 184 317 201 317 l 179 317 q 124 263 147 317 q 119 231 119 252 l 119 227 q 137 149 119 191 l 136 148 l 134 148 q 69 284 69 200 l 69 300 q 92 411 69 343 l 97 447 q 29 488 62 488 l 16 492 l 16 493 q 92 566 92 524 l 92 577 q 63 641 92 603 q 106 707 106 666 q 81 755 102 755 l 77 755 q 0 696 54 755 l -1 696 q 102 903 35 842 q 262 1037 224 1021 l 262 1035 q 153 808 153 891 q 190 739 182 779 q 199 715 190 715 l 212 713 q 362 839 273 713 l 362 838 q 269 659 319 711 q 190 492 216 610 q 312 332 229 428 q 349 345 340 332 q 388 410 375 401 l 393 413 q 473 389 420 397 l 507 395 l 507 406 l 508 408 l 507 413 q 468 572 507 549 l 454 577 q 496 669 483 629 q 436 802 496 743 q 420 845 420 820 l 420 855 q 477 953 420 917 l 481 953 l 481 951 q 460 890 460 920 q 488 834 464 842 l 490 834 q 537 927 514 834 q 542 977 542 951 l 542 981 q 455 1226 542 1101 l 455 1228 m 156 1257 l 157 1257 l 157 1256 q 144 1222 144 1238 q 171 1185 144 1198 q 182 1183 175 1183 q 222 1189 198 1183 q 235 1154 235 1173 q 198 1074 235 1120 q 118 1096 159 1096 l 104 1096 l 75 1094 q 128 1115 102 1115 l 146 1115 q 159 1124 159 1117 l 159 1131 q 125 1158 145 1158 l 120 1158 q 92 1149 108 1158 l 90 1155 l 90 1161 q 156 1257 90 1211 m 496 1217 l 498 1216 l 497 1215 q 461 1206 474 1216 q 446 1164 441 1193 q 451 1153 447 1159 q 479 1124 460 1140 q 458 1093 474 1104 q 371 1078 431 1074 q 343 1156 366 1123 l 335 1168 l 317 1190 q 364 1158 350 1179 l 375 1143 q 389 1139 383 1135 l 395 1143 q 398 1185 410 1169 l 395 1190 q 372 1208 388 1200 l 375 1213 l 380 1217 q 496 1217 421 1245 z "},"ý":{"ha":706,"x_min":17,"x_max":686,"o":"m 440 1152 l 440 1149 q 176 838 176 1010 q 222 746 222 790 q 276 733 253 733 l 286 733 q 327 764 313 733 l 330 786 l 330 794 q 322 846 330 820 l 323 848 l 326 848 q 380 770 380 802 q 357 694 357 749 q 369 646 357 665 l 373 646 q 557 775 437 734 q 515 862 553 800 q 463 903 484 903 l 462 903 l 395 891 l 395 894 q 469 972 456 938 q 494 1026 479 981 l 496 1026 q 600 875 577 943 q 683 804 633 804 q 686 786 686 798 l 686 766 q 602 559 686 665 l 599 559 q 606 618 604 585 q 567 685 606 676 l 564 685 q 469 630 528 685 q 422 576 442 601 l 422 574 l 436 572 q 505 619 476 572 l 507 619 q 515 536 515 566 q 463 406 515 449 l 463 404 l 459 404 l 459 406 l 468 458 q 436 508 463 508 l 430 510 l 427 510 q 365 450 387 510 q 355 391 355 412 q 421 320 376 340 q 503 296 452 306 q 515 229 515 264 l 515 220 q 284 -104 515 65 l 281 -104 l 281 -103 q 421 199 421 112 l 421 214 l 387 230 q 317 283 355 244 q 218 232 278 279 q 151 146 161 174 l 148 146 q 267 376 148 247 l 267 385 q 290 547 267 491 q 260 633 260 584 l 260 642 l 262 650 q 184 679 225 679 l 163 679 q 96 666 138 679 l 96 667 q 123 717 123 696 q 76 766 123 749 l 68 766 q 20 727 40 766 l 17 727 q 176 1019 17 887 q 440 1152 307 1116 m 662 1257 l 661 1255 q 622 1235 633 1247 l 620 1233 q 621 1188 599 1211 l 650 1172 q 624 1129 644 1150 q 491 1061 578 1081 q 360 1041 462 1050 l 358 1041 l 356 1042 l 357 1043 q 548 1131 506 1086 l 551 1133 q 557 1187 577 1160 l 551 1191 l 547 1193 q 510 1200 536 1198 l 511 1201 l 513 1204 l 520 1213 q 662 1257 556 1250 z "},"þ":{"ha":713,"x_min":3,"x_max":681,"o":"m 182 834 l 182 833 l 182 832 l 182 834 m 237 984 q 416 1041 314 1018 q 528 1059 505 1059 l 528 1055 q 448 995 448 1019 l 448 990 q 583 886 502 967 q 681 648 681 777 l 681 646 l 679 640 l 676 640 q 626 677 649 677 q 580 635 599 677 l 580 628 q 616 581 580 608 q 469 362 616 540 q 426 235 426 298 l 426 216 q 545 -43 426 101 l 543 -43 q 388 81 486 -12 q 306 241 327 146 q 252 330 292 330 q 209 309 229 330 q 229 267 223 288 q 222 15 253 168 q 225 -182 202 -90 l 237 -213 l 235 -212 q 159 50 144 -60 q 171 145 162 85 q 117 216 129 190 q 115 220 116 218 l 114 218 q 101 64 92 161 q 68 208 67 158 q 78 294 64 243 q 58 385 58 344 l 60 409 q 109 429 89 414 q 107 460 109 444 l 92 517 l 92 518 q 130 549 119 519 l 133 555 q 127 636 148 625 l 126 637 q 63 600 107 646 l 62 600 l 61 605 l 83 661 q 92 683 88 673 q 75 693 84 688 l 75 694 q 98 696 88 694 q 127 746 112 725 q 90 773 115 773 q 7 709 54 773 l 3 709 l 3 710 q 102 902 3 807 q 193 963 141 936 q 144 1154 179 1047 l 109 1238 l 111 1238 q 235 989 176 1136 q 237 984 235 987 m 209 465 q 197 435 203 450 l 213 435 q 344 395 292 435 q 355 383 355 386 l 357 383 l 499 572 q 427 620 469 620 l 424 620 q 355 595 391 620 l 353 595 l 353 597 q 413 667 387 649 l 494 708 q 557 758 525 728 q 351 908 490 859 q 202 861 271 885 q 218 786 216 816 q 216 726 219 749 q 254 757 237 731 l 258 757 q 243 555 263 663 q 319 618 275 573 l 326 628 l 330 627 q 225 475 283 529 q 209 465 216 470 z "},"ÿ":{"ha":706,"x_min":17,"x_max":686,"o":"m 440 1152 l 440 1149 q 176 838 176 1010 q 222 746 222 790 q 276 733 253 733 l 286 733 q 327 764 313 733 l 330 786 l 330 794 q 322 846 330 820 l 323 848 l 326 848 q 380 770 380 802 q 357 694 357 749 q 369 646 357 665 l 373 646 q 557 775 437 734 q 515 862 553 800 q 463 903 484 903 l 462 903 l 395 891 l 395 894 q 469 972 456 938 q 494 1026 479 981 l 496 1026 q 600 875 577 943 q 683 804 633 804 q 686 786 686 798 l 686 766 q 602 559 686 665 l 599 559 q 606 618 604 585 q 567 685 606 676 l 564 685 q 469 630 528 685 q 422 576 442 601 l 422 574 l 436 572 q 505 619 476 572 l 507 619 q 515 536 515 566 q 463 406 515 449 l 463 404 l 459 404 l 459 406 l 468 458 q 436 508 463 508 l 430 510 l 427 510 q 365 450 387 510 q 355 391 355 412 q 421 320 376 340 q 503 296 452 306 q 515 229 515 264 l 515 220 q 284 -104 515 65 l 281 -104 l 281 -103 q 421 199 421 112 l 421 214 l 387 230 q 317 283 355 244 q 218 232 278 279 q 151 146 161 174 l 148 146 q 267 376 148 247 l 267 385 q 290 547 267 491 q 260 633 260 584 l 260 642 l 262 650 q 184 679 225 679 l 163 679 q 96 666 138 679 l 96 667 q 123 717 123 696 q 76 766 123 749 l 68 766 q 20 727 40 766 l 17 727 q 176 1019 17 887 q 440 1152 307 1116 m 256 1257 l 257 1257 l 257 1256 q 244 1222 244 1238 q 271 1185 244 1198 q 282 1183 275 1183 q 322 1189 298 1183 q 335 1154 335 1173 q 298 1074 335 1120 q 218 1096 258 1096 l 203 1096 l 175 1094 q 228 1115 202 1115 l 246 1115 q 258 1124 258 1117 l 258 1131 q 225 1158 245 1158 l 220 1158 q 192 1149 208 1158 l 189 1155 l 189 1161 q 256 1257 189 1211 m 596 1217 l 597 1216 l 597 1215 q 561 1206 574 1216 q 545 1164 541 1193 q 551 1153 547 1159 q 578 1124 559 1140 q 558 1093 574 1104 q 471 1078 530 1074 q 443 1156 466 1123 l 435 1168 l 417 1190 q 464 1158 450 1179 l 475 1143 q 489 1139 483 1135 l 494 1143 q 498 1185 509 1169 l 495 1190 q 472 1208 488 1200 l 475 1213 l 479 1217 q 596 1217 521 1245 z "},"ˆ":{"ha":694,"x_min":211,"x_max":506,"o":"m 401 1257 l 401 1256 q 343 1177 343 1214 l 347 1177 q 397 1217 372 1177 q 463 1159 416 1207 q 506 1057 506 1104 l 505 1057 q 387 1159 475 1114 q 325 1131 353 1131 l 298 1125 q 226 1070 269 1116 q 212 1053 220 1067 l 211 1053 q 393 1255 211 1168 l 401 1257 z "},"ˇ":{"ha":694,"x_min":211,"x_max":506,"o":"m 393 1056 q 211 1257 211 1143 l 212 1257 q 226 1240 220 1244 q 298 1185 269 1194 l 325 1179 q 387 1152 353 1179 q 505 1254 475 1196 l 506 1254 q 463 1152 506 1206 q 397 1094 416 1103 q 347 1134 372 1134 l 343 1134 q 401 1055 343 1097 l 401 1053 l 393 1056 z "},"ˉ":{"ha":694,"x_min":182,"x_max":515,"o":"m 382 1095 l 382 1102 q 340 1150 374 1150 q 326 1145 332 1150 q 245 1159 283 1159 l 240 1159 q 205 1152 219 1159 l 204 1154 q 207 1174 206 1158 l 203 1196 q 182 1243 186 1224 l 182 1244 q 200 1242 193 1242 l 201 1242 q 270 1260 229 1242 l 271 1259 q 247 1232 248 1238 l 251 1227 q 344 1190 287 1190 l 358 1190 q 389 1219 380 1190 l 391 1219 q 444 1195 425 1195 q 468 1206 455 1195 q 500 1267 497 1236 l 502 1267 q 515 1204 515 1233 q 485 1103 515 1154 l 483 1103 l 483 1106 q 441 1157 470 1157 l 436 1157 q 408 1131 415 1157 q 376 1055 408 1093 q 382 1095 382 1080 z "},"˘":{"ha":694,"x_min":151,"x_max":568,"o":"m 568 1257 l 568 1255 q 500 1216 517 1240 q 469 1113 469 1172 q 472 1088 470 1094 l 471 1088 l 466 1088 q 420 1072 445 1088 q 340 1054 389 1054 l 328 1054 q 245 1078 277 1054 q 267 1106 267 1088 q 151 1217 270 1162 q 231 1212 204 1223 q 298 1165 257 1200 q 333 1124 315 1147 q 358 1116 342 1116 l 363 1116 q 400 1129 400 1121 q 406 1141 406 1134 q 389 1179 406 1154 l 389 1180 l 414 1176 q 459 1203 448 1176 q 561 1257 500 1257 l 568 1257 z "},"˙":{"ha":694,"x_min":260,"x_max":420,"o":"m 341 1257 l 342 1257 l 342 1256 q 330 1222 330 1238 q 356 1185 330 1198 q 368 1183 360 1183 q 408 1189 383 1183 q 420 1154 420 1173 q 383 1074 420 1120 q 303 1096 344 1096 l 289 1096 l 260 1094 q 313 1115 288 1115 l 332 1115 q 344 1124 344 1117 l 344 1131 q 311 1158 330 1158 l 305 1158 q 277 1149 293 1158 l 275 1155 l 275 1161 q 341 1257 275 1211 z "},"˚":{"ha":694,"x_min":223,"x_max":457,"o":"m 264 1165 q 273 1234 260 1200 l 277 1257 l 277 1257 q 324 1243 292 1245 q 389 1254 364 1240 l 393 1257 l 395 1258 q 428 1221 414 1247 q 450 1124 452 1179 q 452 1105 451 1115 l 457 1083 l 457 1082 q 445 1084 452 1084 q 422 1006 438 1040 l 421 1006 l 421 1006 q 423 1082 425 1049 q 408 1078 416 1080 q 353 1041 370 1064 l 351 1036 l 350 1036 q 304 1056 328 1038 q 235 1173 252 1095 q 224 1255 223 1217 l 224 1256 l 225 1256 q 264 1165 244 1200 m 395 1181 q 381 1192 388 1190 l 340 1196 l 338 1200 l 325 1195 q 292 1127 302 1182 q 304 1116 298 1120 l 309 1113 q 336 1101 324 1101 l 375 1114 l 378 1112 l 389 1121 q 395 1181 402 1139 z "},"˛":{"ha":694,"x_min":182,"x_max":503,"o":"m 332 -177 l 331 -177 q 292 -104 328 -145 q 201 -41 249 -54 l 193 -40 l 191 -40 q 195 44 182 -3 q 334 224 224 150 q 456 292 395 269 l 457 292 l 457 290 q 288 81 312 166 l 286 73 q 286 23 277 41 l 329 -31 l 327 -37 l 349 -47 q 500 20 399 -61 l 503 19 l 503 18 q 363 -155 467 -110 l 332 -177 z "}}}
